<?xml version="1.0" encoding="UTF-8" standalone="no"?>
<!DOCTYPE svg PUBLIC "-//W3C//DTD SVG 1.1//EN" "http://www.w3.org/Graphics/SVG/1.1/DTD/svg11.dtd">
<svg width="100%" height="100%" viewBox="0 0 1000 1000" version="1.1" xmlns="http://www.w3.org/2000/svg" xmlns:xlink="http://www.w3.org/1999/xlink" xml:space="preserve" xmlns:serif="http://www.serif.com/" style="fill-rule:evenodd;clip-rule:evenodd;stroke-linecap:round;stroke-linejoin:round;stroke-miterlimit:1.5;">
    <path d="M40,960L80,960L500,100L920,960L960,960L500,20L40,960Z" style="fill:rgb(26,26,26);stroke:black;stroke-width:1px;"/>
    <g transform="matrix(0.707107,-0.707107,0.707107,0.707107,-185.894,507.071)">
        <path d="M510,460L820,460L820,810L470,810L470,500L160,500L160,150L510,150L510,460ZM510,500L510,770L780,770L780,500L510,500ZM470,190L200,190L200,460L470,460L470,190Z" style="fill:rgb(26,26,26);"/>
    </g>
</svg>
