<svg width="100%" height="100%" viewBox="0 0 1000 1000" version="1.1" xmlns="http://www.w3.org/2000/svg" xmlns:xlink="http://www.w3.org/1999/xlink" xml:space="preserve" xmlns:serif="http://www.serif.com/" style="fill-rule:evenodd;clip-rule:evenodd;stroke-linejoin:round;stroke-miterlimit:2;">

  <style>
    path {
      fill: rgb(33,33,33);
    }
    @media (prefers-color-scheme: dark) {
      path {
        fill: rgb(200,200,200);
      }
    }
  </style>

    <g transform="matrix(0.483877,0,0,0.483877,-77.5766,312.496)">
        <g transform="matrix(1024,0,0,1024,190,750)">
            <path d="M0.748,-0.306C0.748,-0.226 0.746,-0.082 0.745,-0.072C0.742,-0.043 0.734,-0.037 0.716,-0.037L0.654,-0.037C0.648,-0.037 0.646,-0.035 0.646,-0.029L0.646,-0.006C0.646,-0.001 0.648,0.003 0.654,0.003C0.668,0.003 0.706,0 0.804,0C0.892,0 0.94,0.003 0.952,0.003C0.96,0.003 0.96,-0.001 0.96,-0.007L0.96,-0.03C0.96,-0.033 0.96,-0.037 0.954,-0.037L0.9,-0.037C0.882,-0.037 0.873,-0.053 0.872,-0.091C0.872,-0.108 0.87,-0.254 0.87,-0.314L0.87,-0.384C0.87,-0.41 0.87,-0.61 0.871,-0.632C0.872,-0.653 0.874,-0.671 0.9,-0.671L0.944,-0.671C0.95,-0.671 0.952,-0.675 0.952,-0.681L0.952,-0.702C0.952,-0.707 0.95,-0.711 0.946,-0.711C0.934,-0.711 0.9,-0.707 0.754,-0.708C0.73,-0.708 0.718,-0.706 0.715,-0.696C0.71,-0.676 0.62,-0.47 0.602,-0.428C0.576,-0.369 0.505,-0.204 0.496,-0.186C0.466,-0.268 0.326,-0.6 0.29,-0.694C0.285,-0.707 0.278,-0.711 0.266,-0.711C0.254,-0.711 0.226,-0.708 0.178,-0.708C0.072,-0.708 0.046,-0.711 0.036,-0.711C0.03,-0.711 0.028,-0.707 0.028,-0.705L0.028,-0.678C0.028,-0.675 0.03,-0.671 0.036,-0.671L0.08,-0.671C0.124,-0.671 0.129,-0.649 0.129,-0.613L0.129,-0.442C0.129,-0.424 0.123,-0.178 0.114,-0.108C0.109,-0.073 0.098,-0.037 0.064,-0.037L0.018,-0.037C0.012,-0.037 0.012,-0.033 0.012,-0.031L0.012,-0.006C0.012,0.001 0.012,0.003 0.02,0.003C0.03,0.003 0.064,0 0.15,0C0.226,0 0.254,0.003 0.264,0.003C0.272,0.003 0.274,-0.001 0.274,-0.005L0.274,-0.03C0.274,-0.033 0.272,-0.037 0.266,-0.037L0.222,-0.037C0.19,-0.037 0.178,-0.075 0.174,-0.121C0.168,-0.186 0.169,-0.356 0.169,-0.368C0.169,-0.38 0.17,-0.632 0.174,-0.646C0.186,-0.634 0.278,-0.41 0.296,-0.364C0.302,-0.348 0.432,-0.036 0.436,-0.03C0.44,-0.018 0.446,-0.012 0.452,-0.012C0.462,-0.012 0.47,-0.026 0.474,-0.034C0.479,-0.044 0.581,-0.28 0.596,-0.312C0.608,-0.338 0.734,-0.63 0.742,-0.644L0.746,-0.644C0.748,-0.64 0.748,-0.392 0.748,-0.362L0.748,-0.306Z" style="fill-rule:nonzero;"/>
        </g>
    </g>
    <g transform="matrix(0.483877,0,0,0.483877,412.086,312.496)">
        <g transform="matrix(1024,0,0,1024,190,750)">
            <path d="M0.748,-0.306C0.748,-0.226 0.746,-0.082 0.745,-0.072C0.742,-0.043 0.734,-0.037 0.716,-0.037L0.654,-0.037C0.648,-0.037 0.646,-0.035 0.646,-0.029L0.646,-0.006C0.646,-0.001 0.648,0.003 0.654,0.003C0.668,0.003 0.706,0 0.804,0C0.892,0 0.94,0.003 0.952,0.003C0.96,0.003 0.96,-0.001 0.96,-0.007L0.96,-0.03C0.96,-0.033 0.96,-0.037 0.954,-0.037L0.9,-0.037C0.882,-0.037 0.873,-0.053 0.872,-0.091C0.872,-0.108 0.87,-0.254 0.87,-0.314L0.87,-0.384C0.87,-0.41 0.87,-0.61 0.871,-0.632C0.872,-0.653 0.874,-0.671 0.9,-0.671L0.944,-0.671C0.95,-0.671 0.952,-0.675 0.952,-0.681L0.952,-0.702C0.952,-0.707 0.95,-0.711 0.946,-0.711C0.934,-0.711 0.9,-0.707 0.754,-0.708C0.73,-0.708 0.718,-0.706 0.715,-0.696C0.71,-0.676 0.62,-0.47 0.602,-0.428C0.576,-0.369 0.505,-0.204 0.496,-0.186C0.466,-0.268 0.326,-0.6 0.29,-0.694C0.285,-0.707 0.278,-0.711 0.266,-0.711C0.254,-0.711 0.226,-0.708 0.178,-0.708C0.072,-0.708 0.046,-0.711 0.036,-0.711C0.03,-0.711 0.028,-0.707 0.028,-0.705L0.028,-0.678C0.028,-0.675 0.03,-0.671 0.036,-0.671L0.08,-0.671C0.124,-0.671 0.129,-0.649 0.129,-0.613L0.129,-0.442C0.129,-0.424 0.123,-0.178 0.114,-0.108C0.109,-0.073 0.098,-0.037 0.064,-0.037L0.018,-0.037C0.012,-0.037 0.012,-0.033 0.012,-0.031L0.012,-0.006C0.012,0.001 0.012,0.003 0.02,0.003C0.03,0.003 0.064,0 0.15,0C0.226,0 0.254,0.003 0.264,0.003C0.272,0.003 0.274,-0.001 0.274,-0.005L0.274,-0.03C0.274,-0.033 0.272,-0.037 0.266,-0.037L0.222,-0.037C0.19,-0.037 0.178,-0.075 0.174,-0.121C0.168,-0.186 0.169,-0.356 0.169,-0.368C0.169,-0.38 0.17,-0.632 0.174,-0.646C0.186,-0.634 0.278,-0.41 0.296,-0.364C0.302,-0.348 0.432,-0.036 0.436,-0.03C0.44,-0.018 0.446,-0.012 0.452,-0.012C0.462,-0.012 0.47,-0.026 0.474,-0.034C0.479,-0.044 0.581,-0.28 0.596,-0.312C0.608,-0.338 0.734,-0.63 0.742,-0.644L0.746,-0.644C0.748,-0.64 0.748,-0.392 0.748,-0.362L0.748,-0.306Z" style="fill-rule:nonzero;"/>
        </g>
    </g>
</svg>
