<?xml version="1.0" encoding="UTF-8" standalone="no"?><!DOCTYPE svg PUBLIC "-//W3C//DTD SVG 1.1//EN" "http://www.w3.org/Graphics/SVG/1.1/DTD/svg11.dtd"><svg width="100%" height="100%" viewBox="0 0 13 13" version="1.1" xmlns="http://www.w3.org/2000/svg" xmlns:xlink="http://www.w3.org/1999/xlink" xml:space="preserve" xmlns:serif="http://www.serif.com/" style="fill-rule:evenodd;clip-rule:evenodd;stroke-linejoin:round;stroke-miterlimit:2;"><rect id="Artboard1" x="0" y="0" width="12.088" height="13" style="fill:none;"/><path d="M6.051,0c-1.35,0 -2.823,0.397 -3.992,1.291c-1.169,0.894 -2.008,2.316 -2.008,4.209c0,1.636 0.905,3.417 1,3.602l0,0.398c0,0.878 0.733,1.5 1.5,1.5c0.189,0 0.297,0.055 0.371,0.129c0.074,0.074 0.129,0.182 0.129,0.371c0,0.767 0.622,1.5 1.5,1.5l3,0c0.878,0 1.5,-0.733 1.5,-1.5c0,-0.189 0.055,-0.297 0.129,-0.371c0.074,-0.074 0.182,-0.129 0.371,-0.129c0.411,0 0.802,-0.146 1.078,-0.422c0.276,-0.276 0.422,-0.667 0.422,-1.078l0,-0.4c0.095,-0.186 1,-1.982 1,-3.7c0,-1.852 -0.872,-3.249 -2.051,-4.127c-1.179,-0.877 -2.645,-1.273 -3.949,-1.273Zm0,1c1.096,0 2.38,0.353 3.352,1.076c0.971,0.723 1.648,1.776 1.648,3.324c0,1.392 -0.947,3.377 -0.947,3.377l-0.053,0.106l0,0.617c0,0.189 -0.055,0.297 -0.129,0.371c-0.074,0.074 -0.182,0.129 -0.371,0.129c-0.411,0 -0.802,0.146 -1.078,0.422c-0.276,0.276 -0.422,0.667 -0.422,1.078c0,0.233 -0.178,0.5 -0.5,0.5l-3,0c-0.322,0 -0.5,-0.267 -0.5,-0.5c0,-0.411 -0.146,-0.802 -0.422,-1.078c-0.276,-0.276 -0.667,-0.422 -1.078,-0.422c-0.233,0 -0.5,-0.178 -0.5,-0.5l0,-0.617l-0.053,-0.106c0,0 -0.947,-1.999 -0.947,-3.277c0,-1.607 0.661,-2.685 1.617,-3.416c0.956,-0.731 2.233,-1.084 3.383,-1.084Zm-2.5,5c-0.823,0 -1.5,0.677 -1.5,1.5c0,0.823 0.677,1.5 1.5,1.5c0.823,0 1.5,-0.677 1.5,-1.5c0,-0.823 -0.677,-1.5 -1.5,-1.5Zm5,0c-0.823,0 -1.5,0.677 -1.5,1.5c0,0.823 0.677,1.5 1.5,1.5c0.823,0 1.5,-0.677 1.5,-1.5c0,-0.823 -0.677,-1.5 -1.5,-1.5Zm-2.5,3c-0.4,0.1 -1,1 -1,1.6c0,0.2 0.2,0.4 0.4,0.4c0.4,0 0.5,-0.3 0.6,-0.5c0.1,0.2 0.2,0.5 0.6,0.5c0.2,0 0.4,-0.2 0.4,-0.4c0,-0.6 -0.6,-1.5 -1,-1.6Z" style="fill:#fff;fill-rule:nonzero;"/></svg>