<?xml version="1.0" encoding="UTF-8" standalone="no"?><!DOCTYPE svg PUBLIC "-//W3C//DTD SVG 1.1//EN" "http://www.w3.org/Graphics/SVG/1.1/DTD/svg11.dtd"><svg width="100%" height="100%" viewBox="0 0 1000 1000" version="1.1" xmlns="http://www.w3.org/2000/svg" xmlns:xlink="http://www.w3.org/1999/xlink" xml:space="preserve" xmlns:serif="http://www.serif.com/" style="fill-rule:evenodd;clip-rule:evenodd;stroke-linejoin:round;stroke-miterlimit:2;"><path d="M983.9,420.4c6.1,-12.2 6.1,-30.6 0,-42.9l-42.9,-42.9c-6.1,-6.1 -12.2,-6.1 -24.5,-6.1c-6.1,0 -18.4,0 -24.5,6.1l-330.7,324.6l0,85.8l98,0l324.6,-324.6Zm-790.1,-226.7l612.5,0l0,61.3l-612.5,0l0,-61.3Zm0,183.8l569.6,0l42.9,-42.9l0,-18.4l-612.5,0l0,61.3Zm0,306.2l306.2,0l0,61.3l-306.2,0l0,-61.3Zm0,-183.7l447.1,0l61.2,-61.3l-508.3,0l0,61.3Zm734.9,61.2l0,245c0,67.4 -55.1,122.5 -122.5,122.5l-612.4,0c-67.4,0 -122.5,-55.1 -122.5,-122.5l0,-612.5c0,-67.4 55.1,-122.5 122.5,-122.5l612.5,0c67.4,0 122.5,55.1 122.5,122.5l0,73.5c18.4,0 36.8,12.2 55.1,24.5l6.1,6.1l0,-104c0,-104.2 -79.6,-183.8 -183.7,-183.8l-612.5,0c-104.2,0 -183.8,79.6 -183.8,183.8l0,612.5c0,104.1 79.6,183.7 183.8,183.7l612.5,0c104.1,0 183.7,-79.6 183.7,-183.7l0,-306.3l-61.3,61.2Zm-734.9,61.3l324.6,0l6.1,-6.1l55.1,-55.1l-385.8,0l0,61.2Z" style="fill:#fff;fill-rule:nonzero;"/></svg>