<?xml version="1.0" encoding="UTF-8" standalone="no"?><!DOCTYPE svg PUBLIC "-//W3C//DTD SVG 1.1//EN" "http://www.w3.org/Graphics/SVG/1.1/DTD/svg11.dtd"><svg width="100%" height="100%" viewBox="0 0 72 72" version="1.1" xmlns="http://www.w3.org/2000/svg" xmlns:xlink="http://www.w3.org/1999/xlink" xml:space="preserve" xmlns:serif="http://www.serif.com/" style="fill-rule:evenodd;clip-rule:evenodd;stroke-linejoin:round;stroke-miterlimit:2;"><rect id="Artboard1" x="0" y="0" width="71.415" height="71.083" style="fill:none;"/><rect x="1.425" y="23.663" width="14.76" height="47.39" style="fill:#fff;"/><path d="M8.815,17.193l-0.01,0c-4.685,0 -8.54,-3.855 -8.54,-8.54c0,-4.685 3.855,-8.54 8.54,-8.54c4.685,0 8.54,3.855 8.54,8.54c0,4.685 -3.855,8.54 -8.54,8.54l-0.01,0l0.02,0Z" style="fill:#fff;fill-rule:nonzero;"/><path d="M71.415,71.083l-14.75,0l0,-23c0,-5.49 -0.1,-12.56 -7.66,-12.56c-7.56,0 -8.84,6 -8.84,12.17l0,23.39l-14.73,0l0,-47.42l14.13,0l0,6.48l0.2,0c2,-3.72 6.78,-7.65 13.95,-7.65c14.93,0 17.69,9.81 17.69,22.57l0,26.02l0.01,0Z" style="fill:#fff;fill-rule:nonzero;"/></svg>