<?xml version="1.0" encoding="UTF-8" standalone="no"?><!DOCTYPE svg PUBLIC "-//W3C//DTD SVG 1.1//EN" "http://www.w3.org/Graphics/SVG/1.1/DTD/svg11.dtd"><svg width="100%" height="100%" viewBox="0 0 16 16" version="1.1" xmlns="http://www.w3.org/2000/svg" xmlns:xlink="http://www.w3.org/1999/xlink" xml:space="preserve" xmlns:serif="http://www.serif.com/" style="fill-rule:evenodd;clip-rule:evenodd;stroke-linejoin:round;stroke-miterlimit:2;"><path d="M1.067,14c-0.59,0 -1.067,-0.475 -1.067,-1.06l0,-9.88c0,-0.585 0.478,-1.06 1.067,-1.06l13.866,0c0.588,0 1.065,0.475 1.065,1.06l0.002,0l0,9.88c0,0.585 -0.478,1.06 -1.067,1.06l-13.866,0Zm9.957,-3.88l-6.046,0c-0.387,-0.007 -0.7,-0.32 -0.7,-0.707l-0.005,0l0,-2.826l0.006,0c0,-0.386 0.31,-0.7 0.69,-0.706l6.04,0c0.38,0.01 0.7,0.32 0.7,0.71l0,2.83l-0.01,0c0,0.39 -0.31,0.7 -0.7,0.71l0.025,-0.011Zm-3.544,-3.186l-1.78,1.074l1.766,1.057l0.013,-2.13l0.001,-0.001Zm1.04,2.13l1.78,-1.074l-1.768,-1.055l-0.01,2.13l-0.002,-0.001Z" style="fill:#fff;"/></svg>