<?xml version="1.0" encoding="UTF-8" standalone="no"?><!DOCTYPE svg PUBLIC "-//W3C//DTD SVG 1.1//EN" "http://www.w3.org/Graphics/SVG/1.1/DTD/svg11.dtd"><svg width="100%" height="100%" viewBox="0 0 300 300" version="1.1" xmlns="http://www.w3.org/2000/svg" xmlns:xlink="http://www.w3.org/1999/xlink" xml:space="preserve" xmlns:serif="http://www.serif.com/" style="fill-rule:evenodd;clip-rule:evenodd;stroke-linejoin:round;stroke-miterlimit:2;"><g id="A"><path d="M252.403,286.567l-230.015,0l0,-102.268l25.522,0l0,76.746l178.711,0l0,-76.746l25.827,0l-0.045,102.268Z" style="fill:#fff;fill-rule:nonzero;"/><path d="M76.137,177.313l125.356,26.177l5.238,-25.129l-125.31,-26.176l-5.284,25.128Zm16.406,-60.035l115.881,54.089l10.818,-23.033l-115.881,-54.447l-10.818,23.391Zm32.114,-56.893l98.507,81.672l16.406,-19.55l-98.507,-81.671l-16.406,19.549Zm63.627,-60.385l-20.597,15.358l76.441,102.627l20.597,-15.358l-76.441,-102.627Zm-114.932,235.254l127.693,0l0,-25.523l-127.693,0l0,25.523Z" style="fill:#fff;fill-rule:nonzero;"/></g></svg>