<?xml version="1.0" encoding="UTF-8" standalone="no"?><!DOCTYPE svg PUBLIC "-//W3C//DTD SVG 1.1//EN" "http://www.w3.org/Graphics/SVG/1.1/DTD/svg11.dtd"><svg width="100%" height="100%" viewBox="0 0 75 62" version="1.1" xmlns="http://www.w3.org/2000/svg" xmlns:xlink="http://www.w3.org/1999/xlink" xml:space="preserve" xmlns:serif="http://www.serif.com/" style="fill-rule:evenodd;clip-rule:evenodd;stroke-linejoin:round;stroke-miterlimit:2;"><rect id="Artboard1" x="0" y="0" width="75" height="61.37" style="fill:none;"/><clipPath id="_clip1"><rect x="0" y="0" width="75" height="61.37"/></clipPath><g clip-path="url(#_clip1)"><path d="M75.314,7.767c-2.798,1.233 -5.764,2.041 -8.8,2.4c3.195,-1.897 5.592,-4.896 6.74,-8.43c-3.023,1.78 -6.327,3.031 -9.77,3.7c-2.894,-3.094 -6.946,-4.853 -11.182,-4.853c-8.399,0 -15.31,6.912 -15.31,15.31c0,1.159 0.131,2.314 0.392,3.443c-12.283,-0.617 -23.749,-6.404 -31.54,-15.92c-4.042,6.924 -1.947,15.916 4.74,20.34c-2.431,-0.076 -4.809,-0.727 -6.94,-1.9l0,0.19c0.023,7.243 5.196,13.521 12.3,14.93c-2.257,0.609 -4.623,0.698 -6.92,0.26c2.018,6.204 7.787,10.47 14.31,10.58c-5.426,4.233 -12.118,6.53 -19,6.52c-1.22,0 -2.438,-0.07 -3.65,-0.21c7.002,4.474 15.141,6.852 23.45,6.85c28.18,0 43.58,-23.22 43.58,-43.35l0,-2c2.979,-2.149 5.552,-4.81 7.6,-7.86Z" style="fill:#fff;fill-rule:nonzero;"/></g></svg>