<?xml version="1.0" encoding="UTF-8" standalone="no"?><!DOCTYPE svg PUBLIC "-//W3C//DTD SVG 1.1//EN" "http://www.w3.org/Graphics/SVG/1.1/DTD/svg11.dtd"><svg width="100%" height="100%" viewBox="0 0 453 453" version="1.1" xmlns="http://www.w3.org/2000/svg" xmlns:xlink="http://www.w3.org/1999/xlink" xml:space="preserve" xmlns:serif="http://www.serif.com/" style="fill-rule:evenodd;clip-rule:evenodd;stroke-linejoin:round;stroke-miterlimit:2;"><g><path d="M443.911,156.283l-22.511,-22.51c-7.579,-7.579 -18.372,-10.354 -28.306,-7.94c2.416,-9.938 -0.364,-20.729 -7.94,-28.306l-48.83,-48.83c-4.514,-4.514 -10.21,-7.353 -16.215,-8.367c-1.015,-6.01 -3.858,-11.706 -8.367,-16.215l-15.328,-15.328c-11.716,-11.716 -30.711,-11.716 -42.427,0l-153.506,153.507c-11.716,11.715 -11.716,30.71 0,42.426l32.694,32.694c3.065,3.064 4.551,7.294 4.078,11.604c-0.473,4.31 -2.849,8.122 -6.519,10.461c-97.448,62.117 -106.6,71.269 -110.509,75.178c-26.967,26.967 -26.968,70.847 0,97.813c26.967,26.968 70.846,26.968 97.814,0c3.909,-3.909 13.062,-13.062 75.178,-110.509c2.327,-3.651 6.136,-6.016 10.451,-6.49c4.332,-0.476 8.565,1 11.615,4.05l32.694,32.694c11.716,11.716 30.711,11.715 42.427,0l153.507,-153.505c11.715,-11.716 11.715,-30.711 0,-42.427Zm-174.72,174.721l-32.694,-32.694c-9.479,-9.479 -22.776,-14.121 -36.101,-12.658c-13.325,1.463 -25.27,8.882 -32.475,20.186c-27.532,43.192 -62.214,96.542 -71.094,105.421c-15.295,15.295 -40.093,15.295 -55.388,0c-15.295,-15.295 -15.295,-40.092 0,-55.388c8.879,-8.879 62.229,-43.561 105.421,-71.094c11.31,-7.209 18.75,-19.152 20.213,-32.484c1.463,-13.332 -3.202,-26.608 -12.685,-36.092l-32.694,-32.694l23.841,-23.841l147.496,147.496l-23.84,23.842Zm45.073,-45.074l-147.497,-147.496l108.434,-108.434l15.328,15.327l-17.119,37.976c-0.583,1.294 -0.304,2.813 0.697,3.814c0.01,0.01 0.021,0.02 0.031,0.03c1.027,1.001 2.57,1.253 3.862,0.631l37.111,-17.868l48.83,48.83l-65.291,97.305c-0.909,1.354 -0.732,3.161 0.421,4.313c0.002,0.002 0.005,0.005 0.007,0.007c1.158,1.152 2.972,1.32 4.322,0.402l96.787,-65.782l22.511,22.51l-108.434,108.435Z" style="fill:#fff;fill-rule:nonzero;"/><circle cx="73.846" cy="378.852" r="17.666" style="fill:#fff;"/></g></svg>