<svg width="260" height="281" viewBox="0 0 260 281" xmlns="http://www.w3.org/2000/svg"><title>compare</title><g fill="none" fill-rule="evenodd"><path fill="#15A960" d="M140 196h120v4H140z"/><path fill="#B8B8B8" d="M0 0h120v200H0z"/><g fill="#15A960"><path d="M179.763 274.35c-.594.028-1.094.08-1.5.154-.405.075-.73.17-.975.288-.244.116-.42.252-.525.408-.105.156-.158.325-.158.508 0 .36.107.62.32.775.215.156.494.234.838.234.423 0 .788-.077 1.096-.23.308-.152.61-.384.903-.695v-1.442zm-4.716-3.708c.983-.9 2.166-1.35 3.55-1.35.5 0 .947.082 1.34.245.396.164.73.392 1 .684.274.292.48.64.622 1.047.14.405.212.85.212 1.333v5.4h-.934c-.194 0-.344-.03-.45-.088-.105-.058-.19-.176-.25-.354l-.183-.616c-.217.194-.428.365-.633.512-.206.147-.42.27-.642.37-.222.1-.46.177-.712.23-.253.053-.532.08-.838.08-.36 0-.694-.05-1-.147-.306-.097-.57-.243-.792-.437-.222-.194-.394-.436-.516-.725-.123-.29-.184-.625-.184-1.008 0-.217.036-.432.11-.646.07-.213.19-.417.353-.612.165-.194.377-.377.638-.55.26-.172.582-.322.963-.45.38-.127.824-.232 1.33-.312.506-.08 1.083-.13 1.733-.146v-.5c0-.572-.122-.996-.366-1.27-.245-.276-.598-.413-1.06-.413-.332 0-.608.04-.828.116-.22.078-.413.166-.58.263-.167.097-.318.185-.454.262-.136.078-.288.117-.454.117-.145 0-.267-.038-.367-.113-.1-.075-.18-.162-.242-.262l-.366-.658zm16.166-1.192l-3.39 8.55h-1.868l-3.392-8.55h1.7c.156 0 .285.036.388.108.104.073.172.164.205.275l1.65 4.567c.09.267.167.528.233.783.067.256.125.51.175.767.056-.256.117-.51.184-.767.066-.255.147-.516.24-.783l1.685-4.567c.04-.11.108-.202.208-.275.1-.072.22-.108.358-.108h1.625zm6.334 3.292c0-.267-.038-.518-.113-.755-.075-.236-.187-.443-.337-.62-.15-.178-.34-.318-.57-.42-.232-.104-.5-.155-.805-.155-.595 0-1.063.17-1.404.508-.342.34-.56.82-.655 1.442h3.884zm-3.925 1.24c.033.44.11.82.233 1.14.122.318.283.582.483.79.2.21.438.364.713.467.276.102.58.153.913.153.334 0 .62-.04.863-.116.242-.078.453-.164.633-.26.18-.093.338-.18.474-.257.136-.078.268-.117.396-.117.172 0 .3.064.383.192l.592.75c-.228.267-.483.49-.767.67-.283.18-.58.326-.887.434-.307.108-.62.184-.94.228-.32.045-.63.067-.93.067-.594 0-1.147-.1-1.658-.296-.51-.198-.956-.49-1.334-.876-.377-.386-.675-.864-.89-1.433-.218-.57-.326-1.228-.326-1.978 0-.584.094-1.132.283-1.646.19-.514.46-.96.813-1.342.352-.38.783-.682 1.29-.904.51-.222 1.083-.333 1.722-.333.54 0 1.036.086 1.492.258.455.172.847.424 1.175.754.328.33.584.735.77 1.216.187.48.28 1.03.28 1.646 0 .31-.034.52-.1.63-.067.107-.195.16-.384.16h-5.29zm9.258-3.05c.267-.51.583-.91.95-1.203.367-.293.8-.438 1.3-.438.395 0 .71.086.95.258l-.133 1.542c-.028.1-.068.17-.12.212-.054.042-.125.063-.214.063-.083 0-.207-.014-.37-.042-.164-.028-.324-.042-.48-.042-.227 0-.43.034-.608.1-.178.067-.337.163-.48.288-.14.126-.266.277-.374.455-.107.178-.21.38-.303.608V278h-2.06v-8.55h1.21c.21 0 .358.037.44.112.085.075.14.21.168.405l.125.966zm8.683 3.418c-.594.028-1.094.08-1.5.154-.405.075-.73.17-.975.288-.244.116-.42.252-.525.408-.105.156-.158.325-.158.508 0 .36.107.62.32.775.215.156.494.234.838.234.423 0 .788-.077 1.096-.23.308-.152.61-.384.903-.695v-1.442zm-4.716-3.708c.983-.9 2.166-1.35 3.55-1.35.5 0 .947.082 1.34.245.396.164.73.392 1 .684.274.292.48.64.622 1.047.14.405.212.85.212 1.333v5.4h-.934c-.194 0-.344-.03-.45-.088-.105-.058-.188-.176-.25-.354l-.183-.616c-.217.194-.428.365-.633.512-.206.147-.42.27-.642.37-.222.1-.46.177-.712.23-.253.053-.532.08-.838.08-.36 0-.694-.05-1-.146-.305-.098-.57-.244-.792-.438-.222-.194-.394-.436-.516-.725-.122-.29-.184-.625-.184-1.008 0-.217.037-.432.11-.646.07-.213.19-.417.353-.612.165-.194.377-.377.638-.55.262-.172.582-.322.963-.45.38-.127.825-.232 1.33-.312.506-.08 1.083-.13 1.733-.146v-.5c0-.572-.122-.996-.366-1.27-.245-.276-.597-.413-1.06-.413-.332 0-.608.04-.828.116-.22.078-.413.166-.58.263-.167.097-.318.185-.454.262-.136.078-.288.117-.454.117-.145 0-.267-.038-.367-.113-.1-.075-.18-.162-.242-.262l-.366-.658zm11.783 2.875c.256 0 .478-.035.667-.105.19-.07.346-.165.47-.287.126-.122.22-.27.284-.442.065-.172.097-.36.097-.566 0-.423-.127-.757-.38-1.005-.252-.247-.63-.37-1.137-.37-.505 0-.885.123-1.137.37-.253.248-.38.582-.38 1.005 0 .2.032.386.096.558.063.172.158.32.283.446.125.126.283.223.475.292.19.07.412.105.662.105zm2.325 4.866c0-.166-.05-.302-.15-.408-.1-.106-.236-.188-.408-.246-.172-.06-.374-.102-.604-.13-.23-.028-.475-.05-.734-.063-.26-.013-.526-.026-.8-.037-.276-.01-.544-.033-.805-.067-.228.128-.412.278-.554.45-.14.173-.212.373-.212.6 0 .15.038.29.113.42.076.132.195.244.36.34.163.093.376.167.637.22.26.052.58.08.958.08.383 0 .714-.03.992-.09.278-.057.507-.138.687-.24.18-.103.313-.225.396-.367.083-.142.125-.296.125-.463zm2.05-8.64v.765c0 .245-.147.395-.442.45l-.766.142c.116.294.175.617.175.967 0 .422-.085.804-.254 1.145-.17.342-.405.632-.705.87-.3.24-.654.425-1.062.555-.407.13-.848.196-1.32.196-.167 0-.328-.008-.483-.025-.156-.016-.31-.04-.46-.066-.265.16-.4.34-.4.54 0 .174.08.3.24.38.157.08.367.138.628.17.26.035.558.055.892.064.333.008.675.026 1.025.054.35.028.69.076 1.025.146.333.07.63.18.89.33.263.15.472.353.63.61.16.26.238.592.238.997 0 .378-.093.745-.28 1.1-.185.356-.455.673-.807.95-.353.278-.786.502-1.3.67-.514.17-1.1.255-1.755.255-.644 0-1.205-.062-1.683-.187-.478-.124-.875-.29-1.192-.5-.316-.207-.552-.448-.708-.72-.155-.272-.233-.556-.233-.85 0-.4.12-.735.362-1.004.24-.27.573-.485.995-.646-.228-.117-.408-.272-.542-.467-.133-.194-.2-.45-.2-.766 0-.128.024-.26.07-.396.048-.135.118-.27.21-.403.09-.134.207-.26.345-.38.14-.12.303-.226.492-.32-.433-.234-.774-.545-1.02-.934-.248-.39-.372-.844-.372-1.366 0-.423.085-.805.255-1.146.17-.34.405-.633.708-.874.304-.242.662-.427 1.076-.554.414-.128.865-.192 1.354-.192.367 0 .71.037 1.033.112.323.075.617.185.884.33h2.458zm6.658 3c0-.268-.037-.52-.112-.756-.074-.236-.187-.443-.337-.62-.15-.178-.34-.318-.57-.42-.23-.104-.5-.155-.805-.155-.594 0-1.062.17-1.404.508-.34.34-.56.82-.654 1.442h3.883zm-3.925 1.24c.034.44.112.818.234 1.138.122.32.283.584.483.792.2.21.438.364.713.467.275.102.58.153.912.153.333 0 .62-.04.863-.116.24-.078.452-.164.633-.26.18-.093.34-.18.475-.257.137-.078.27-.117.397-.117.172 0 .3.064.383.192l.592.75c-.228.267-.484.49-.767.67-.283.18-.58.326-.887.434-.31.108-.623.184-.942.228-.32.045-.63.067-.93.067-.594 0-1.146-.1-1.658-.296-.51-.198-.955-.49-1.333-.876s-.675-.864-.892-1.433c-.216-.57-.325-1.228-.325-1.978 0-.584.095-1.132.284-1.646.19-.514.46-.96.812-1.342.353-.38.784-.682 1.292-.904.508-.222 1.082-.333 1.72-.333.54 0 1.037.086 1.492.258.456.172.848.424 1.175.754.328.33.585.735.77 1.216.187.48.28 1.03.28 1.646 0 .31-.033.52-.1.63-.066.107-.194.16-.383.16h-5.292zM185.022 247.258c-.06.078-.12.14-.18.184-.058.044-.143.066-.254.066-.105 0-.208-.032-.308-.096-.1-.063-.22-.136-.358-.216-.14-.08-.304-.153-.496-.217-.192-.065-.43-.097-.713-.097-.36 0-.677.066-.95.196-.272.13-.498.317-.68.562-.18.244-.314.54-.403.887-.09.346-.133.74-.133 1.178 0 .456.048.86.146 1.217.097.356.237.654.42.896.184.242.406.426.667.55.26.126.556.188.883.188.328 0 .593-.04.796-.12.202-.08.373-.17.512-.267.14-.096.26-.185.362-.266.103-.08.218-.12.346-.12.167 0 .292.063.375.19l.592.75c-.228.268-.475.49-.742.672-.267.18-.543.325-.83.433-.285.108-.58.184-.882.228-.303.045-.605.067-.905.067-.527 0-1.025-.1-1.49-.296-.468-.198-.876-.486-1.226-.863-.35-.378-.627-.84-.83-1.388-.202-.548-.304-1.172-.304-1.872 0-.627.09-1.21.27-1.746.182-.536.447-1 .797-1.39.35-.393.783-.7 1.3-.922.517-.222 1.11-.333 1.783-.333.64 0 1.2.102 1.68.308.48.206.912.5 1.295.883l-.54.75zm9.275-1.808V254h-1.26c-.27 0-.443-.125-.515-.375l-.142-.683c-.35.355-.736.643-1.158.862-.423.22-.92.33-1.492.33-.467 0-.88-.08-1.237-.238-.36-.16-.66-.382-.905-.67-.244-.29-.43-.633-.554-1.03-.125-.397-.187-.835-.187-1.313v-5.433h2.058v5.433c0 .523.12.927.363 1.213.24.286.604.43 1.087.43.356 0 .69-.08 1-.24.31-.157.606-.375.883-.653v-6.183h2.06zm3.975 1.483c.266-.51.583-.912.95-1.204.366-.293.8-.438 1.3-.438.394 0 .71.086.95.258l-.134 1.542c-.027.1-.068.17-.12.212-.053.042-.124.063-.213.063-.083 0-.207-.014-.37-.042-.165-.028-.324-.042-.48-.042-.228 0-.43.034-.608.1-.178.067-.338.163-.48.288-.14.126-.266.277-.374.455-.11.178-.21.38-.305.608V254h-2.058v-8.55h1.208c.21 0 .36.037.442.112.083.075.14.21.167.405l.125.966zm6.216 0c.267-.51.584-.912.95-1.204.367-.293.8-.438 1.3-.438.395 0 .712.086.95.258l-.133 1.542c-.028.1-.068.17-.12.212-.054.042-.124.063-.213.063-.084 0-.207-.014-.37-.042-.165-.028-.325-.042-.48-.042-.228 0-.43.034-.61.1-.176.067-.336.163-.478.288-.14.126-.266.277-.375.455-.11.178-.21.38-.305.608V254h-2.058v-8.55h1.208c.21 0 .358.037.442.112.083.075.14.21.166.405l.125.966zm9.542 1.81c0-.268-.037-.52-.112-.756-.075-.236-.188-.443-.338-.62-.15-.178-.34-.318-.57-.42-.23-.104-.5-.155-.805-.155-.594 0-1.062.17-1.404.508-.34.34-.56.82-.653 1.442h3.883zm-3.925 1.24c.033.44.11.818.233 1.138.123.32.284.584.484.792.2.21.437.364.712.467.275.102.58.153.913.153.333 0 .62-.04.862-.116.24-.078.452-.164.633-.26.18-.093.338-.18.475-.257.136-.078.268-.117.395-.117.173 0 .3.064.384.192l.59.75c-.226.267-.482.49-.765.67-.284.18-.58.326-.888.434-.308.108-.622.184-.94.228-.32.045-.63.067-.93.067-.595 0-1.148-.1-1.66-.296-.51-.198-.954-.49-1.332-.876-.378-.386-.675-.864-.892-1.433-.217-.57-.325-1.228-.325-1.978 0-.584.095-1.132.283-1.646.19-.514.46-.96.813-1.342.354-.38.784-.682 1.293-.904.508-.222 1.082-.333 1.72-.333.54 0 1.037.086 1.492.258.456.172.847.424 1.175.754.328.33.585.735.77 1.216.187.48.28 1.03.28 1.646 0 .31-.033.52-.1.63-.067.107-.194.16-.383.16h-5.292zm9.242-3.483c.172-.172.354-.332.546-.48.19-.146.394-.27.608-.374.215-.103.444-.184.688-.242.245-.058.512-.087.8-.087.467 0 .88.08 1.242.237.36.158.663.38.904.667.242.287.425.63.55 1.026.125.397.188.835.188 1.312V254h-2.06v-5.442c0-.522-.118-.926-.357-1.212-.24-.286-.603-.43-1.092-.43-.355 0-.688.08-1 .242-.31.16-.605.38-.883.66V254h-2.058v-8.55h1.258c.267 0 .442.125.525.375l.142.675zm10.208 7.633c-.744 0-1.315-.21-1.712-.63-.398-.418-.596-.997-.596-1.736v-4.775h-.875c-.11 0-.206-.036-.284-.11-.077-.07-.116-.18-.116-.324v-.816l1.375-.225.433-2.334c.028-.11.08-.197.158-.258.078-.06.178-.092.3-.092h1.067v2.692h2.283v1.467h-2.283v4.633c0 .267.065.475.196.625.132.15.31.225.538.225.128 0 .235-.015.32-.046.087-.03.162-.063.226-.097.064-.033.12-.065.17-.096.05-.03.1-.045.15-.045.062 0 .112.015.15.045.04.03.082.077.126.138l.617 1c-.3.25-.645.44-1.034.567-.388.127-.79.19-1.208.19zM168.567 227.158c.122 0 .23.048.325.142l.883.958c-.49.606-1.09 1.07-1.804 1.392-.713.322-1.57.483-2.57.483-.894 0-1.7-.152-2.412-.458-.714-.306-1.324-.73-1.83-1.275-.505-.544-.893-1.194-1.162-1.95-.27-.756-.404-1.58-.404-2.475 0-.906.144-1.735.433-2.488.29-.752.696-1.4 1.22-1.945.526-.545 1.152-.968 1.88-1.27.728-.304 1.533-.455 2.417-.455.877 0 1.657.144 2.337.433.68.29 1.26.667 1.737 1.133l-.75 1.042c-.045.067-.102.125-.17.175-.07.05-.166.075-.29.075-.082 0-.168-.024-.257-.07-.09-.048-.186-.106-.292-.176-.105-.07-.227-.147-.366-.23-.14-.083-.3-.16-.484-.23-.183-.07-.395-.127-.637-.174-.24-.047-.52-.07-.837-.07-.54 0-1.032.095-1.48.286-.446.192-.83.47-1.153.834-.322.364-.572.808-.75 1.333-.178.524-.267 1.123-.267 1.795 0 .678.096 1.28.288 1.808.193.528.452.973.78 1.334.328.36.714.637 1.158.83.445.19.923.286 1.434.286.305 0 .582-.016.83-.05.246-.033.474-.086.682-.158.21-.072.406-.165.592-.28.186-.113.37-.253.554-.42.056-.05.114-.09.175-.12.06-.03.125-.047.192-.047zm7.758-2.416c0-.267-.037-.518-.112-.755-.075-.236-.188-.443-.338-.62-.15-.178-.34-.318-.57-.42-.23-.104-.5-.155-.805-.155-.594 0-1.062.17-1.404.508-.342.34-.56.82-.654 1.442h3.883zm-3.925 1.24c.033.44.11.82.233 1.14.123.318.284.582.484.79.2.21.437.364.712.467.274.102.578.153.912.153.333 0 .62-.04.862-.116.242-.078.453-.164.634-.26.18-.093.338-.18.475-.257.136-.078.268-.117.395-.117.173 0 .3.064.384.192l.59.75c-.226.267-.482.49-.765.67-.284.18-.58.326-.888.434-.31.108-.623.184-.942.228-.32.045-.63.067-.93.067-.594 0-1.147-.1-1.658-.296-.51-.198-.956-.49-1.333-.876-.378-.386-.675-.864-.892-1.433-.217-.57-.325-1.228-.325-1.978 0-.584.094-1.132.283-1.646.19-.514.46-.96.813-1.342.353-.38.783-.682 1.292-.904.508-.222 1.08-.333 1.72-.333.54 0 1.036.086 1.492.258.456.172.847.424 1.175.754.328.33.585.735.77 1.216.187.48.28 1.03.28 1.646 0 .31-.033.52-.1.63-.067.107-.194.16-.383.16H172.4zm9.258-3.05c.267-.51.584-.91.95-1.203.367-.293.8-.438 1.3-.438.395 0 .712.086.95.258l-.133 1.542c-.028.1-.068.17-.12.212-.054.042-.124.063-.213.063-.084 0-.207-.014-.37-.042-.165-.028-.325-.042-.48-.042-.228 0-.43.034-.61.1-.176.067-.336.163-.478.288-.14.126-.266.277-.375.455-.11.178-.21.38-.305.608V230h-2.058v-8.55h1.208c.21 0 .358.037.442.112.083.075.14.21.166.405l.125.966zm7.125 7.2c-.744 0-1.315-.208-1.712-.628-.396-.42-.595-.998-.595-1.737v-4.775h-.875c-.11 0-.205-.036-.283-.11-.078-.07-.117-.18-.117-.324v-.816l1.375-.225.433-2.334c.028-.11.08-.197.16-.258.077-.06.177-.092.3-.092h1.065v2.692h2.284v1.467h-2.284v4.633c0 .267.066.475.196.625.13.15.31.225.537.225.128 0 .234-.015.32-.046.087-.03.162-.063.226-.097.063-.033.12-.065.17-.096.05-.03.1-.045.15-.045.062 0 .112.015.15.045.04.03.08.077.125.138l.617 1c-.3.25-.644.44-1.033.567-.39.127-.792.19-1.21.19zm10.092-9.99c-.067.116-.137.2-.212.254-.075.053-.168.08-.28.08-.116 0-.243-.044-.38-.13-.135-.086-.297-.182-.486-.288-.19-.105-.41-.2-.663-.287-.253-.085-.55-.128-.896-.128-.31 0-.583.037-.816.112-.234.075-.43.18-.588.313-.158.133-.276.293-.354.48-.078.185-.117.39-.117.61 0 .285.08.52.238.71.16.19.37.35.63.483s.558.253.892.358c.333.106.675.218 1.025.338.35.12.69.258 1.025.416.333.16.63.36.89.6.263.242.472.538.63.888.16.35.238.775.238 1.275 0 .544-.093 1.054-.28 1.53-.185.474-.457.888-.816 1.24-.358.354-.796.63-1.312.834-.517.202-1.11.303-1.775.303-.384 0-.76-.037-1.134-.112-.372-.074-.73-.18-1.07-.32-.342-.14-.663-.306-.963-.5-.3-.194-.567-.41-.8-.65l.658-1.075c.056-.078.128-.143.217-.196.09-.054.183-.08.283-.08.14 0 .29.057.45.17.162.115.353.24.575.38.223.14.482.265.78.38.297.113.654.17 1.07.17.64 0 1.134-.15 1.484-.454.35-.303.525-.738.525-1.304 0-.317-.08-.575-.238-.775-.158-.2-.368-.368-.63-.505-.26-.136-.557-.25-.89-.345-.334-.095-.673-.198-1.017-.31-.345-.11-.684-.243-1.017-.4-.333-.154-.63-.357-.892-.607-.26-.25-.47-.563-.63-.938-.157-.375-.236-.837-.236-1.387 0-.44.087-.867.262-1.283.175-.417.43-.786.763-1.11.333-.32.744-.58 1.233-.774.49-.194 1.05-.29 1.683-.29.712 0 1.367.11 1.967.332.6.222 1.11.533 1.533.933l-.558 1.06zm4.5 1.308V230h-2.067v-8.55h2.067zm.283-2.492c0 .178-.036.345-.108.5-.072.156-.168.292-.287.41-.12.115-.26.208-.42.278-.162.07-.335.104-.518.104-.178 0-.346-.035-.504-.104-.157-.07-.295-.163-.412-.28-.116-.116-.21-.252-.28-.408-.068-.155-.103-.322-.103-.5 0-.183.035-.355.104-.516.07-.16.162-.3.278-.417.117-.117.255-.21.413-.28.16-.07.327-.103.505-.103.183 0 .356.034.517.104.16.07.3.162.42.28.12.116.216.255.288.416.072.16.108.333.108.516zM205.475 230v-8.55h1.258c.267 0 .442.125.525.375l.134.633c.15-.166.307-.32.47-.458.165-.14.34-.258.526-.358.186-.1.386-.18.6-.238.214-.058.448-.087.704-.087.54 0 .982.145 1.33.437.346.292.606.68.778 1.163.133-.284.3-.527.5-.73.2-.202.42-.368.658-.495.24-.128.494-.223.763-.284.27-.06.54-.09.813-.09.473 0 .892.07 1.26.215.365.145.674.356.924.634.25.277.44.616.57 1.016.13.4.196.86.196 1.375V230h-2.058v-5.442c0-.544-.12-.954-.358-1.23-.24-.274-.59-.41-1.05-.41-.21 0-.407.035-.588.107-.18.072-.34.176-.476.312-.136.137-.243.307-.32.513-.078.206-.117.442-.117.708V230h-2.067v-5.442c0-.572-.115-.99-.346-1.25-.23-.26-.568-.39-1.012-.39-.3 0-.58.072-.838.22-.258.147-.498.348-.72.604V230h-2.06zm16.017-2.217c.233.284.487.484.762.6.275.117.574.175.896.175.31 0 .592-.058.842-.175.25-.116.462-.294.637-.533.174-.24.31-.54.404-.904.094-.364.14-.793.14-1.288 0-.5-.04-.923-.12-1.27-.08-.348-.195-.63-.345-.846-.152-.217-.333-.375-.547-.475-.214-.1-.457-.15-.73-.15-.427 0-.79.09-1.09.27-.3.18-.585.435-.85.763v3.833zm-.11-5.166c.35-.395.75-.714 1.193-.96.445-.243.967-.365 1.567-.365.467 0 .893.097 1.28.29.385.196.718.478 1 .847.28.37.496.824.65 1.366.152.54.228 1.162.228 1.862 0 .64-.086 1.23-.258 1.775-.172.545-.418 1.017-.738 1.417-.32.4-.705.712-1.158.937-.453.226-.96.338-1.52.338-.48 0-.887-.074-1.226-.22-.34-.148-.642-.352-.908-.613v3.5h-2.06V221.45h1.26c.266 0 .44.125.525.375l.166.792zm9.602-5V230h-2.06v-12.383h2.06zm7.566 7.125c0-.267-.037-.518-.112-.755-.075-.236-.188-.443-.338-.62-.15-.178-.34-.318-.57-.42-.23-.104-.5-.155-.805-.155-.594 0-1.062.17-1.404.508-.34.34-.56.82-.653 1.442h3.883zm-3.925 1.24c.034.44.11.82.234 1.14.12.318.282.582.482.79.2.21.437.364.712.467.275.102.58.153.913.153.333 0 .62-.04.862-.116.24-.078.452-.164.633-.26.18-.093.34-.18.475-.257.136-.078.268-.117.396-.117.172 0 .3.064.383.192l.592.75c-.23.267-.485.49-.768.67-.283.18-.58.326-.888.434-.308.108-.622.184-.94.228-.32.045-.63.067-.93.067-.595 0-1.148-.1-1.66-.296-.51-.198-.954-.49-1.332-.876-.378-.386-.675-.864-.892-1.433-.216-.57-.325-1.228-.325-1.978 0-.584.095-1.132.284-1.646.187-.514.458-.96.81-1.342.354-.38.784-.682 1.293-.904.508-.222 1.082-.333 1.72-.333.54 0 1.037.086 1.492.258.456.172.847.424 1.175.754.328.33.585.735.77 1.216.187.48.28 1.03.28 1.646 0 .31-.033.52-.1.63-.066.107-.194.16-.383.16h-5.292z"/></g><g fill="#6E6E6E"><path d="M21.318 220.142c-.066.116-.137.2-.212.254-.075.053-.168.08-.28.08-.116 0-.242-.044-.378-.13-.137-.086-.3-.182-.488-.288-.19-.105-.41-.2-.662-.287-.253-.085-.552-.128-.896-.128-.31 0-.584.037-.817.112-.233.075-.43.18-.587.313-.16.133-.277.293-.355.48-.077.185-.116.39-.116.61 0 .285.08.52.237.71.16.19.368.35.63.483.26.133.558.253.89.358.334.106.676.218 1.026.338.35.12.692.258 1.025.416.333.16.63.36.892.6.26.242.47.538.63.888.157.35.236.775.236 1.275 0 .544-.093 1.054-.28 1.53-.185.474-.457.888-.815 1.24-.36.354-.796.63-1.313.834-.517.202-1.108.303-1.775.303-.383 0-.76-.037-1.133-.112-.373-.074-.73-.18-1.07-.32-.343-.14-.664-.306-.964-.5-.3-.194-.566-.41-.8-.65l.66-1.075c.054-.078.126-.143.215-.196.09-.054.184-.08.284-.08.14 0 .29.057.45.17.16.115.352.24.575.38.222.14.482.265.78.38.296.113.653.17 1.07.17.64 0 1.133-.15 1.483-.454.35-.303.525-.738.525-1.304 0-.317-.08-.575-.237-.775-.16-.2-.37-.368-.63-.505-.26-.136-.558-.25-.89-.345-.335-.095-.674-.198-1.018-.31-.344-.11-.683-.243-1.017-.4-.333-.154-.63-.357-.89-.607-.262-.25-.472-.563-.63-.938-.16-.375-.238-.837-.238-1.387 0-.44.088-.867.263-1.283.175-.417.43-.786.762-1.11.333-.32.744-.58 1.233-.774.49-.194 1.05-.29 1.684-.29.71 0 1.366.11 1.966.332.6.222 1.11.533 1.534.933l-.56 1.06zm9.142 0c-.067.116-.137.2-.212.254-.075.053-.17.08-.28.08-.116 0-.243-.044-.38-.13-.135-.086-.297-.182-.486-.288-.19-.105-.41-.2-.663-.287-.254-.085-.552-.128-.897-.128-.31 0-.583.037-.816.112-.234.075-.43.18-.588.313-.16.133-.277.293-.355.48-.078.185-.117.39-.117.61 0 .285.08.52.238.71.158.19.368.35.63.483.26.133.557.253.89.358.334.106.676.218 1.026.338.35.12.69.258 1.025.416.333.16.63.36.89.6.262.242.472.538.63.888.16.35.238.775.238 1.275 0 .544-.093 1.054-.28 1.53-.185.474-.457.888-.816 1.24-.36.354-.797.63-1.313.834-.517.202-1.11.303-1.775.303-.384 0-.76-.037-1.134-.112-.372-.074-.73-.18-1.07-.32-.342-.14-.663-.306-.963-.5-.3-.194-.567-.41-.8-.65l.658-1.075c.056-.078.128-.143.217-.196.09-.054.183-.08.283-.08.14 0 .29.057.45.17.16.115.353.24.575.38.223.14.482.265.78.38.297.113.654.17 1.07.17.64 0 1.134-.15 1.484-.454.35-.303.525-.738.525-1.304 0-.317-.08-.575-.238-.775-.16-.2-.37-.368-.63-.505-.26-.136-.558-.25-.892-.345-.333-.095-.672-.198-1.016-.31-.345-.11-.684-.243-1.017-.4-.333-.154-.63-.357-.892-.607-.26-.25-.47-.563-.63-.938-.157-.375-.236-.837-.236-1.387 0-.44.087-.867.262-1.283.174-.417.428-.786.762-1.11.333-.32.744-.58 1.233-.774.49-.194 1.05-.29 1.683-.29.71 0 1.367.11 1.967.332.6.222 1.11.533 1.533.933l-.558 1.06zm9.783 8.008V230h-7.058v-12.05h2.242v10.2h4.816zm7.4 1.85h-2.25v-12.05h2.25V230zm4.167-7.5c.172-.172.354-.332.546-.48.192-.146.394-.27.608-.374.214-.103.443-.184.688-.242.244-.058.51-.087.8-.087.466 0 .88.08 1.24.237.363.158.664.38.906.667.24.287.425.63.55 1.026.125.397.187.835.187 1.312V230h-2.058v-5.442c0-.522-.12-.926-.36-1.212-.237-.286-.6-.43-1.09-.43-.356 0-.69.08-1 .242-.31.16-.606.38-.884.66V230h-2.058v-8.55h1.258c.267 0 .442.125.525.375l.142.675zm12.842 1.133c-.234-.283-.488-.483-.763-.6-.276-.116-.572-.175-.888-.175-.31 0-.592.06-.842.175-.25.117-.464.293-.642.53-.177.236-.313.536-.408.9-.094.363-.142.793-.142 1.287 0 .5.04.924.12 1.27.082.348.197.63.347.85.15.22.333.38.55.476.217.097.458.146.725.146.428 0 .792-.09 1.092-.267.3-.178.583-.43.85-.758v-3.834zm2.058-6.016V230h-1.258c-.272 0-.445-.125-.517-.375l-.175-.825c-.344.394-.74.714-1.187.958-.448.245-.968.367-1.563.367-.467 0-.894-.097-1.283-.292-.39-.194-.724-.476-1.004-.846s-.498-.826-.65-1.37c-.153-.545-.23-1.167-.23-1.867 0-.633.087-1.222.26-1.767.17-.544.418-1.016.74-1.416.323-.4.71-.713 1.16-.938.45-.226.954-.338 1.515-.338.478 0 .887.075 1.225.225.34.15.642.352.91.608v-4.508h2.057zm9.4 3.833V230h-1.258c-.272 0-.445-.125-.517-.375l-.142-.683c-.35.355-.736.643-1.158.862-.422.22-.92.33-1.492.33-.466 0-.88-.08-1.237-.238-.358-.16-.66-.382-.904-.67-.245-.29-.43-.633-.554-1.03-.125-.397-.188-.835-.188-1.313v-5.433h2.058v5.433c0 .523.12.927.363 1.213.243.286.605.43 1.088.43.356 0 .69-.08 1-.24.312-.157.606-.375.884-.653v-6.183h2.058zm7.25 1.667c-.055.09-.114.15-.175.187-.06.036-.14.054-.233.054-.1 0-.207-.027-.32-.083-.115-.056-.247-.118-.397-.188-.15-.07-.32-.13-.512-.187-.192-.056-.418-.083-.68-.083-.405 0-.723.086-.954.258-.23.172-.346.397-.346.675 0 .183.06.337.18.462.118.125.276.235.474.33.197.094.42.18.67.254.25.075.505.157.763.246.26.09.514.19.764.304.25.114.473.258.67.433.198.174.356.384.475.628.12.245.18.54.18.884 0 .41-.075.79-.222 1.137-.148.346-.366.646-.654.9-.29.252-.646.45-1.07.59-.426.143-.917.213-1.472.213-.295 0-.582-.026-.863-.08-.28-.052-.55-.125-.81-.22-.257-.094-.496-.205-.716-.333-.22-.128-.412-.267-.58-.417l.476-.783c.06-.094.133-.167.217-.217.083-.05.19-.075.316-.075.128 0 .25.036.363.11.114.07.246.15.396.232.15.083.326.16.53.233.202.073.46.11.77.11.244 0 .454-.03.63-.09.174-.057.318-.134.432-.228.114-.094.198-.204.25-.33.053-.124.08-.253.08-.387 0-.2-.06-.364-.18-.49-.12-.13-.277-.24-.475-.335-.198-.094-.423-.18-.676-.254-.252-.076-.51-.158-.775-.247-.265-.09-.523-.193-.776-.312-.252-.12-.477-.27-.675-.453-.198-.184-.356-.41-.476-.675-.12-.267-.18-.59-.18-.967 0-.35.07-.683.21-1 .138-.317.343-.593.612-.83.27-.235.606-.424 1.008-.566.403-.143.868-.213 1.396-.213.59 0 1.125.097 1.61.29.482.196.885.45 1.207.768l-.467.742zm4.96 7.016c-.746 0-1.317-.21-1.714-.63-.397-.418-.596-.997-.596-1.736v-4.775h-.875c-.11 0-.205-.036-.283-.11-.078-.07-.117-.18-.117-.324v-.816l1.375-.225.434-2.334c.027-.11.08-.197.158-.258.078-.06.178-.092.3-.092h1.067v2.692h2.282v1.467H88.07v4.633c0 .267.064.475.194.625.13.15.31.225.538.225.128 0 .235-.015.32-.046.087-.03.162-.063.226-.097.064-.033.12-.065.17-.096.05-.03.1-.045.15-.045.062 0 .112.015.15.045.04.03.08.077.126.138l.616 1c-.3.25-.644.44-1.033.567-.39.127-.792.19-1.208.19zm5.29-7.2c.267-.51.584-.912.95-1.204.367-.293.8-.438 1.3-.438.395 0 .71.086.95.258l-.133 1.542c-.028.1-.068.17-.12.212-.054.042-.125.063-.213.063-.084 0-.207-.014-.37-.042-.165-.028-.325-.042-.48-.042-.228 0-.43.034-.61.1-.177.067-.336.163-.478.288-.142.126-.267.277-.375.455-.107.178-.21.38-.303.608V230H91.67v-8.55h1.207c.21 0 .358.037.442.112.082.075.137.21.165.405l.125.966zm12.042-1.483l-4.658 10.9c-.062.144-.14.254-.238.33-.097.074-.246.112-.446.112h-1.533l1.6-3.434-3.458-7.908h1.807c.16 0 .287.04.38.117.09.077.16.166.203.266l1.817 4.434c.06.15.112.3.154.45.043.15.083.302.122.458l.15-.463c.05-.152.105-.304.167-.454l1.715-4.425c.045-.11.118-.202.22-.275.104-.072.22-.108.347-.108h1.65zM36.893 247.117c-.055.09-.114.15-.175.187-.06.036-.14.054-.233.054-.1 0-.207-.027-.32-.083-.115-.056-.247-.118-.397-.188-.15-.07-.32-.13-.512-.187-.192-.056-.418-.083-.68-.083-.405 0-.723.086-.953.258-.23.172-.346.397-.346.675 0 .183.06.337.18.462.118.125.277.235.474.33.198.094.422.18.672.254.25.075.504.157.762.246.26.09.513.19.763.304.25.114.473.258.67.433.198.174.356.384.476.628.12.245.18.54.18.884 0 .41-.075.79-.222 1.137-.146.346-.364.646-.653.9-.29.252-.646.45-1.07.59-.426.143-.916.213-1.472.213-.294 0-.582-.026-.862-.08-.28-.052-.55-.125-.81-.22-.257-.094-.496-.205-.715-.333-.22-.128-.413-.267-.58-.417l.475-.783c.06-.094.134-.167.217-.217.083-.05.19-.075.317-.075s.248.036.362.11c.113.07.245.15.395.232.15.083.326.16.53.233.202.073.46.11.77.11.244 0 .454-.03.63-.09.174-.057.32-.134.433-.228.113-.094.197-.204.25-.33.052-.124.08-.253.08-.387 0-.2-.06-.364-.18-.49-.12-.13-.278-.24-.475-.335-.198-.094-.423-.18-.675-.254-.253-.076-.512-.158-.775-.247-.264-.09-.523-.193-.775-.312-.253-.12-.478-.27-.675-.453-.198-.184-.356-.41-.475-.675-.12-.267-.18-.59-.18-.967 0-.35.07-.683.21-1 .138-.317.342-.593.61-.83.27-.235.607-.424 1.01-.566.402-.143.868-.213 1.395-.213.59 0 1.125.097 1.61.29.482.196.885.45 1.207.768l-.467.742zm4.96 7.016c-.746 0-1.317-.21-1.714-.63-.398-.418-.597-.997-.597-1.736v-4.775h-.875c-.11 0-.205-.036-.283-.11-.078-.07-.117-.18-.117-.324v-.816l1.375-.225.434-2.334c.027-.11.08-.197.158-.258.078-.06.178-.092.3-.092h1.067v2.692h2.283v1.467h-2.283v4.633c0 .267.065.475.196.625.13.15.31.225.537.225.128 0 .235-.015.32-.046.087-.03.162-.063.226-.097.065-.033.122-.065.172-.096.05-.03.1-.045.15-.045.06 0 .11.015.15.045.04.03.08.077.125.138l.616 1c-.3.25-.644.44-1.033.567-.39.127-.792.19-1.208.19zm7.865-3.783c-.594.028-1.094.08-1.5.154-.405.075-.73.17-.975.288-.244.116-.42.252-.525.408-.105.156-.158.325-.158.508 0 .36.107.62.32.775.215.156.494.234.838.234.423 0 .788-.077 1.096-.23.31-.152.61-.384.904-.695v-1.442zm-4.716-3.708c.983-.9 2.166-1.35 3.55-1.35.5 0 .947.082 1.34.245.396.164.73.392 1 .684.274.292.48.64.622 1.047.142.405.213.85.213 1.333v5.4h-.934c-.194 0-.344-.03-.45-.088-.105-.058-.19-.176-.25-.354l-.183-.616c-.217.194-.428.365-.633.512-.206.147-.42.27-.642.37-.222.1-.46.177-.712.23-.253.053-.532.08-.838.08-.36 0-.694-.05-1-.146-.306-.098-.57-.244-.792-.438-.222-.194-.394-.436-.516-.725-.123-.29-.184-.625-.184-1.008 0-.217.036-.432.11-.646.07-.213.19-.417.353-.612.164-.194.376-.377.637-.55.26-.172.582-.322.963-.45.38-.127.823-.232 1.33-.312.505-.08 1.082-.13 1.732-.146v-.5c0-.572-.122-.996-.366-1.27-.245-.276-.598-.413-1.06-.413-.332 0-.608.04-.828.116-.22.078-.412.166-.58.263-.166.097-.317.185-.453.262-.135.078-.287.117-.453.117-.145 0-.267-.038-.367-.113-.1-.075-.18-.162-.242-.262l-.366-.658zm10.583-.142c.172-.172.354-.332.546-.48.193-.146.395-.27.61-.374.213-.103.442-.184.687-.242.244-.058.51-.087.8-.087.466 0 .88.08 1.24.237.363.158.664.38.906.667.24.287.425.63.55 1.026.125.397.187.835.187 1.312V254h-2.058v-5.442c0-.522-.12-.926-.36-1.212-.237-.286-.6-.43-1.09-.43-.356 0-.69.08-1 .242-.31.16-.606.38-.884.66V254H53.66v-8.55h1.258c.267 0 .442.125.525.375l.142.675zm12.842 1.133c-.234-.283-.488-.483-.763-.6-.275-.116-.57-.175-.887-.175-.31 0-.592.06-.842.175-.25.117-.464.293-.642.53-.177.236-.313.536-.408.9-.094.363-.142.793-.142 1.287 0 .5.04.924.12 1.27.082.348.197.63.347.85.15.22.333.38.55.476.217.097.458.146.725.146.428 0 .792-.09 1.092-.267.3-.178.583-.43.85-.758v-3.834zm2.058-6.016V254h-1.258c-.272 0-.445-.125-.517-.375l-.175-.825c-.344.394-.74.714-1.187.958-.448.245-.968.367-1.563.367-.467 0-.894-.097-1.283-.292-.39-.194-.724-.476-1.004-.846s-.498-.826-.65-1.37c-.153-.545-.23-1.167-.23-1.867 0-.633.087-1.222.26-1.767.17-.544.418-1.016.74-1.416.323-.4.71-.713 1.16-.938.45-.226.954-.338 1.515-.338.478 0 .887.075 1.225.225.34.15.642.352.91.608v-4.508h2.057zm6.55 8.733c-.594.028-1.094.08-1.5.154-.405.075-.73.17-.975.288-.244.116-.42.252-.525.408-.105.156-.158.325-.158.508 0 .36.107.62.32.775.215.156.494.234.838.234.422 0 .788-.077 1.096-.23.31-.152.61-.384.905-.695v-1.442zm-4.717-3.708c.984-.9 2.167-1.35 3.55-1.35.5 0 .948.082 1.342.245.395.164.728.392 1 .684.272.292.48.64.62 1.047.143.405.213.85.213 1.333v5.4h-.933c-.194 0-.344-.03-.45-.088-.105-.058-.19-.176-.25-.354l-.183-.616c-.217.194-.428.365-.634.512-.205.147-.42.27-.64.37-.223.1-.46.177-.714.23-.253.053-.533.08-.838.08-.36 0-.695-.05-1-.146-.306-.098-.57-.244-.792-.438-.222-.194-.394-.436-.517-.725-.122-.29-.183-.625-.183-1.008 0-.217.036-.432.108-.646.073-.213.19-.417.355-.612.163-.194.376-.377.637-.55.26-.172.582-.322.963-.45.38-.127.823-.232 1.33-.312.504-.08 1.082-.13 1.732-.146v-.5c0-.572-.122-.996-.367-1.27-.244-.276-.597-.413-1.058-.413-.333 0-.61.04-.83.116-.22.078-.412.166-.578.263-.167.097-.318.185-.454.262-.137.078-.288.117-.455.117-.144 0-.266-.038-.366-.113-.1-.075-.18-.162-.242-.262l-.367-.658zm10.6.29c.267-.51.584-.91.95-1.203.367-.293.8-.438 1.3-.438.395 0 .712.086.95.258l-.133 1.542c-.028.1-.068.17-.12.212-.053.042-.124.063-.213.063-.084 0-.207-.014-.37-.042-.165-.028-.325-.042-.48-.042-.228 0-.43.034-.61.1-.176.067-.336.163-.478.288-.14.126-.266.277-.375.455-.11.178-.21.38-.305.608V254h-2.058v-8.55h1.208c.21 0 .358.037.442.112.083.075.14.21.166.405l.125.966zm9.417.7c-.233-.282-.487-.482-.762-.6-.275-.115-.57-.174-.888-.174-.31 0-.592.06-.842.175-.25.117-.463.293-.64.53-.18.236-.315.536-.41.9-.094.363-.14.793-.14 1.287 0 .5.04.924.12 1.27.08.348.195.63.345.85.15.22.334.38.55.476.217.097.46.146.725.146.428 0 .792-.09 1.092-.267.3-.178.583-.43.85-.758v-3.834zm2.058-6.015V254h-1.258c-.272 0-.444-.125-.517-.375l-.175-.825c-.344.394-.74.714-1.187.958-.447.245-.968.367-1.563.367-.466 0-.894-.097-1.283-.292-.39-.194-.723-.476-1.004-.846-.28-.37-.497-.826-.65-1.37-.153-.545-.23-1.167-.23-1.867 0-.633.087-1.222.26-1.767.17-.544.42-1.016.74-1.416.323-.4.71-.713 1.16-.938.45-.226.955-.338 1.516-.338.478 0 .886.075 1.225.225.34.15.64.352.908.608v-4.508h2.058z"/></g></g></svg>