<?xml version="1.0" encoding="UTF-8" standalone="no"?>
<svg width="1026px" height="197px" viewBox="0 0 1026 197" version="1.1" xmlns="http://www.w3.org/2000/svg" xmlns:xlink="http://www.w3.org/1999/xlink">
    <!-- Generator: Sketch 3.8.3 (29802) - http://www.bohemiancoding.com/sketch -->
    <title>ecc-lululemon</title>
    <desc>Created with Sketch.</desc>
    <defs></defs>
    <g id="Page-1" stroke="none" stroke-width="1" fill="none" fill-rule="evenodd">
        <g id="ecc-lululemon" transform="translate(-3.000000, 0.000000)">
            <path d="M517.587,0.186523 C571.719,0.186523 615.617,44.085023 615.617,98.215823 C615.617,152.347523 571.719,196.245523 517.587,196.245523 C463.456,196.245523 419.558,152.347523 419.558,98.215823 C419.558,44.085023 463.456,0.186523 517.587,0.186523 L517.587,0.186523 Z" id="Shape" fill="#161413"></path>
            <path d="M517.587,3.65723 C569.802,3.65723 612.147,46.00203 612.147,98.21583 C612.147,150.43223 569.802,192.77623 517.587,192.77623 C465.373,192.77623 423.028,150.43223 423.028,98.21583 C423.028,46.00203 465.373,3.65723 517.587,3.65723 L517.587,3.65723 Z" id="Shape" fill="#E20010"></path>
            <path d="M518.056,22.5449 C575.85,23.0156 593.997,49.6836 566.387,98.1924 C553.625,120.612 548.678,134.8439 561.283,145.0209 C569.103,151.3349 579.043,150.1759 591.603,143.8209 C577.919,166.6349 556.025,172.8059 534.746,156.4289 C517.083,142.8349 525.817,123.4669 532.465,106.897 C546.109,72.8896 558.567,37.3037 518.056,36.0527 C477.544,37.3037 490.003,72.8896 503.646,106.897 C510.295,123.4669 519.028,142.8349 501.365,156.4289 C480.087,172.8059 458.193,166.6349 444.51,143.8209 C457.068,150.1759 467.01,151.3349 474.829,145.0209 C487.435,134.8439 482.486,120.612 469.726,98.1924 C442.115,49.6836 460.262,23.0156 518.056,22.5449 L518.056,22.5449 Z" id="Shape" fill="#161413"></path>
            <polygon id="Shape" fill="#FFFFFF" points="558.484 106.841 557.548 108.727 556.667 110.575 555.842 112.388 555.075 114.163 554.369 115.906 553.726 117.616 553.146 119.296 552.634 120.945 552.191 122.568 551.82 124.165 551.524 125.7379 551.308 127.2889 551.172 128.8169 551.123 130.3239 551.163 131.8109 551.297 133.2739 551.528 134.7149 551.861 136.1299 552.297 137.5159 552.837 138.8679 553.481 140.1839 554.23 141.4609 555.084 142.6979 556.038 143.8929 557.093 145.0449 558.247 146.1549 559.496 147.2229 560.344 147.8759 561.203 148.4779 562.081 149.0329 562.977 149.5419 563.891 150.0029 564.819 150.4169 565.765 150.7829 566.726 151.1029 567.7 151.3739 568.688 151.5989 569.686 151.7759 570.695 151.9099 571.716 151.9979 572.744 152.0419 573.783 152.0419 574.83 152.0019 575.888 151.9199 576.953 151.7979 578.026 151.6359 579.108 151.4379 580.2 151.2009 581.301 150.9289 582.411 150.6199 583.46 150.2989 582.532 151.3549 581.099 152.8489 579.635 154.2379 578.142 155.5239 576.623 156.7069 575.078 157.7839 573.511 158.7579 571.921 159.6279 570.311 160.3929 568.681 161.0539 567.032 161.6099 565.365 162.0619 563.681 162.4089 561.979 162.6509 560.258 162.7869 558.521 162.8149 556.766 162.7359 554.993 162.5469 553.203 162.2449 551.396 161.8309 549.575 161.3009 547.738 160.6529 545.887 159.8859 544.023 158.9969 542.148 157.9829 540.265 156.8449 538.373 155.5769 536.484 154.1879 535.029 152.9979 533.73 151.7959 532.573 150.5769 531.551 149.3439 530.654 148.0939 529.875 146.8289 529.208 145.5479 528.645 144.2489 528.181 142.9289 527.81 141.5869 527.526 140.2229 527.328 138.8329 527.212 137.4209 527.172 135.9829 527.207 134.5219 527.312 133.0409 527.485 131.5379 527.722 130.0179 528.017 128.4789 528.365 126.9289 528.766 125.365 529.21 123.791 529.696 122.21 530.219 120.624 530.772 119.033 531.352 117.441 531.953 115.85 532.569 114.26 533.198 112.674 533.832 111.092 534.467 109.518 535.097 107.952 536.375 104.751 537.639 101.542 538.878 98.3311 540.083 95.125 541.247 91.9316 542.356 88.7539 543.405 85.5996 544.382 82.4746 545.276 79.3838 546.08 76.333 546.783 73.3281 547.374 70.3721 547.844 67.4707 548.18 64.6279 548.371 61.8486 548.404 59.1367 548.269 56.4961 547.946 53.9326 547.422 51.4531 546.679 49.0693 545.702 46.793 544.479 44.6416 542.999 42.6357 541.259 40.7959 539.263 39.1406 537.012 37.6797 534.511 36.4219 531.759 35.3682 528.756 34.5215 525.491 33.8809 521.958 33.4453 518.056 33.2129 514.154 33.4453 510.621 33.8809 507.358 34.5215 504.354 35.3682 501.603 36.4219 499.102 37.6797 496.852 39.1396 494.854 40.7959 493.114 42.6357 491.635 44.6416 490.411 46.793 489.434 49.0693 488.691 51.4541 488.167 53.9326 487.845 56.4961 487.708 59.1357 487.742 61.8486 487.934 64.6279 488.27 67.4707 488.738 70.3721 489.33 73.3281 490.032 76.333 490.836 79.3838 491.73 82.4746 492.707 85.5996 493.756 88.7539 494.866 91.9316 496.029 95.126 497.235 98.3311 498.475 101.542 499.738 104.751 501.016 107.952 501.646 109.519 502.281 111.093 502.915 112.674 503.543 114.26 504.16 115.85 504.762 117.441 505.341 119.033 505.894 120.624 506.417 122.211 506.902 123.791 507.348 125.365 507.748 126.9289 508.098 128.4789 508.392 130.0169 508.628 131.5379 508.8 133.0409 508.906 134.5229 508.941 135.9829 508.901 137.4199 508.785 138.8339 508.587 140.2229 508.305 141.5869 507.933 142.9289 507.468 144.2489 506.905 145.5479 506.238 146.8289 505.46 148.0939 504.562 149.3429 503.54 150.5769 502.383 151.7959 501.084 152.9979 499.627 154.1879 497.74 155.5769 495.849 156.8449 493.964 157.9829 492.09 158.9969 490.227 159.8859 488.375 160.6529 486.538 161.3009 484.716 161.8309 482.91 162.2449 481.12 162.5469 479.348 162.7359 477.593 162.8149 475.855 162.7869 474.135 162.6509 472.433 162.4089 470.747 162.0619 469.081 161.6099 467.433 161.0539 465.803 160.3929 464.192 159.6279 462.603 158.7579 461.035 157.7839 459.49 156.7059 457.971 155.5239 456.479 154.2379 455.015 152.8489 453.581 151.3549 452.653 150.2989 453.702 150.6199 454.812 150.9289 455.913 151.2009 457.004 151.4379 458.087 151.6359 459.16 151.7979 460.226 151.9199 461.282 152.0019 462.33 152.0419 463.369 152.0419 464.397 151.9979 465.418 151.9099 466.429 151.7759 467.427 151.5989 468.413 151.3739 469.387 151.1029 470.348 150.7829 471.293 150.4169 472.224 150.0029 473.136 149.5419 474.032 149.0329 474.91 148.4779 475.77 147.8759 476.616 147.2229 477.865 146.1549 479.02 145.0449 480.075 143.8929 481.029 142.6969 481.882 141.4609 482.632 140.1839 483.276 138.8669 483.816 137.5159 484.252 136.1299 484.585 134.7149 484.815 133.2739 484.949 131.8109 484.99 130.3239 484.94 128.8159 484.806 127.2879 484.588 125.7379 484.293 124.166 483.922 122.568 483.479 120.945 482.966 119.295 482.388 117.616 481.743 115.906 481.037 114.163 480.271 112.388 479.446 110.575 478.564 108.728 477.629 106.841 476.64 104.914 475.6 102.947 474.511 100.938 473.373 98.8867 472.203 96.8145 469.782 92.3916 467.642 88.1309 465.768 84.0098 464.157 80.0312 462.811 76.1982 461.723 72.5127 460.892 68.9766 460.312 65.5908 459.983 62.3604 459.897 59.2822 460.05 56.3574 460.436 53.584 461.051 50.958 461.891 48.4727 462.956 46.1221 464.245 43.9004 465.764 41.8008 467.516 39.8184 469.507 37.9521 471.742 36.2012 474.226 34.5693 476.96 33.0586 479.948 31.6719 483.188 30.415 486.682 29.291 490.426 28.3027 494.421 27.4541 498.664 26.7461 503.153 26.1836 507.887 25.7666 512.863 25.498 518.056 25.3799 523.249 25.498 528.226 25.7666 532.96 26.1836 537.449 26.7461 541.692 27.4541 545.687 28.3027 549.432 29.291 552.925 30.415 556.166 31.6719 559.153 33.0586 561.888 34.5693 564.371 36.2012 566.606 37.9521 568.598 39.8184 570.35 41.8008 571.868 43.9004 573.158 46.123 574.223 48.4727 575.063 50.958 575.678 53.584 576.063 56.3574 576.216 59.2822 576.13 62.3604 575.8 65.5908 575.222 68.9766 574.391 72.5127 573.303 76.1982 571.955 80.0312 570.346 84.0098 568.472 88.1309 566.331 92.3916 563.909 96.8145 562.739 98.8867 561.603 100.938 560.513 102.947 559.473 104.914"></polygon>
            <text id="elliptic-curve" font-family="TrebuchetMS-Bold, Trebuchet MS" font-size="64" font-weight="bold" fill="#161413">
                <tspan x="1.007125" y="115">elliptic curve</tspan>
            </text>
            <text id="cryptography" font-family="TrebuchetMS-Bold, Trebuchet MS" font-size="64" font-weight="bold" fill="#161413">
                <tspan x="635.24475" y="115">cryptography</tspan>
            </text>
        </g>
    </g>
</svg>