<?xml version="1.0" encoding="UTF-8" standalone="no"?>
<!-- Created with Inkscape (http://www.inkscape.org/) -->

<svg
   xmlns:dc="http://purl.org/dc/elements/1.1/"
   xmlns:cc="http://creativecommons.org/ns#"
   xmlns:rdf="http://www.w3.org/1999/02/22-rdf-syntax-ns#"
   xmlns:svg="http://www.w3.org/2000/svg"
   xmlns="http://www.w3.org/2000/svg"
   xmlns:sodipodi="http://sodipodi.sourceforge.net/DTD/sodipodi-0.dtd"
   xmlns:inkscape="http://www.inkscape.org/namespaces/inkscape"
   width="999.99994"
   height="1083.8896"
   id="svg36317"
   version="1.1"
   inkscape:version="0.48.5 r10040"
   sodipodi:docname="New document 33">
  <defs
     id="defs36319" />
  <sodipodi:namedview
     id="base"
     pagecolor="#ffffff"
     bordercolor="#666666"
     borderopacity="1.0"
     inkscape:pageopacity="0.0"
     inkscape:pageshadow="2"
     inkscape:zoom="0.28540039"
     inkscape:cx="683.86836"
     inkscape:cy="176.34763"
     inkscape:document-units="px"
     inkscape:current-layer="layer1"
     showgrid="false"
     fit-margin-left="0.5"
     fit-margin-bottom="0.5"
     fit-margin-top="0.5"
     fit-margin-right="0.5"
     inkscape:window-width="1000"
     inkscape:window-height="1032"
     inkscape:window-x="912"
     inkscape:window-y="-14"
     inkscape:window-maximized="0" />
  <metadata
     id="metadata36322">
    <rdf:RDF>
      <cc:Work
         rdf:about="">
        <dc:format>image/svg+xml</dc:format>
        <dc:type
           rdf:resource="http://purl.org/dc/dcmitype/StillImage" />
        <dc:title></dc:title>
      </cc:Work>
    </rdf:RDF>
  </metadata>
  <g
     inkscape:label="Layer 1"
     inkscape:groupmode="layer"
     id="layer1"
     transform="translate(-57.914338,257.48647)">
    <path
       sodipodi:nodetypes="ccccccccccccccc"
       inkscape:connector-curvature="0"
       id="path36304"
       d="m 374.91113,179.36807 383.43715,0 c 0,-136.130371 -59.39985,-228.940795 -221.35927,-228.940795 -191.40198,0 -386.04233,124.601382 -478.574672,279.964045 28.661831,-269.663968 222.012882,-487.37779 513.106712,-487.37779 249.50235,0 485.89325,190.763527 485.89325,507.87434 l 0,120.56194 -680.45975,0 c 0,164.09503 143.14875,229.10959 293.07137,229.10959 182.44719,0 295.43439,-81.98314 295.43439,-81.98314 l 0,229.85114 c 0,0 -127.548,77.47576 -330.85187,77.47576 -264.19709,0 -450.68748,-189.33906 -450.68748,-424.78836 0,-184.80839 111.78775,-332.360881 266.62726,-393.2448674 C 375.17689,90.647764 374.91113,179.36807 374.91113,179.36807 z"
       style="fill:#3277bc;fill-opacity:1;stroke:none" />
  </g>
</svg>
