<?xml version="1.0" encoding="UTF-8" standalone="no"?>
<svg width="25px" height="27px" viewBox="0 0 25 27" version="1.1" xmlns="http://www.w3.org/2000/svg" xmlns:xlink="http://www.w3.org/1999/xlink">
    <!-- Generator: Sketch 3.8.3 (29802) - http://www.bohemiancoding.com/sketch -->
    <title>github</title>
    <desc>Created with Sketch.</desc>
    <defs></defs>
    <g id="Page-1" stroke="none" stroke-width="1" fill="none" fill-rule="evenodd">
        <g id="github" transform="translate(1.000000, 0.000000)" stroke="#979797">
            <path d="M17.5273244,25.719904 C18.9374996,25.9051196 15.8098207,26.3393294 12.523129,26.3393294 C9.17444474,26.3393294 5.61184222,25.7460009 7.14,25.746 C7.955,25.896 8.252,25.393 8.252,24.961 C8.252,24.576 8.238,23.551 8.23,22.191 C3.7,23.176 2.743,20.008 2.743,20.008 C2.003,18.126 0.933,17.625 0.933,17.625 C-0.545,16.615 1.046,16.635 1.046,16.635 C2.681,16.75 3.541,18.315 3.541,18.315 C4.995,20.803 7.355,20.085 8.283,19.667 C8.431,18.615 8.853,17.897 9.317,17.49 C5.7,17.078 1.897,15.68 1.897,9.438 C1.897,7.66 2.532,6.205 3.574,5.068 C3.406,4.655 2.847,2.998 3.734,0.756 C3.734,0.756 5.101,0.318 8.214,2.426 C9.512,2.064 10.906,1.884 12.291,1.876 C13.675,1.884 15.068,2.064 16.369,2.426 C19.479,0.318 20.844,0.756 20.844,0.756 C21.734,2.998 21.174,4.656 21.007,5.066 C22.051,6.206 22.681,7.66 22.681,9.438 C22.681,15.696 18.871,17.073 15.244,17.476 C15.828,17.979 16.349,18.973 16.349,20.493 C16.349,22.67 16.329,24.427 16.329,24.961 C16.329,25.398 16.623,25.905 17.449,25.746 C17.4766638,25.7367616 16.1171492,25.5346884 17.5273244,25.719904 Z" id="Shape"></path>
        </g>
    </g>
</svg>