<?xml version="1.0" encoding="UTF-8" standalone="no"?><!DOCTYPE svg PUBLIC "-//W3C//DTD SVG 1.1//EN" "http://www.w3.org/Graphics/SVG/1.1/DTD/svg11.dtd"><svg width="100%" height="100%" viewBox="0 0 724 682" version="1.1" xmlns="http://www.w3.org/2000/svg" xmlns:xlink="http://www.w3.org/1999/xlink" xml:space="preserve" xmlns:serif="http://www.serif.com/" style="fill-rule:evenodd;clip-rule:evenodd;stroke-linecap:round;stroke-linejoin:round;stroke-miterlimit:1.5;"><rect id="Artboard1" x="0" y="0" width="723.009" height="681.147" style="fill:none;"/><path id="Line" d="M14.197,305.116l701.168,1.67" style="stroke:#2781ce;stroke-width:2px;"/><g id="load-balancing"><g id="arrows"><g><path d="M454.983,509.293c-4,-75.6 -46.2,-97.6 -90.5,-97.6" style="fill:none;stroke:#3e65ac;stroke-width:4px;stroke-linecap:butt;stroke-linejoin:miter;stroke-miterlimit:4;stroke-dasharray:6,8;"/><path d="M462.083,503.493l-7.3,3.4l-7.5,-3l8,17.4l6.8,-17.8Z" style="fill:#3e65ac;fill-rule:nonzero;"/></g><g><path d="M365.083,421.593l0,-62.2" style="fill:#f4cd7c;fill-rule:nonzero;stroke:#3e65ac;stroke-width:4px;stroke-linecap:butt;stroke-linejoin:miter;stroke-miterlimit:4;stroke-dasharray:6,8;"/><path d="M372.483,415.993l-7.4,3.2l-7.4,-3.2l7.4,17.6l7.4,-17.6Z" style="fill:#3e65ac;fill-rule:nonzero;"/></g><g><path d="M365.111,421.766l0,-62.2" style="fill:#f4cd7c;fill-rule:nonzero;stroke:#3e65ac;stroke-width:4px;stroke-linecap:butt;stroke-linejoin:miter;stroke-miterlimit:4;stroke-dasharray:6,8;"/><path d="M372.511,416.166l-7.4,3.2l-7.4,-3.2l7.4,17.6l7.4,-17.6Z" style="fill:#3e65ac;fill-rule:nonzero;"/></g><g><path d="M364.454,222.713l0,-62.2" style="fill:#f4cd7c;fill-rule:nonzero;stroke:#3e65ac;stroke-width:4px;stroke-linecap:butt;stroke-linejoin:miter;stroke-miterlimit:4;stroke-dasharray:6,8;"/><path d="M371.854,217.113l-7.4,3.2l-7.4,-3.2l7.4,17.6l7.4,-17.6Z" style="fill:#3e65ac;fill-rule:nonzero;"/></g><g><path d="M273.983,509.293c4,-75.6 46.2,-97.6 90.5,-97.6" style="fill:none;stroke:#3e65ac;stroke-width:4px;stroke-linecap:butt;stroke-linejoin:miter;stroke-miterlimit:4;stroke-dasharray:6,8;"/><path d="M281.683,503.893l-7.5,3l-7.3,-3.4l6.8,17.8l8,-17.4Z" style="fill:#3e65ac;fill-rule:nonzero;"/></g></g><rect x="186.286" y="527.931" width="359.822" height="93.867" style="fill:none;"/><g id="A"><path d="M316.66,611.701c-7.3,-11.6 -65,-33.7 -96.7,-23.7c0,-4.389 3.612,-8 8,-8l88.7,0c4.389,0 8,3.611 8,8l0,15.7c-0.053,4.368 -3.631,7.946 -8,8Z" style="fill:#c2d7ef;fill-rule:nonzero;"/><path d="M324.876,582.692c0,-2 -1.623,-3.624 -3.623,-3.624l-96.959,0c-2,0 -3.624,1.624 -3.624,3.624l0,25.695c0,2 1.624,3.624 3.624,3.624l96.959,0c2,0 3.623,-1.624 3.623,-3.624l0,-25.695Z" style="fill:none;stroke:#2781ce;stroke-width:4.13px;"/><path d="M283.46,595.601l11.1,0" style="fill:#f4cd7c;fill-rule:nonzero;stroke:#2781ce;stroke-width:1px;stroke-linecap:butt;stroke-linejoin:miter;stroke-miterlimit:4;"/><circle cx="306.16" cy="595.401" r="6.1" style="fill:#4872b6;"/><path d="M259.76,590.101l0,11" style="fill:#f4cd7c;fill-rule:nonzero;stroke:#2d54a2;stroke-width:1px;stroke-linecap:butt;stroke-linejoin:miter;stroke-miterlimit:4;"/><path d="M252.36,590.101l0,11" style="fill:#f4cd7c;fill-rule:nonzero;stroke:#2d54a2;stroke-width:1px;stroke-linecap:butt;stroke-linejoin:miter;stroke-miterlimit:4;"/><path d="M245.06,590.101l0,11" style="fill:#f4cd7c;fill-rule:nonzero;stroke:#2d54a2;stroke-width:1px;stroke-linecap:butt;stroke-linejoin:miter;stroke-miterlimit:4;"/><path d="M237.76,590.101l0,11" style="fill:#f4cd7c;fill-rule:nonzero;stroke:#2d54a2;stroke-width:1px;stroke-linecap:butt;stroke-linejoin:miter;stroke-miterlimit:4;"/></g><g id="B"><path d="M495.56,613.401c-7.3,-11.6 -65,-33.7 -96.7,-23.7c0,-4.389 3.612,-8 8,-8l88.7,0c4.389,0 8,3.611 8,8l0,15.7c-0.053,4.368 -3.631,7.946 -8,8Z" style="fill:#8ce0d1;fill-rule:nonzero;"/><path d="M504.063,584.286c0,-2 -1.624,-3.624 -3.624,-3.624l-96.959,0c-2,0 -3.623,1.624 -3.623,3.624l0,25.695c0,2 1.623,3.624 3.623,3.624l96.959,0c2,0 3.624,-1.624 3.624,-3.624l0,-25.695Z" style="fill:none;stroke:#27ce6d;stroke-width:4.13px;"/><path d="M464.36,595.301l11.1,0" style="fill:#f4cd7c;fill-rule:nonzero;stroke:#2e9c6f;stroke-width:1px;stroke-linecap:butt;stroke-linejoin:miter;stroke-miterlimit:4;"/><circle cx="487.06" cy="595.101" r="6.1" style="fill:#48b699;"/><path d="M440.66,589.801l0,11" style="fill:#f4cd7c;fill-rule:nonzero;stroke:#2d54a2;stroke-width:1px;stroke-linecap:butt;stroke-linejoin:miter;stroke-miterlimit:4;"/><path d="M433.26,589.801l0,11" style="fill:#f4cd7c;fill-rule:nonzero;stroke:#2d54a2;stroke-width:1px;stroke-linecap:butt;stroke-linejoin:miter;stroke-miterlimit:4;"/><path d="M425.96,589.801l0,11" style="fill:#f4cd7c;fill-rule:nonzero;stroke:#2d54a2;stroke-width:1px;stroke-linecap:butt;stroke-linejoin:miter;stroke-miterlimit:4;"/><path d="M418.66,589.801l0,11" style="fill:#f4cd7c;fill-rule:nonzero;stroke:#2d54a2;stroke-width:1px;stroke-linecap:butt;stroke-linejoin:miter;stroke-miterlimit:4;"/></g><text x="236.064px" y="562.568px" style="font-family:'SegoeUI-Bold', 'Segoe UI', sans-serif;font-weight:700;font-size:15px;fill:#2781ce;">app/blue</text><text x="313.302px" y="541.405px" style="font-family:'SegoeUI-Bold', 'Segoe UI', sans-serif;font-weight:700;font-size:15px;fill:#2781ce;">&apos;app&apos; b<tspan x="362.059px 370.131px 377.33px 385.504px 393.619px " y="541.405px 541.405px 541.405px 541.405px 541.405px ">acken</tspan>d</text><text x="418.108px" y="560.672px" style="font-family:'SegoeUI-Bold', 'Segoe UI', sans-serif;font-weight:700;font-size:15px;fill:#27ce6d;">app/green</text><rect x="186.286" y="527.931" width="359.822" height="93.867" style="fill:none;stroke:#2781ce;stroke-width:2px;"/><g id="marketing"><path d="M416.001,467.53c0,-2.373 -1.927,-4.3 -4.3,-4.3l-92.9,0c-2.373,0 -4.3,1.927 -4.3,4.3l0,22.1c0,2.373 1.927,4.3 4.3,4.3l92.9,0c2.373,0 4.3,-1.927 4.3,-4.3l0,-22.1Z" style="fill:#fff;"/><path d="M409.401,497.196c-7.3,-12.502 -65,-36.321 -96.7,-25.544c0,-4.73 3.612,-8.622 8,-8.622l88.7,0c4.389,0 8,3.892 8,8.622l0,16.922c-0.053,4.708 -3.632,8.564 -8,8.622Z" style="fill:#b8b8b8;fill-rule:nonzero;"/><path d="M376.301,478.53l11.1,0" style="fill:#f4cd7c;fill-rule:nonzero;stroke:#585858;stroke-width:1px;stroke-linecap:butt;stroke-linejoin:miter;stroke-miterlimit:4;"/><circle cx="399.001" cy="478.33" r="6.1" style="fill:#7c7c7c;"/><path d="M352.501,473.03l0,11.1" style="fill:#f4cd7c;fill-rule:nonzero;stroke:#5e5e5e;stroke-width:1px;stroke-linecap:butt;stroke-linejoin:miter;stroke-miterlimit:4;"/><path d="M345.201,473.03l0,11.1" style="fill:#f4cd7c;fill-rule:nonzero;stroke:#5e5e5e;stroke-width:1px;stroke-linecap:butt;stroke-linejoin:miter;stroke-miterlimit:4;"/><path d="M337.901,473.03l0,11.1" style="fill:#f4cd7c;fill-rule:nonzero;stroke:#5e5e5e;stroke-width:1px;stroke-linecap:butt;stroke-linejoin:miter;stroke-miterlimit:4;"/><path d="M330.601,473.03l0,11.1" style="fill:#f4cd7c;fill-rule:nonzero;stroke:#5e5e5e;stroke-width:1px;stroke-linecap:butt;stroke-linejoin:miter;stroke-miterlimit:4;"/><path d="M417.137,466.952c0,-2 -1.624,-3.623 -3.624,-3.623l-96.959,0c-2,0 -3.623,1.623 -3.623,3.623l0,25.696c0,2 1.623,3.623 3.623,3.623l96.959,0c2,0 3.624,-1.623 3.624,-3.623l0,-25.696Z" style="fill:none;stroke:#4d4d4d;stroke-width:4.13px;"/><path d="M417.137,466.952c0,-2 -1.624,-3.623 -3.624,-3.623l-96.959,0c-2,0 -3.623,1.623 -3.623,3.623l0,25.696c0,2 1.623,3.623 3.623,3.623l96.959,0c2,0 3.624,-1.623 3.624,-3.623l0,-25.696Z" style="fill:none;stroke:#4d4d4d;stroke-width:4.13px;"/></g><g id="marketing1" serif:id="marketing"><path d="M416.001,467.53c0,-2.373 -1.927,-4.3 -4.3,-4.3l-92.9,0c-2.373,0 -4.3,1.927 -4.3,4.3l0,22.1c0,2.373 1.927,4.3 4.3,4.3l92.9,0c2.373,0 4.3,-1.927 4.3,-4.3l0,-22.1Z" style="fill:#fff;"/><path d="M409.401,497.196c-7.3,-12.502 -65,-36.321 -96.7,-25.544c0,-4.73 3.612,-8.622 8,-8.622l88.7,0c4.389,0 8,3.892 8,8.622l0,16.922c-0.053,4.708 -3.632,8.564 -8,8.622Z" style="fill:#b8b8b8;fill-rule:nonzero;"/><path d="M376.301,478.53l11.1,0" style="fill:#f4cd7c;fill-rule:nonzero;stroke:#585858;stroke-width:1px;stroke-linecap:butt;stroke-linejoin:miter;stroke-miterlimit:4;"/><circle cx="399.001" cy="478.33" r="6.1" style="fill:#7c7c7c;"/><path d="M352.501,473.03l0,11.1" style="fill:#f4cd7c;fill-rule:nonzero;stroke:#5e5e5e;stroke-width:1px;stroke-linecap:butt;stroke-linejoin:miter;stroke-miterlimit:4;"/><path d="M345.201,473.03l0,11.1" style="fill:#f4cd7c;fill-rule:nonzero;stroke:#5e5e5e;stroke-width:1px;stroke-linecap:butt;stroke-linejoin:miter;stroke-miterlimit:4;"/><path d="M337.901,473.03l0,11.1" style="fill:#f4cd7c;fill-rule:nonzero;stroke:#5e5e5e;stroke-width:1px;stroke-linecap:butt;stroke-linejoin:miter;stroke-miterlimit:4;"/><path d="M330.601,473.03l0,11.1" style="fill:#f4cd7c;fill-rule:nonzero;stroke:#5e5e5e;stroke-width:1px;stroke-linecap:butt;stroke-linejoin:miter;stroke-miterlimit:4;"/><path d="M417.137,466.952c0,-2 -1.624,-3.623 -3.624,-3.623l-96.959,0c-2,0 -3.623,1.623 -3.623,3.623l0,25.696c0,2 1.623,3.623 3.623,3.623l96.959,0c2,0 3.624,-1.623 3.624,-3.623l0,-25.696Z" style="fill:none;stroke:#4d4d4d;stroke-width:4.13px;"/></g><g id="marketing2" serif:id="marketing"><path d="M416.001,467.53c0,-2.373 -1.927,-4.3 -4.3,-4.3l-92.9,0c-2.373,0 -4.3,1.927 -4.3,4.3l0,22.1c0,2.373 1.927,4.3 4.3,4.3l92.9,0c2.373,0 4.3,-1.927 4.3,-4.3l0,-22.1Z" style="fill:#fff;"/><path d="M409.401,497.196c-7.3,-12.502 -65,-36.321 -96.7,-25.544c0,-4.73 3.612,-8.622 8,-8.622l88.7,0c4.389,0 8,3.892 8,8.622l0,16.922c-0.053,4.708 -3.632,8.564 -8,8.622Z" style="fill:#b8b8b8;fill-rule:nonzero;"/><path d="M376.301,478.53l11.1,0" style="fill:#f4cd7c;fill-rule:nonzero;stroke:#585858;stroke-width:1px;stroke-linecap:butt;stroke-linejoin:miter;stroke-miterlimit:4;"/><circle cx="399.001" cy="478.33" r="6.1" style="fill:#7c7c7c;"/><path d="M352.501,473.03l0,11.1" style="fill:#f4cd7c;fill-rule:nonzero;stroke:#5e5e5e;stroke-width:1px;stroke-linecap:butt;stroke-linejoin:miter;stroke-miterlimit:4;"/><path d="M345.201,473.03l0,11.1" style="fill:#f4cd7c;fill-rule:nonzero;stroke:#5e5e5e;stroke-width:1px;stroke-linecap:butt;stroke-linejoin:miter;stroke-miterlimit:4;"/><path d="M337.901,473.03l0,11.1" style="fill:#f4cd7c;fill-rule:nonzero;stroke:#5e5e5e;stroke-width:1px;stroke-linecap:butt;stroke-linejoin:miter;stroke-miterlimit:4;"/><path d="M330.601,473.03l0,11.1" style="fill:#f4cd7c;fill-rule:nonzero;stroke:#5e5e5e;stroke-width:1px;stroke-linecap:butt;stroke-linejoin:miter;stroke-miterlimit:4;"/><path d="M417.137,466.952c0,-2 -1.624,-3.623 -3.624,-3.623l-96.959,0c-2,0 -3.623,1.623 -3.623,3.623l0,25.696c0,2 1.623,3.623 3.623,3.623l96.959,0c2,0 3.624,-1.623 3.624,-3.623l0,-25.696Z" style="fill:none;stroke:#4d4d4d;stroke-width:4.13px;"/></g><g id="LB"><path d="M511.443,269.39c0,-6.023 -4.89,-10.913 -10.914,-10.913l-272.5,0c-6.023,0 -10.913,4.89 -10.913,10.913l0,77.388c0,6.023 4.89,10.913 10.913,10.913l272.5,0c6.024,0 10.914,-4.89 10.914,-10.913l0,-77.388Z" style="fill:#fff;stroke:#4d4d4d;stroke-width:4.13px;"/></g><text x="20.733px" y="183.791px" style="font-family:'SegoeUI', 'Segoe UI', sans-serif;font-size:24px;fill:#2781ce;">Public Inte<tspan x="131.804px " y="183.791px ">r</tspan>net</text><g transform="matrix(1,0,0,1,-70.5925,-510.195)"><text x="243.32px" y="553.428px" style="font-family:'SegoeUI', 'Segoe UI', sans-serif;font-size:24px;fill:#2781ce;">Loa<tspan x="280.89px " y="553.428px ">d</tspan> Balancing, HT<tspan x="445.644px 458.218px " y="553.428px 553.428px ">TP</tspan>/2 and dynamic</text><text x="283.82px" y="589.428px" style="font-family:'SegoeUI', 'Segoe UI', sans-serif;font-size:24px;fill:#2781ce;">re<tspan x="304.714px " y="589.428px ">c</tspan>onﬁguration with HAPro<tspan x="573.003px 584.019px " y="589.428px 589.428px ">xy</tspan></text></g><text x="13.948px" y="469.746px" style="font-family:'SegoeUI', 'Segoe UI', sans-serif;font-size:24px;fill:#2781ce;">Priva<tspan x="65.253px 73.386px 85.937px " y="469.746px 469.746px 469.746px ">te </tspan>Network</text><text x="338.132px" y="661.297px" style="font-family:'SegoeUI-Bold', 'Segoe UI', sans-serif;font-weight:700;font-size:10px;fill:#2781ce;">Source: https://cer<tspan x="425.979px 429.871px " y="661.297px 661.297px ">ts</tspan>imple.com/blog/hapro<tspan x="541.179px 546.702px " y="661.297px 661.297px ">xy</tspan>-http2-dynamic-load-balancing-ssl</text><text x="13.948px" y="469.746px" style="font-family:'SegoeUI', 'Segoe UI', sans-serif;font-size:24px;fill:#2781ce;">Priva<tspan x="65.253px 73.386px 85.937px " y="469.746px 469.746px 469.746px ">te </tspan>Network</text><text x="399.4px" y="202.521px" style="font-family:'SegoeUI-Bold', 'Segoe UI', sans-serif;font-weight:700;font-size:15px;fill:#2781ce;">H2,HT<tspan x="444.166px 452.955px " y="202.521px 202.521px ">TP</tspan>S</text><text x="410.304px" y="394.521px" style="font-family:'SegoeUI-Bold', 'Segoe UI', sans-serif;font-weight:700;font-size:15px;fill:#2781ce;">HT<tspan x="430.885px 439.674px " y="394.521px 394.521px ">TP</tspan> 1.1</text><text x="313.947px" y="449.909px" style="font-family:'SegoeUI-Bold', 'Segoe UI', sans-serif;font-weight:700;font-size:15px;fill:#2781ce;">&apos;blog&apos; b<tspan x="368.051px 376.122px 383.322px 391.496px 399.611px " y="449.909px 449.909px 449.909px 449.909px 449.909px ">acken</tspan>d</text><path id="HTTP" d="M404.268,385.79l0,4.899c0,0.331 -0.114,0.618 -0.343,0.861c-0.228,0.242 -0.498,0.364 -0.811,0.364l-1.154,0c-0.312,0 -0.583,-0.122 -0.811,-0.364c-0.228,-0.243 -0.343,-0.53 -0.343,-0.861l0,-4.899c0,-1.353 -0.45,-2.508 -1.352,-3.464c-0.901,-0.957 -1.989,-1.436 -3.263,-1.436c-1.274,0 -2.362,0.479 -3.263,1.436c-0.902,0.956 -1.352,2.111 -1.352,3.464l0,3.674l1.73,0c0.481,0 0.89,0.179 1.226,0.536c0.337,0.357 0.505,0.791 0.505,1.301l0,11.023c0,0.511 -0.168,0.944 -0.505,1.302c-0.336,0.357 -0.745,0.536 -1.226,0.536l-17.307,0c-0.481,0 -0.89,-0.179 -1.226,-0.536c-0.337,-0.358 -0.505,-0.791 -0.505,-1.302l0,-11.023c0,-0.51 0.168,-0.944 0.505,-1.301c0.336,-0.357 0.745,-0.536 1.226,-0.536l12.115,0l0,-3.674c0,-2.361 0.79,-4.38 2.371,-6.058c1.58,-1.677 3.482,-2.516 5.706,-2.516c2.224,0 4.126,0.839 5.706,2.516c1.581,1.678 2.371,3.697 2.371,6.058Z" style="fill:#2781ce;"/><g id="LB1" serif:id="LB"><g><path d="M324.541,320.229l0,-9.782l-11.887,0l0,9.782l-4.574,0l0,-24.205l4.574,0l0,10.189l11.887,0l0,-10.189l4.529,0l0,24.205l-4.529,0Z" style="fill:#139bd7;fill-rule:nonzero;"/><path d="M352.143,315.632l-12.658,0l-2.083,4.551l-4.936,0l10.846,-24.182l4.981,0l10.846,24.205l-4.981,0l-2.015,-4.574Zm-6.34,-14.559l-4.484,10.302l8.99,0l-4.506,-10.302Z" style="fill:#006da8;fill-rule:nonzero;"/><path d="M374.174,313.073l-6.861,0l0,7.11l-4.551,0l0,-24.182l11.412,-0.045c11.819,0 11.842,17.117 0,17.117Zm-6.838,-4.188l6.838,0c5.841,0 5.796,-8.582 0,-8.582l-6.861,0l0.023,8.582Z" style="fill:#083d5f;fill-rule:nonzero;"/><path d="M408.137,320.183l-5.411,0l-7.065,-8.083l-4.37,0l0,8.083l-4.573,0l0,-24.227l11.502,0.045c5.706,0.045 8.717,3.827 8.717,8.016c0,3.328 -1.517,6.679 -6.113,7.607l7.336,8.265l-0.023,0.294Zm-16.846,-19.925l0,7.744l6.952,0c2.898,0 4.143,-1.925 4.143,-3.872c0,-1.948 -1.268,-3.872 -4.143,-3.872l-6.952,0Z" style="fill:#083d5f;fill-rule:nonzero;"/><path d="M434.357,308.228c-0.068,6.249 -3.917,12.521 -12.408,12.521c-8.491,0 -12.453,-6.113 -12.453,-12.476c0,-6.362 4.075,-12.747 12.453,-12.747c8.378,0 12.476,6.385 12.408,12.702Zm-20.355,0.113c0.113,3.985 2.241,8.219 7.947,8.219c5.706,0 7.857,-4.279 7.925,-8.264c0.068,-3.985 -2.219,-8.649 -7.925,-8.649c-5.706,0 -8.061,4.619 -7.947,8.694Z" style="fill:#083d5f;fill-rule:nonzero;"/><path d="M451.43,296.001l5.004,0l0,0.204l-8.197,11.751l8.423,12.091l0,0.136l-5.095,0l-6.181,-9.079l-6.204,9.079l-5.095,0l0,-0.136l8.401,-12.091l-8.151,-11.751l0,-0.204l5.004,0l6.045,9.012l6.046,-9.012Z" style="fill:#083d5f;fill-rule:nonzero;"/><path d="M470.359,305.986l6.43,-9.985l5.502,0l0,0.204l-9.645,13.993l0,9.985l-4.574,0l0,-9.985l-9.306,-13.993l0,-0.204l5.434,0l6.159,9.985Z" style="fill:#083d5f;fill-rule:nonzero;"/><g><path d="M273.211,300.869l-5.819,-6.589" style="fill:none;stroke:#05486d;stroke-width:0.23px;stroke-linecap:butt;stroke-linejoin:miter;stroke-miterlimit:10;"/><path d="M254.848,295.82l4.574,6.612" style="fill:none;stroke:#05486d;stroke-width:0.12px;stroke-linecap:butt;stroke-linejoin:miter;stroke-miterlimit:10;"/><path d="M273.211,300.869l5.797,-6.611" style="fill:none;stroke:#05486d;stroke-width:0.23px;stroke-linecap:butt;stroke-linejoin:miter;stroke-miterlimit:10;"/><path d="M280.185,308.228l6.861,-5.796" style="fill:none;stroke:#05486d;stroke-width:0.23px;stroke-linecap:butt;stroke-linejoin:miter;stroke-miterlimit:10;"/><path d="M280.185,308.228l6.861,6.023" style="fill:none;stroke:#05486d;stroke-width:0.23px;stroke-linecap:butt;stroke-linejoin:miter;stroke-miterlimit:10;"/><path d="M279.03,321.813l-5.819,-6.453" style="fill:none;stroke:#05486d;stroke-width:0.23px;stroke-linecap:butt;stroke-linejoin:miter;stroke-miterlimit:10;"/><path d="M267.415,321.813l5.796,-6.453" style="fill:none;stroke:#05486d;stroke-width:0.23px;stroke-linecap:butt;stroke-linejoin:miter;stroke-miterlimit:10;"/><path d="M259.422,313.979l6.611,-5.774" style="fill:none;stroke:#05486d;stroke-width:0.23px;stroke-linecap:butt;stroke-linejoin:miter;stroke-miterlimit:10;"/><path d="M259.422,302.432l6.611,5.773" style="fill:none;stroke:#05486d;stroke-width:0.23px;stroke-linecap:butt;stroke-linejoin:miter;stroke-miterlimit:10;"/><path d="M273.211,300.869l-13.789,1.563" style="fill:none;stroke:#05486d;stroke-width:0.23px;stroke-linecap:butt;stroke-linejoin:miter;stroke-miterlimit:10;"/><path d="M273.211,300.869l13.835,1.563" style="fill:none;stroke:#05486d;stroke-width:0.23px;stroke-linecap:butt;stroke-linejoin:miter;stroke-miterlimit:10;"/><path d="M280.185,308.228l-1.177,-13.97" style="fill:none;stroke:#05486d;stroke-width:0.23px;stroke-linecap:butt;stroke-linejoin:miter;stroke-miterlimit:10;"/><path d="M280.185,308.228l-1.155,13.585" style="fill:none;stroke:#05486d;stroke-width:0.23px;stroke-linecap:butt;stroke-linejoin:miter;stroke-miterlimit:10;"/><path d="M287.046,314.251l-13.835,1.109" style="fill:none;stroke:#05486d;stroke-width:0.23px;stroke-linecap:butt;stroke-linejoin:miter;stroke-miterlimit:10;"/><path d="M259.422,313.979l13.789,1.381" style="fill:none;stroke:#05486d;stroke-width:0.23px;stroke-linecap:butt;stroke-linejoin:miter;stroke-miterlimit:10;"/><path d="M267.415,321.813l-1.382,-13.608" style="fill:none;stroke:#05486d;stroke-width:0.23px;stroke-linecap:butt;stroke-linejoin:miter;stroke-miterlimit:10;"/><path d="M267.392,294.28l-1.359,13.925" style="fill:none;stroke:#05486d;stroke-width:0.23px;stroke-linecap:butt;stroke-linejoin:miter;stroke-miterlimit:10;"/><path d="M253.082,304.22l6.34,-1.788" style="fill:none;stroke:#05486d;stroke-width:0.12px;stroke-linecap:butt;stroke-linejoin:miter;stroke-miterlimit:10;"/><path d="M260.758,289.571l6.634,4.709" style="fill:none;stroke:#05486d;stroke-width:0.12px;stroke-linecap:butt;stroke-linejoin:miter;stroke-miterlimit:10;"/><path d="M268.909,286.582l-1.517,7.698" style="fill:none;stroke:#05486d;stroke-width:0.12px;stroke-linecap:butt;stroke-linejoin:miter;stroke-miterlimit:10;"/><path d="M268.909,286.582l10.099,7.676" style="fill:none;stroke:#05486d;stroke-width:0.12px;stroke-linecap:butt;stroke-linejoin:miter;stroke-miterlimit:10;"/><path d="M277.49,286.582l1.518,7.676" style="fill:none;stroke:#05486d;stroke-width:0.12px;stroke-linecap:butt;stroke-linejoin:miter;stroke-miterlimit:10;"/><path d="M285.642,289.571l-6.634,4.687" style="fill:none;stroke:#05486d;stroke-width:0.12px;stroke-linecap:butt;stroke-linejoin:miter;stroke-miterlimit:10;"/><path d="M291.574,295.82l-12.566,-1.562" style="fill:none;stroke:#05486d;stroke-width:0.12px;stroke-linecap:butt;stroke-linejoin:miter;stroke-miterlimit:10;"/><path d="M287.046,302.432l4.528,-6.612" style="fill:none;stroke:#05486d;stroke-width:0.12px;stroke-linecap:butt;stroke-linejoin:miter;stroke-miterlimit:10;"/><path d="M287.046,302.432l6.453,1.788" style="fill:none;stroke:#05486d;stroke-width:0.12px;stroke-linecap:butt;stroke-linejoin:miter;stroke-miterlimit:10;"/><path d="M287.046,302.432l6.294,9.645" style="fill:none;stroke:#05486d;stroke-width:0.12px;stroke-linecap:butt;stroke-linejoin:miter;stroke-miterlimit:10;"/><path d="M277.49,286.582l-10.098,7.698" style="fill:none;stroke:#05486d;stroke-width:0.12px;stroke-linecap:butt;stroke-linejoin:miter;stroke-miterlimit:10;"/><path d="M287.046,302.432l-1.404,-12.861" style="fill:none;stroke:#05486d;stroke-width:0.12px;stroke-linecap:butt;stroke-linejoin:miter;stroke-miterlimit:10;"/><path d="M287.046,314.251l6.294,-2.174" style="fill:none;stroke:#05486d;stroke-width:0.12px;stroke-linecap:butt;stroke-linejoin:miter;stroke-miterlimit:10;"/><path d="M287.046,314.251l6.453,-10.031" style="fill:none;stroke:#05486d;stroke-width:0.12px;stroke-linecap:butt;stroke-linejoin:miter;stroke-miterlimit:10;"/><path d="M287.046,314.251l4.528,6.136" style="fill:none;stroke:#05486d;stroke-width:0.12px;stroke-linecap:butt;stroke-linejoin:miter;stroke-miterlimit:10;"/><path d="M287.046,314.251l-1.382,12.385" style="fill:none;stroke:#05486d;stroke-width:0.12px;stroke-linecap:butt;stroke-linejoin:miter;stroke-miterlimit:10;"/><path d="M279.03,321.813l6.634,4.823" style="fill:none;stroke:#05486d;stroke-width:0.12px;stroke-linecap:butt;stroke-linejoin:miter;stroke-miterlimit:10;"/><path d="M279.03,321.813l12.544,-1.426" style="fill:none;stroke:#05486d;stroke-width:0.12px;stroke-linecap:butt;stroke-linejoin:miter;stroke-miterlimit:10;"/><path d="M279.03,321.813l-1.517,7.812" style="fill:none;stroke:#05486d;stroke-width:0.12px;stroke-linecap:butt;stroke-linejoin:miter;stroke-miterlimit:10;"/><path d="M279.03,321.813l-10.098,7.812" style="fill:none;stroke:#05486d;stroke-width:0.12px;stroke-linecap:butt;stroke-linejoin:miter;stroke-miterlimit:10;"/><path d="M267.415,321.813l1.517,7.812" style="fill:none;stroke:#05486d;stroke-width:0.12px;stroke-linecap:butt;stroke-linejoin:miter;stroke-miterlimit:10;"/><path d="M267.415,321.813l10.098,7.812" style="fill:none;stroke:#05486d;stroke-width:0.12px;stroke-linecap:butt;stroke-linejoin:miter;stroke-miterlimit:10;"/><path d="M267.415,321.813l-6.635,4.823" style="fill:none;stroke:#05486d;stroke-width:0.12px;stroke-linecap:butt;stroke-linejoin:miter;stroke-miterlimit:10;"/><path d="M267.415,321.813l-12.567,-1.381" style="fill:none;stroke:#05486d;stroke-width:0.12px;stroke-linecap:butt;stroke-linejoin:miter;stroke-miterlimit:10;"/><path d="M259.422,313.979l-4.574,6.453" style="fill:none;stroke:#05486d;stroke-width:0.12px;stroke-linecap:butt;stroke-linejoin:miter;stroke-miterlimit:10;"/><path d="M259.422,313.979l1.358,12.657" style="fill:none;stroke:#05486d;stroke-width:0.12px;stroke-linecap:butt;stroke-linejoin:miter;stroke-miterlimit:10;"/><path d="M259.422,313.979l-6.363,-1.992" style="fill:none;stroke:#05486d;stroke-width:0.12px;stroke-linecap:butt;stroke-linejoin:miter;stroke-miterlimit:10;"/><path d="M259.422,302.432l-6.363,9.555" style="fill:none;stroke:#05486d;stroke-width:0.12px;stroke-linecap:butt;stroke-linejoin:miter;stroke-miterlimit:10;"/><path d="M259.422,313.979l-6.34,-9.759" style="fill:none;stroke:#05486d;stroke-width:0.12px;stroke-linecap:butt;stroke-linejoin:miter;stroke-miterlimit:10;"/><path d="M260.758,289.571l-1.336,12.861" style="fill:none;stroke:#05486d;stroke-width:0.12px;stroke-linecap:butt;stroke-linejoin:miter;stroke-miterlimit:10;"/><path d="M254.848,295.82l12.544,-1.54" style="fill:none;stroke:#05486d;stroke-width:0.12px;stroke-linecap:butt;stroke-linejoin:miter;stroke-miterlimit:10;"/><path d="M260.758,289.571l-4.868,-2.333" style="fill:none;stroke:#083d5f;stroke-width:0.09px;stroke-linecap:butt;stroke-linejoin:miter;stroke-miterlimit:10;"/><path d="M260.758,289.571l-0.363,-5.344" style="fill:none;stroke:#083d5f;stroke-width:0.09px;stroke-linecap:butt;stroke-linejoin:miter;stroke-miterlimit:10;"/><path d="M268.909,286.582l-8.514,-2.355" style="fill:none;stroke:#083d5f;stroke-width:0.09px;stroke-linecap:butt;stroke-linejoin:miter;stroke-miterlimit:10;"/><path d="M268.909,286.582l-3.623,-4.529" style="fill:none;stroke:#083d5f;stroke-width:0.09px;stroke-linecap:butt;stroke-linejoin:miter;stroke-miterlimit:10;"/><path d="M268.909,286.582l1.54,-5.366" style="fill:none;stroke:#083d5f;stroke-width:0.09px;stroke-linecap:butt;stroke-linejoin:miter;stroke-miterlimit:10;"/><path d="M260.758,289.571l4.528,-7.518" style="fill:none;stroke:#083d5f;stroke-width:0.09px;stroke-linecap:butt;stroke-linejoin:miter;stroke-miterlimit:10;"/><path d="M277.49,286.582l-7.041,-5.366" style="fill:none;stroke:#083d5f;stroke-width:0.09px;stroke-linecap:butt;stroke-linejoin:miter;stroke-miterlimit:10;"/><path d="M277.49,286.582l-1.584,-5.57" style="fill:none;stroke:#083d5f;stroke-width:0.09px;stroke-linecap:butt;stroke-linejoin:miter;stroke-miterlimit:10;"/><path d="M268.909,286.582l6.997,-5.57" style="fill:none;stroke:#083d5f;stroke-width:0.09px;stroke-linecap:butt;stroke-linejoin:miter;stroke-miterlimit:10;"/><path d="M277.49,286.582l3.669,-4.529" style="fill:none;stroke:#083d5f;stroke-width:0.09px;stroke-linecap:butt;stroke-linejoin:miter;stroke-miterlimit:10;"/><path d="M285.642,289.571l-4.483,-7.518" style="fill:none;stroke:#083d5f;stroke-width:0.09px;stroke-linecap:butt;stroke-linejoin:miter;stroke-miterlimit:10;"/><path d="M285.642,289.571l0.475,-5.344" style="fill:none;stroke:#083d5f;stroke-width:0.09px;stroke-linecap:butt;stroke-linejoin:miter;stroke-miterlimit:10;"/><path d="M277.49,286.582l8.627,-2.355" style="fill:none;stroke:#083d5f;stroke-width:0.09px;stroke-linecap:butt;stroke-linejoin:miter;stroke-miterlimit:10;"/><path d="M285.642,289.571l4.981,-2.582" style="fill:none;stroke:#083d5f;stroke-width:0.09px;stroke-linecap:butt;stroke-linejoin:miter;stroke-miterlimit:10;"/><path d="M285.642,289.571l8.694,1.313" style="fill:none;stroke:#083d5f;stroke-width:0.09px;stroke-linecap:butt;stroke-linejoin:miter;stroke-miterlimit:10;"/><path d="M291.574,295.82l2.762,-4.936" style="fill:none;stroke:#083d5f;stroke-width:0.09px;stroke-linecap:butt;stroke-linejoin:miter;stroke-miterlimit:10;"/><path d="M291.574,295.82l-0.951,-8.831" style="fill:none;stroke:#083d5f;stroke-width:0.09px;stroke-linecap:butt;stroke-linejoin:miter;stroke-miterlimit:10;"/><path d="M291.574,295.82l5.706,-0.476" style="fill:none;stroke:#083d5f;stroke-width:0.09px;stroke-linecap:butt;stroke-linejoin:miter;stroke-miterlimit:10;"/><path d="M291.574,295.82l7.834,4.438" style="fill:none;stroke:#083d5f;stroke-width:0.09px;stroke-linecap:butt;stroke-linejoin:miter;stroke-miterlimit:10;"/><path d="M293.499,304.22l3.781,-8.876" style="fill:none;stroke:#083d5f;stroke-width:0.09px;stroke-linecap:butt;stroke-linejoin:miter;stroke-miterlimit:10;"/><path d="M293.499,304.22l5.909,-3.962" style="fill:none;stroke:#083d5f;stroke-width:0.09px;stroke-linecap:butt;stroke-linejoin:miter;stroke-miterlimit:10;"/><path d="M293.499,304.22l6.589,1.336" style="fill:none;stroke:#083d5f;stroke-width:0.09px;stroke-linecap:butt;stroke-linejoin:miter;stroke-miterlimit:10;"/><path d="M293.34,312.077l6.748,-6.521" style="fill:none;stroke:#083d5f;stroke-width:0.09px;stroke-linecap:butt;stroke-linejoin:miter;stroke-miterlimit:10;"/><path d="M293.34,312.077l6.906,-1.29" style="fill:none;stroke:#083d5f;stroke-width:0.09px;stroke-linecap:butt;stroke-linejoin:miter;stroke-miterlimit:10;"/><path d="M293.499,304.22l6.747,6.567" style="fill:none;stroke:#083d5f;stroke-width:0.09px;stroke-linecap:butt;stroke-linejoin:miter;stroke-miterlimit:10;"/><path d="M293.34,312.077l5.91,3.94" style="fill:none;stroke:#083d5f;stroke-width:0.09px;stroke-linecap:butt;stroke-linejoin:miter;stroke-miterlimit:10;"/><path d="M291.574,320.387l7.676,-4.37" style="fill:none;stroke:#083d5f;stroke-width:0.09px;stroke-linecap:butt;stroke-linejoin:miter;stroke-miterlimit:10;"/><path d="M291.574,320.387l5.661,0.566" style="fill:none;stroke:#083d5f;stroke-width:0.09px;stroke-linecap:butt;stroke-linejoin:miter;stroke-miterlimit:10;"/><path d="M293.34,312.077l3.895,8.876" style="fill:none;stroke:#083d5f;stroke-width:0.09px;stroke-linecap:butt;stroke-linejoin:miter;stroke-miterlimit:10;"/><path d="M291.574,320.387l2.695,5.004" style="fill:none;stroke:#083d5f;stroke-width:0.09px;stroke-linecap:butt;stroke-linejoin:miter;stroke-miterlimit:10;"/><path d="M291.574,320.387l-1.019,8.74" style="fill:none;stroke:#083d5f;stroke-width:0.09px;stroke-linecap:butt;stroke-linejoin:miter;stroke-miterlimit:10;"/><path d="M290.555,329.127l-4.891,-2.491" style="fill:none;stroke:#083d5f;stroke-width:0.09px;stroke-linecap:butt;stroke-linejoin:miter;stroke-miterlimit:10;"/><path d="M285.664,326.636l0.385,5.48" style="fill:none;stroke:#083d5f;stroke-width:0.09px;stroke-linecap:butt;stroke-linejoin:miter;stroke-miterlimit:10;"/><path d="M285.664,326.636l8.605,-1.245" style="fill:none;stroke:#083d5f;stroke-width:0.09px;stroke-linecap:butt;stroke-linejoin:miter;stroke-miterlimit:10;"/><path d="M285.664,326.636l-4.505,7.631" style="fill:none;stroke:#083d5f;stroke-width:0.09px;stroke-linecap:butt;stroke-linejoin:miter;stroke-miterlimit:10;"/><path d="M277.513,329.625l3.646,4.642" style="fill:none;stroke:#083d5f;stroke-width:0.09px;stroke-linecap:butt;stroke-linejoin:miter;stroke-miterlimit:10;"/><path d="M277.513,329.625l8.536,2.491" style="fill:none;stroke:#083d5f;stroke-width:0.09px;stroke-linecap:butt;stroke-linejoin:miter;stroke-miterlimit:10;"/><path d="M277.513,329.625l-1.607,5.683" style="fill:none;stroke:#083d5f;stroke-width:0.09px;stroke-linecap:butt;stroke-linejoin:miter;stroke-miterlimit:10;"/><path d="M277.513,329.625l-7.042,5.683" style="fill:none;stroke:#083d5f;stroke-width:0.09px;stroke-linecap:butt;stroke-linejoin:miter;stroke-miterlimit:10;"/><path d="M268.932,329.625l1.539,5.683" style="fill:none;stroke:#083d5f;stroke-width:0.09px;stroke-linecap:butt;stroke-linejoin:miter;stroke-miterlimit:10;"/><path d="M268.932,329.625l6.974,5.683" style="fill:none;stroke:#083d5f;stroke-width:0.09px;stroke-linecap:butt;stroke-linejoin:miter;stroke-miterlimit:10;"/><path d="M268.932,329.625l-3.623,4.642" style="fill:none;stroke:#083d5f;stroke-width:0.09px;stroke-linecap:butt;stroke-linejoin:miter;stroke-miterlimit:10;"/><path d="M260.78,326.636l4.529,7.631" style="fill:none;stroke:#083d5f;stroke-width:0.09px;stroke-linecap:butt;stroke-linejoin:miter;stroke-miterlimit:10;"/><path d="M268.932,329.625l-8.582,2.627" style="fill:none;stroke:#083d5f;stroke-width:0.09px;stroke-linecap:butt;stroke-linejoin:miter;stroke-miterlimit:10;"/><path d="M260.78,326.636l-0.43,5.616" style="fill:none;stroke:#083d5f;stroke-width:0.09px;stroke-linecap:butt;stroke-linejoin:miter;stroke-miterlimit:10;"/><path d="M260.78,326.636l-4.958,2.695" style="fill:none;stroke:#083d5f;stroke-width:0.09px;stroke-linecap:butt;stroke-linejoin:miter;stroke-miterlimit:10;"/><path d="M254.848,320.432l0.974,8.899" style="fill:none;stroke:#083d5f;stroke-width:0.09px;stroke-linecap:butt;stroke-linejoin:miter;stroke-miterlimit:10;"/><path d="M260.78,326.636l-8.672,-1.177" style="fill:none;stroke:#083d5f;stroke-width:0.09px;stroke-linecap:butt;stroke-linejoin:miter;stroke-miterlimit:10;"/><path d="M254.848,320.432l-2.74,5.027" style="fill:none;stroke:#083d5f;stroke-width:0.09px;stroke-linecap:butt;stroke-linejoin:miter;stroke-miterlimit:10;"/><path d="M254.848,320.432l-5.661,0.544" style="fill:none;stroke:#083d5f;stroke-width:0.09px;stroke-linecap:butt;stroke-linejoin:miter;stroke-miterlimit:10;"/><path d="M254.848,320.432l-7.812,-4.37" style="fill:none;stroke:#083d5f;stroke-width:0.09px;stroke-linecap:butt;stroke-linejoin:miter;stroke-miterlimit:10;"/><path d="M253.059,311.987l-6.023,4.075" style="fill:none;stroke:#083d5f;stroke-width:0.09px;stroke-linecap:butt;stroke-linejoin:miter;stroke-miterlimit:10;"/><path d="M253.059,311.987l-6.838,-1.2" style="fill:none;stroke:#083d5f;stroke-width:0.09px;stroke-linecap:butt;stroke-linejoin:miter;stroke-miterlimit:10;"/><path d="M253.059,311.987l-3.872,8.989" style="fill:none;stroke:#083d5f;stroke-width:0.09px;stroke-linecap:butt;stroke-linejoin:miter;stroke-miterlimit:10;"/><path d="M253.082,304.22l-6.861,6.567" style="fill:none;stroke:#083d5f;stroke-width:0.09px;stroke-linecap:butt;stroke-linejoin:miter;stroke-miterlimit:10;"/><path d="M253.059,311.987l-6.86,-6.431" style="fill:none;stroke:#083d5f;stroke-width:0.09px;stroke-linecap:butt;stroke-linejoin:miter;stroke-miterlimit:10;"/><path d="M253.082,304.22l-5.864,-3.894" style="fill:none;stroke:#083d5f;stroke-width:0.09px;stroke-linecap:butt;stroke-linejoin:miter;stroke-miterlimit:10;"/><path d="M253.082,304.22l-6.883,1.336" style="fill:none;stroke:#083d5f;stroke-width:0.09px;stroke-linecap:butt;stroke-linejoin:miter;stroke-miterlimit:10;"/><path d="M253.082,304.22l-3.872,-8.83" style="fill:none;stroke:#083d5f;stroke-width:0.09px;stroke-linecap:butt;stroke-linejoin:miter;stroke-miterlimit:10;"/><path d="M254.848,295.82l-5.638,-0.43" style="fill:none;stroke:#083d5f;stroke-width:0.09px;stroke-linecap:butt;stroke-linejoin:miter;stroke-miterlimit:10;"/><path d="M254.848,295.82l-7.63,4.506" style="fill:none;stroke:#083d5f;stroke-width:0.09px;stroke-linecap:butt;stroke-linejoin:miter;stroke-miterlimit:10;"/><path d="M254.848,295.82l-2.672,-4.71" style="fill:none;stroke:#083d5f;stroke-width:0.09px;stroke-linecap:butt;stroke-linejoin:miter;stroke-miterlimit:10;"/><path d="M254.848,295.82l1.042,-8.582" style="fill:none;stroke:#083d5f;stroke-width:0.09px;stroke-linecap:butt;stroke-linejoin:miter;stroke-miterlimit:10;"/><path d="M260.758,289.571l-8.582,1.539" style="fill:none;stroke:#083d5f;stroke-width:0.09px;stroke-linecap:butt;stroke-linejoin:miter;stroke-miterlimit:10;"/><path d="M262.722,304.853l-0.047,6.657l6.657,0.047l0.046,-6.657l-6.656,-0.047Z" style="fill:#006da8;"/><path d="M269.91,297.516l-0.047,6.657l6.657,0.047l0.047,-6.657l-6.657,-0.047Z" style="fill:#006da8;"/><path d="M269.922,312.086l-0.047,6.657l6.657,0.046l0.046,-6.656l-6.656,-0.047Z" style="fill:#006da8;"/><path d="M277.155,304.841l-0.047,6.657l6.657,0.046l0.047,-6.657l-6.657,-0.046Z" style="fill:#006da8;"/><path d="M276.709,291.921l-0.032,4.641l4.642,0.033l0.032,-4.642l-4.642,-0.032Z" style="fill:#2f77bc;"/><path d="M265.149,291.908l-0.032,4.642l4.642,0.032l0.032,-4.642l-4.642,-0.032Z" style="fill:#2f77bc;"/><path d="M257.134,300.105l-0.032,4.642l4.641,0.032l0.033,-4.641l-4.642,-0.033Z" style="fill:#2f77bc;"/><path d="M257.163,311.764l-0.047,4.641l4.642,0.046l0.046,-4.641l-4.641,-0.046Z" style="fill:#2f77bc;"/><path d="M284.779,311.655l-0.032,4.641l4.641,0.033l0.033,-4.642l-4.642,-0.032Z" style="fill:#2f77bc;"/><path d="M284.907,300.166l-0.046,4.641l4.641,0.046l0.047,-4.641l-4.642,-0.046Z" style="fill:#2f77bc;"/><path d="M253.322,294.287l-0.021,3.034l3.034,0.022l0.021,-3.035l-3.034,-0.021Z" style="fill:#139bd7;"/><path d="M259.271,288.059l-0.021,3.034l3.034,0.021l0.021,-3.034l-3.034,-0.021Z" style="fill:#139bd7;"/><path d="M267.41,285.083l-0.022,3.034l3.034,0.021l0.022,-3.034l-3.034,-0.021Z" style="fill:#139bd7;"/><path d="M251.569,302.704l-0.021,3.034l3.011,0.021l0.021,-3.034l-3.011,-0.021Z" style="fill:#139bd7;"/><path d="M293.082,294.27l-3.034,0.021l0.021,3.034l3.034,-0.021l-0.021,-3.034Z" style="fill:#139bd7;"/><path d="M287.149,288.043l-3.034,0.021l0.021,3.035l3.034,-0.022l-0.021,-3.034Z" style="fill:#139bd7;"/><path d="M278.998,285.054l-3.034,0.022l0.021,3.034l3.034,-0.022l-0.021,-3.034Z" style="fill:#139bd7;"/><path d="M294.848,302.671l-3.034,0.021l0.021,3.034l3.034,-0.021l-0.021,-3.034Z" style="fill:#139bd7;"/><path d="M265.115,319.611l-0.033,4.641l4.642,0.033l0.032,-4.642l-4.641,-0.032Z" style="fill:#2f77bc;"/><path d="M276.675,319.601l-0.033,4.642l4.642,0.032l0.032,-4.642l-4.641,-0.032Z" style="fill:#2f77bc;"/><path d="M290.064,318.897l-0.021,3.034l3.034,0.021l0.021,-3.034l-3.034,-0.021Z" style="fill:#139bd7;"/><path d="M284.16,325.103l-0.021,3.034l3.034,0.021l0.021,-3.034l-3.034,-0.021Z" style="fill:#139bd7;"/><path d="M275.999,328.078l-0.021,3.034l3.034,0.022l0.022,-3.034l-3.035,-0.022Z" style="fill:#139bd7;"/><path d="M291.872,310.444l-0.021,3.034l3.034,0.021l0.021,-3.034l-3.034,-0.021Z" style="fill:#139bd7;"/><path d="M256.355,318.86l-3.034,0.022l0.021,3.034l3.034,-0.022l-0.021,-3.034Z" style="fill:#139bd7;"/><path d="M262.287,325.11l-3.034,0.021l0.021,3.034l3.034,-0.021l-0.021,-3.034Z" style="fill:#139bd7;"/><path d="M270.439,328.099l-3.034,0.021l0.021,3.034l3.034,-0.021l-0.021,-3.034Z" style="fill:#139bd7;"/><path d="M254.589,310.46l-3.034,0.021l0.021,3.034l3.034,-0.021l-0.021,-3.034Z" style="fill:#139bd7;"/><path d="M255.055,286.354l-0.012,1.676l1.676,0.011l0.011,-1.675l-1.675,-0.012Z" style="fill:#03a9da;"/><path d="M245.395,304.71l-0.012,1.675l1.676,0.012l0.011,-1.676l-1.675,-0.011Z" style="fill:#03a9da;"/><path d="M246.389,299.495l-0.011,1.675l1.675,0.012l0.012,-1.675l-1.676,-0.012Z" style="fill:#03a9da;"/><path d="M264.462,281.222l-0.012,1.675l1.676,0.012l0.012,-1.676l-1.676,-0.011Z" style="fill:#03a9da;"/><path d="M248.407,294.539l-0.011,1.675l1.675,0.012l0.012,-1.676l-1.676,-0.011Z" style="fill:#03a9da;"/><path d="M251.38,290.091l-0.012,1.675l1.676,0.012l0.012,-1.676l-1.676,-0.011Z" style="fill:#03a9da;"/><path d="M261.228,283.384l-1.676,0.011l0.012,1.676l1.675,-0.012l-0.011,-1.675Z" style="fill:#03a9da;"/><path d="M271.372,280.168l-1.676,0.012l0.012,1.676l1.675,-0.012l-0.011,-1.676Z" style="fill:#03a9da;"/><path d="M296.45,294.534l-0.012,1.676l1.675,0.012l0.012,-1.676l-1.675,-0.012Z" style="fill:#03a9da;"/><path d="M298.581,299.474l-0.012,1.676l1.676,0.012l0.011,-1.676l-1.675,-0.012Z" style="fill:#03a9da;"/><path d="M293.516,290.113l-0.011,1.676l1.675,0.011l0.012,-1.675l-1.676,-0.012Z" style="fill:#03a9da;"/><path d="M299.433,304.679l-0.011,1.676l1.675,0.012l0.012,-1.676l-1.676,-0.012Z" style="fill:#03a9da;"/><path d="M275.049,280.156l-0.011,1.676l1.675,0.011l0.012,-1.675l-1.676,-0.012Z" style="fill:#03a9da;"/><path d="M280.332,281.197l-0.012,1.675l1.676,0.012l0.011,-1.676l-1.675,-0.011Z" style="fill:#03a9da;"/><path d="M255.055,286.354l-0.012,1.676l1.676,0.011l0.011,-1.675l-1.675,-0.012Z" style="fill:#03a9da;"/><path d="M245.395,304.71l-0.012,1.675l1.676,0.012l0.011,-1.676l-1.675,-0.011Z" style="fill:#03a9da;"/><path d="M289.804,286.348l-0.012,1.675l1.675,0.012l0.012,-1.676l-1.675,-0.011Z" style="fill:#03a9da;"/><path d="M246.389,299.495l-0.011,1.675l1.675,0.012l0.012,-1.675l-1.676,-0.012Z" style="fill:#03a9da;"/><path d="M264.462,281.222l-0.012,1.675l1.676,0.012l0.012,-1.676l-1.676,-0.011Z" style="fill:#03a9da;"/><path d="M248.407,294.539l-0.011,1.675l1.675,0.012l0.012,-1.676l-1.676,-0.011Z" style="fill:#03a9da;"/><path d="M251.38,290.091l-0.012,1.675l1.676,0.012l0.012,-1.676l-1.676,-0.011Z" style="fill:#03a9da;"/><path d="M261.228,283.384l-1.676,0.011l0.012,1.676l1.675,-0.012l-0.011,-1.675Z" style="fill:#03a9da;"/><path d="M271.372,280.168l-1.676,0.012l0.012,1.676l1.675,-0.012l-0.011,-1.676Z" style="fill:#03a9da;"/><path d="M285.287,283.375l-0.012,1.675l1.676,0.012l0.011,-1.676l-1.675,-0.011Z" style="fill:#03a9da;"/><path d="M299.433,304.679l-0.011,1.676l1.675,0.012l0.012,-1.676l-1.676,-0.012Z" style="fill:#03a9da;"/><path d="M275.049,280.156l-0.011,1.676l1.675,0.011l0.012,-1.675l-1.676,-0.012Z" style="fill:#03a9da;"/><path d="M280.332,281.197l-0.012,1.675l1.676,0.012l0.011,-1.676l-1.675,-0.011Z" style="fill:#03a9da;"/><path d="M289.828,328.279l-0.012,1.676l1.676,0.011l0.011,-1.675l-1.675,-0.012Z" style="fill:#03a9da;"/><path d="M299.442,309.923l-0.012,1.676l1.676,0.012l0.012,-1.676l-1.676,-0.012Z" style="fill:#03a9da;"/><path d="M255.079,328.286l-0.012,1.675l1.676,0.012l0.012,-1.676l-1.676,-0.011Z" style="fill:#03a9da;"/><path d="M298.584,315.23l-0.012,1.675l1.676,0.012l0.012,-1.675l-1.676,-0.012Z" style="fill:#03a9da;"/><path d="M280.352,333.434l-0.012,1.675l1.676,0.012l0.012,-1.675l-1.676,-0.012Z" style="fill:#03a9da;"/><path d="M296.429,320.162l-0.012,1.676l1.676,0.012l0.011,-1.676l-1.675,-0.012Z" style="fill:#03a9da;"/><path d="M293.525,324.611l-0.012,1.676l1.676,0.011l0.011,-1.675l-1.675,-0.012Z" style="fill:#03a9da;"/><path d="M286.95,331.387l-1.675,0.011l0.011,1.676l1.676,-0.012l-0.012,-1.675Z" style="fill:#03a9da;"/><path d="M276.784,334.489l-1.676,0.011l0.012,1.676l1.675,-0.012l-0.011,-1.675Z" style="fill:#03a9da;"/><path d="M259.572,331.44l-0.012,1.676l1.676,0.012l0.011,-1.676l-1.675,-0.012Z" style="fill:#03a9da;"/><path d="M248.365,320.144l-0.012,1.675l1.675,0.012l0.012,-1.675l-1.675,-0.012Z" style="fill:#03a9da;"/><path d="M246.37,315.228l-0.012,1.675l1.676,0.012l0.011,-1.676l-1.675,-0.011Z" style="fill:#03a9da;"/><path d="M251.366,324.611l-0.012,1.676l1.675,0.011l0.012,-1.675l-1.675,-0.012Z" style="fill:#03a9da;"/><path d="M245.381,309.954l-0.012,1.675l1.676,0.012l0.011,-1.676l-1.675,-0.011Z" style="fill:#03a9da;"/><path d="M269.742,334.476l-0.011,1.676l1.675,0.012l0.012,-1.676l-1.676,-0.012Z" style="fill:#03a9da;"/><path d="M264.483,333.436l-0.012,1.676l1.676,0.011l0.011,-1.675l-1.675,-0.012Z" style="fill:#03a9da;"/></g></g></g><text x="304.344px" y="249.849px" style="font-family:'SegoeUI-Bold', 'Segoe UI', sans-serif;font-weight:700;font-size:15px;fill:#2781ce;">&apos;public&apos; frontend</text><path id="HTTPS" d="M392.451,196.694l-3.462,0l0,-3.674c0,-1.353 -0.451,-2.507 -1.352,-3.464c-0.901,-0.957 -1.989,-1.435 -3.263,-1.435c-1.274,0 -2.362,0.478 -3.263,1.435c-0.902,0.957 -1.353,2.111 -1.353,3.464l0,3.674l13.467,0c0.481,0 0.889,0.179 1.226,0.536c0.336,0.357 0.505,0.791 0.505,1.301l0,11.024c0,0.51 -0.169,0.944 -0.505,1.301c-0.337,0.357 -0.745,0.536 -1.226,0.536l-17.308,0c-0.481,0 -0.889,-0.179 -1.226,-0.536c-0.336,-0.357 -0.505,-0.791 -0.505,-1.301l0,-11.024c0,-0.51 0.169,-0.944 0.505,-1.301c0.337,-0.357 1.125,-0.534 1.606,-0.534l0,-3.676c0,-2.36 0.79,-4.379 2.371,-6.057c1.58,-1.678 3.482,-2.517 5.706,-2.517c2.223,0 4.125,0.839 5.706,2.517c1.58,1.678 2.371,3.697 2.371,6.057l0,3.674Z" style="fill:#2781ce;"/><g id="User"><path d="M364.795,130.056c3.3,0 11,-3.9 11,-13.4c0,-7.4 -1,-13.4 -11,-13.4c-10,0 -11,6 -11,13.4c0,9.5 7.7,13.4 11,13.4Zm-9.3,-15.5c0.8,-1.5 2.4,-3.2 6,-3.1c0,0 2.1,5.2 12.6,2.9c0,0.8 0.1,1.7 0.1,2.5c0.106,3.388 -1.241,6.665 -3.7,9c-1.515,1.496 -3.486,2.446 -5.6,2.7c-2.114,-0.254 -4.085,-1.204 -5.6,-2.7c-2.458,-2.335 -3.805,-5.612 -3.7,-9c-0.2,-0.9 -0.1,-1.6 -0.1,-2.3Z" style="fill:#2781ce;fill-rule:nonzero;stroke:#fff;stroke-width:1px;stroke-linecap:butt;stroke-linejoin:miter;stroke-miterlimit:4;"/><path d="M384.395,143.756c-0.5,-3.5 -1.6,-8 -3.9,-9.5c-2.3,-1.5 -6.8,-4 -9.1,-5.3c-0.26,-0.139 -0.581,-0.099 -0.8,0.1c-1.105,0.915 -2.405,1.565 -3.8,1.9c-0.244,0.064 -0.436,0.255 -0.5,0.5l-1.4,3.8l-1.4,-3.8c-0.064,-0.245 -0.255,-0.436 -0.5,-0.5c-1.395,-0.335 -2.695,-0.985 -3.8,-1.9c-0.218,-0.199 -0.539,-0.239 -0.8,-0.1c-2.2,1.2 -7.8,4.3 -9.3,5.3c-1.5,1 -3.4,8.2 -3.6,9.5c-0.034,0.131 -0.034,0.269 0,0.4c0.1,0.3 2.4,6.6 19.5,6.6c17.1,0 19.4,-6.3 19.5,-6.6c0.002,-0.14 -0.032,-0.278 -0.1,-0.4Z" style="fill:#2781ce;fill-rule:nonzero;stroke:#fff;stroke-width:1px;stroke-linecap:butt;stroke-linejoin:miter;stroke-miterlimit:4;"/><rect x="349.995" y="136.056" width="29.2" height="18.94" style="fill:#2781ce;stroke:#fff;stroke-width:1px;stroke-linecap:butt;stroke-linejoin:miter;stroke-miterlimit:4;"/><path d="M370.395,140.956l-7.4,9.3l-3.8,-3.8" style="fill:#2781ce;fill-rule:nonzero;stroke:#fff;stroke-width:1px;stroke-linecap:butt;stroke-linejoin:miter;stroke-miterlimit:4;"/><g><g opacity="0.6"><path d="M348.395,136.056l32,0l0,4.8c-3.5,0.7 -29.8,-3.4 -32,-4.8Z" style="fill:#2781ce;fill-rule:nonzero;stroke:#2781ce;stroke-width:1px;stroke-linecap:butt;stroke-linejoin:miter;stroke-miterlimit:4;"/><clipPath id="_clip1"><path d="M348.395,136.056l32,0l0,4.8c-3.5,0.7 -29.8,-3.4 -32,-4.8Z"/></clipPath><g clip-path="url(#_clip1)"><rect x="348.395" y="135.156" width="32" height="6.63" style="fill:#2781ce;stroke:#2781ce;stroke-width:1px;stroke-linecap:butt;stroke-linejoin:miter;stroke-miterlimit:4;"/></g></g></g><path d="M349.595,158.156l0,-2.6l-1,-1.2l-1.7,-1.9l-1.1,-1.2c-1.868,-1.987 -2.344,-4.925 -1.2,-7.4l2.9,-7.4c0.3,-0.7 2.1,-1.2 3.1,-1.9l14.5,1.1l13.2,-1.5c1,0.7 3.9,1.5 4.2,2.2l2.9,7.4c1.114,2.562 0.514,5.563 -1.5,7.5l-1.1,1.2l-1.7,1.9l-1,1.2l0,2.5c0,0.493 -0.406,0.9 -0.9,0.9l-28.7,0c-0.458,0.003 -0.849,-0.345 -0.9,-0.8Zm28.6,-1l0,-1l-26.8,0l0,1l26.8,0Zm0.1,-2.9l0.6,-16.9c0,-0.329 -0.271,-0.6 -0.6,-0.6l-26.9,0c-0.329,0 -0.6,0.271 -0.6,0.6l0.6,16.9l26.9,0Z" style="fill:#2781ce;fill-rule:nonzero;stroke:#fff;stroke-width:1px;stroke-linecap:butt;stroke-linejoin:miter;stroke-miterlimit:4;"/></g></g></svg>