<?xml version="1.0" encoding="UTF-8" standalone="no"?>
<svg width="418px" height="248px" viewBox="0 0 418 248" version="1.1" xmlns="http://www.w3.org/2000/svg" xmlns:xlink="http://www.w3.org/1999/xlink" xmlns:sketch="http://www.bohemiancoding.com/sketch/ns">
    <!-- Generator: Sketch 3.3.3 (12072) - http://www.bohemiancoding.com/sketch -->
    <title>Artboard 1</title>
    <desc>Created with Sketch.</desc>
    <defs>
        <radialGradient cx="44.9910313%" cy="60.7489014%" fx="44.9910313%" fy="60.7489014%" r="87.364477%" id="radialGradient-1">
            <stop stop-color="#83E9A9" offset="0%"></stop>
            <stop stop-color="#3AAE6A" offset="100%"></stop>
            <stop stop-color="#10CF17" offset="100%"></stop>
        </radialGradient>
    </defs>
    <g id="Page-1" stroke="none" stroke-width="1" fill="none" fill-rule="evenodd" sketch:type="MSPage">
        <g id="Artboard-1" sketch:type="MSArtboardGroup" fill="url(#radialGradient-1)">
            <g id="infinte" sketch:type="MSLayerGroup" transform="translate(20.000000, 41.000000)">
                <path d="M295.3,0 C271.7,0 249.4,8.3 232.7,23.3 L201.1,51.8 L223.5,72 L254.6,44 C265.4,34.3 279.9,28.9 295.3,28.9 C310.7,28.9 325.2,34.3 336,44 C346.7,53.6 352.6,66.4 352.6,80.1 C352.6,93.7 346.7,106.5 336,116.1 C325.2,125.8 310.7,131.2 295.3,131.2 C279.9,131.2 265.4,125.8 254.6,116.1 L151.3,23.4 C134.6,8.4 112.3,0.1 88.7,0.1 C65.1,0.1 42.8,8.4 26.1,23.4 C9.3,38.4 0,58.5 0,80 C0,101.5 9.3,121.6 26.1,136.7 C42.8,151.7 65.1,160 88.7,160 C112.3,160 134.6,151.7 151.3,136.7 L166.263193,123.252067 L174,130 L174,96 L138,96 L144.192949,102.776346 L129.5,116 C118.7,125.7 104.2,131.1 88.8,131.1 C73.4,131.1 58.9,125.7 48.1,116 C37.4,106.4 31.5,93.6 31.5,80 C31.5,66.4 37.4,53.6 48.1,43.9 C58.9,34.2 73.4,28.8 88.8,28.8 C104.2,28.8 118.7,34.2 129.5,43.9 L232.8,136.6 C249.5,151.6 271.8,159.9 295.4,159.9 C319,159.9 341.3,151.6 358,136.6 C374.8,121.5 384.1,101.4 384.1,79.9 C384,58.5 374.7,38.4 357.9,23.3 C341.2,8.3 318.9,0 295.3,0 Z" id="Shape" sketch:type="MSShapeGroup"></path>
            </g>
        </g>
    </g>
</svg>