<?xml version="1.0" encoding="UTF-8" standalone="no"?><!DOCTYPE svg PUBLIC "-//W3C//DTD SVG 1.1//EN" "http://www.w3.org/Graphics/SVG/1.1/DTD/svg11.dtd"><svg width="100%" height="100%" viewBox="0 0 3827 1714" version="1.1" xmlns="http://www.w3.org/2000/svg" xmlns:xlink="http://www.w3.org/1999/xlink" xml:space="preserve" style="fill-rule:evenodd;clip-rule:evenodd;stroke-linecap:round;stroke-linejoin:round;stroke-miterlimit:1.5;"><path id="Network-boundary" d="M3830.64,677.858l-3844.03,10.6l-0.012,-4.483l3844.03,-10.601l0.012,4.484Z" style="fill:#320015;"/><rect id="Artboard1" x="0" y="0" width="3826.58" height="1713.17" style="fill:none;"/><g id="server"><rect id="server-border" x="3241.2" y="650.216" width="180.254" height="163.99" style="fill:#fff;"/><path d="M3421.45,814.206l-180.254,0l0,-163.99l180.254,0l0,163.99Zm-175.771,-159.507l0,155.023l171.287,0l0,-155.023l-171.287,0Z" style="fill:#ff1277;"/><g id="server1" transform="matrix(1,-7.39557e-32,0,1,1959.76,-249.8)"><text x="1294.99px" y="927.417px" style="font-family:'Consolas-Bold', 'Consolas', monospace;font-weight:700;font-size:24px;fill:#333;">server</text><text x="1294.99px" y="961.417px" style="font-family:'Consolas', monospace;font-size:18px;fill:#333;">listen 80</text><text x="1294.99px" y="978.417px" style="font-family:'Consolas', monospace;font-size:18px;fill:#333;">server_name</text><text x="1294.99px" y="995.417px" style="font-family:'Consolas', monospace;font-size:18px;fill:#333;">example.com</text><text x="1294.99px" y="1029.42px" style="font-family:'ArialMT', 'Arial', sans-serif;font-size:18px;fill:#333;">Redirect</text><text x="1294.99px" y="1046.42px" style="font-family:'ArialMT', 'Arial', sans-serif;font-size:18px;fill:#333;">permanently</text></g></g><g id="server2"><rect id="server-border1" x="3435.18" y="649.86" width="180.254" height="163.99" style="fill:#fff;"/><path d="M3615.43,813.851l-180.255,0l0,-163.991l180.255,0l0,163.991Zm-175.771,-159.507l0,155.023l171.287,0l0,-155.023l-171.287,0Z" style="fill:#ff1277;"/><g id="server3" transform="matrix(1,-7.39557e-32,0,1,2153.74,-250.155)"><text x="1294.99px" y="927.417px" style="font-family:'Consolas-Bold', 'Consolas', monospace;font-weight:700;font-size:24px;fill:#333;">server</text><text x="1294.99px" y="961.417px" style="font-family:'Consolas', monospace;font-size:18px;fill:#333;">listen 80</text><text x="1294.99px" y="978.417px" style="font-family:'Consolas', monospace;font-size:18px;fill:#333;">server_name</text><text x="1294.99px" y="995.417px" style="font-family:'Consolas', monospace;font-size:18px;fill:#333;">www.example.com</text><text x="1294.99px" y="1029.42px" style="font-family:'ArialMT', 'Arial', sans-serif;font-size:18px;fill:#333;">Redirect</text><text x="1294.99px" y="1046.42px" style="font-family:'ArialMT', 'Arial', sans-serif;font-size:18px;fill:#333;">permanently</text></g></g><g id="server4"><rect id="server-border2" x="3637.38" y="649.86" width="180.254" height="163.99" style="fill:#fff;"/><path d="M3817.64,813.851l-180.255,0l0,-163.991l180.255,0l0,163.991Zm-175.771,-159.507l0,155.023l171.287,0l0,-155.023l-171.287,0Z" style="fill:#ff1277;"/><g id="server5" transform="matrix(1,-7.39557e-32,0,1,2355.95,-250.155)"><text x="1294.99px" y="927.417px" style="font-family:'Consolas-Bold', 'Consolas', monospace;font-weight:700;font-size:24px;fill:#333;">server</text><text x="1294.99px" y="961.417px" style="font-family:'Consolas', monospace;font-size:18px;fill:#333;">listen 443</text><text x="1294.99px" y="978.417px" style="font-family:'Consolas', monospace;font-size:18px;fill:#333;">server_name</text><text x="1294.99px" y="995.417px" style="font-family:'Consolas', monospace;font-size:18px;fill:#333;">www.example.com</text><text x="1294.99px" y="1029.42px" style="font-family:'ArialMT', 'Arial', sans-serif;font-size:18px;fill:#333;">Redirect</text><text x="1294.99px" y="1046.42px" style="font-family:'ArialMT', 'Arial', sans-serif;font-size:18px;fill:#333;">permanently</text></g></g><g id="server6"><rect id="server-border3" x="802.825" y="650.083" width="2420.16" height="1047.03" style="fill:#fff;"/><path d="M3222.99,1697.11l-2420.16,0l0,-1047.03l2420.16,0l0,1047.03Zm-2415.68,-1042.54l0,1038.06l2411.2,0l0,-1038.06l-2411.2,0Z" style="fill:#ff1277;"/><g id="server7" transform="matrix(1,-3.91711e-32,0,1,-476.844,-247.55)"><text x="1294.99px" y="927.417px" style="font-family:'Consolas-Bold', 'Consolas', monospace;font-weight:700;font-size:24px;fill:#333;">server</text><text x="1294.99px" y="961.417px" style="font-family:'Consolas', monospace;font-size:18px;fill:#333;">listen 443</text><text x="1294.99px" y="978.417px" style="font-family:'Consolas', monospace;font-size:18px;fill:#333;">server_name</text><text x="1294.99px" y="995.417px" style="font-family:'Consolas', monospace;font-size:18px;fill:#333;">example.com</text><text x="1294.99px" y="1029.42px" style="font-family:'ArialMT', 'Arial', sans-serif;font-size:18px;fill:#333;">Handles location mappings, HTTPS termination, and adding required proxy headers.</text></g></g><g id="Incoming-traffic"><path d="M1765.28,389.148l-10.459,0l16.09,-16.09l16.09,16.09l-10.458,0l0,216.695l10.458,0l-16.09,16.09l-16.09,-16.09l10.459,0l0,-216.695Z" style="fill:#00b6d1;"/><g transform="matrix(1,0,0,1,263.285,199.227)"><text x="1532.82px" y="295.583px" style="font-family:'Calibri', sans-serif;font-size:96px;fill:#333;">HT<tspan x="1640.73px 1687.51px 1732.04px 1769.12px " y="295.583px 295.583px 295.583px 295.583px ">TP/2</tspan></text><path d="M1610.56,330.273c0.293,0 0.493,0.066 0.6,0.198c0.108,0.132 0.161,0.325 0.161,0.579l0,12.788c0,0.078 -0.019,0.144 -0.058,0.197c-0.039,0.054 -0.105,0.1 -0.198,0.14c-0.093,0.039 -0.217,0.068 -0.374,0.087c-0.156,0.02 -0.346,0.03 -0.571,0.03c-0.244,0 -0.444,-0.01 -0.6,-0.03c-0.157,-0.019 -0.281,-0.048 -0.374,-0.087c-0.093,-0.04 -0.159,-0.086 -0.198,-0.14c-0.039,-0.053 -0.058,-0.119 -0.058,-0.197l0,-11.558l-6.812,0l0,7.354c0,0.908 0.134,1.594 0.403,2.058c0.269,0.463 0.75,0.695 1.443,0.695c0.224,0 0.425,-0.022 0.6,-0.066c0.176,-0.043 0.333,-0.09 0.469,-0.139c0.137,-0.048 0.254,-0.095 0.352,-0.139c0.097,-0.044 0.185,-0.066 0.263,-0.066c0.049,0 0.096,0.012 0.14,0.037c0.044,0.024 0.078,0.071 0.102,0.139c0.025,0.068 0.047,0.161 0.066,0.278c0.02,0.118 0.029,0.264 0.029,0.44c0,0.283 -0.019,0.505 -0.058,0.666c-0.039,0.161 -0.098,0.284 -0.176,0.367c-0.078,0.083 -0.195,0.158 -0.352,0.227c-0.156,0.068 -0.334,0.124 -0.534,0.168c-0.2,0.044 -0.413,0.081 -0.637,0.11c-0.225,0.029 -0.45,0.044 -0.674,0.044c-0.684,0 -1.27,-0.09 -1.758,-0.271c-0.488,-0.181 -0.889,-0.454 -1.201,-0.82c-0.313,-0.367 -0.54,-0.831 -0.681,-1.392c-0.142,-0.562 -0.213,-1.223 -0.213,-1.985l0,-7.705l-1.846,0c-0.146,0 -0.263,-0.078 -0.351,-0.234c-0.088,-0.157 -0.132,-0.411 -0.132,-0.762c0,-0.186 0.012,-0.342 0.037,-0.469c0.024,-0.127 0.056,-0.232 0.095,-0.315c0.039,-0.083 0.09,-0.141 0.154,-0.176c0.063,-0.034 0.134,-0.051 0.212,-0.051l1.831,0l0,-3.135c0,-0.068 0.017,-0.131 0.051,-0.19c0.035,-0.059 0.098,-0.11 0.191,-0.154c0.093,-0.044 0.217,-0.076 0.373,-0.095c0.157,-0.02 0.352,-0.029 0.586,-0.029c0.245,0 0.445,0.009 0.601,0.029c0.156,0.019 0.278,0.051 0.366,0.095c0.088,0.044 0.152,0.095 0.191,0.154c0.039,0.059 0.058,0.122 0.058,0.19l0,3.135l8.482,0Zm1.04,-4.072c0,0.566 -0.108,0.952 -0.323,1.157c-0.214,0.205 -0.61,0.308 -1.186,0.308c-0.567,0 -0.955,-0.1 -1.165,-0.301c-0.21,-0.2 -0.315,-0.578 -0.315,-1.135c0,-0.566 0.108,-0.952 0.323,-1.157c0.214,-0.205 0.61,-0.308 1.186,-0.308c0.567,0 0.955,0.1 1.165,0.301c0.21,0.2 0.315,0.578 0.315,1.135Z" style="fill:#333;"/><text x="1532.82px" y="344.204px" style="font-family:'Calibri', sans-serif;font-size:30px;fill:#333;">Neg<tspan x="1581.03px 1613.57px 1627.66px 1637.38px 1652.31px " y="344.204px 344.204px 344.204px 344.204px 344.204px ">oated</tspan> with ALPN</text></g><g id="browsers"><g id="chrome"><path id="Shape" d="M1610.59,335.334c7.211,0 13.085,-5.864 13.085,-13.063c0,-7.275 -5.874,-13.139 -13.085,-13.139c-7.288,0 -13.162,5.864 -13.162,13.139c0,7.199 5.874,13.063 13.162,13.063Z" style="fill:#656565;"/><path id="Shape1" d="M1610.59,303.862l37.698,0c-6.765,-13.88 -21.116,-23.53 -37.698,-23.53c-12.494,0 -23.647,5.419 -31.307,13.955l13.459,23.381c2.083,-7.942 9.221,-13.806 17.848,-13.806Z" style="fill:#656565;"/><path id="Shape2" d="M1575.79,298.74c-4.536,6.755 -7.213,14.772 -7.213,23.531c0,20.19 14.351,37.039 33.387,40.972l13.532,-23.307c-1.56,0.445 -3.271,0.668 -4.905,0.668c-6.843,0 -12.791,-3.711 -15.914,-9.204c-0.074,-0.073 -0.149,-0.148 -0.224,-0.296l-18.663,-32.364Z" style="fill:#656565;"/><path id="Shape3" d="M1626.36,331.549l-18.738,32.512c0.967,0.074 1.933,0.074 2.976,0.074c23.124,0 41.938,-18.78 41.938,-41.864c0,-4.603 -0.746,-8.982 -2.083,-13.139l-26.993,0c3.346,3.34 5.503,7.942 5.503,13.139c0,3.34 -0.966,6.606 -2.603,9.278Z" style="fill:#656565;"/></g><path id="Microsoft.-Edge.-logo" d="M1684.52,299.766c-10.204,6.27 -16.035,15.181 -16.035,15.181c0,0 1.511,-18.685 16.035,-29.618c5.776,-4.348 13.673,-7.991 24.295,-7.991c3.99,0 12.358,0.685 19.895,5.273c7.537,4.588 10.582,8.431 13.978,14.057c1.465,2.428 2.658,5.547 3.403,8.556c1.395,5.637 1.564,12.379 1.564,12.379l0,8.88l-53.866,0c0,0 -1.316,17.868 23.457,17.868c8.616,0 11.633,-1.336 14.466,-2.164c4.436,-1.297 8.72,-4.188 8.72,-4.188l0.008,17.852c0,0 -10.138,6.165 -25.455,6.165c-4.313,0 -8.859,-0.357 -13.243,-1.761c-3.83,-1.227 -11.853,-4.537 -17.222,-12.294c-1.9,-2.744 -3.958,-6.395 -4.977,-9.962c-1.102,-3.857 -1.089,-7.604 -1.089,-9.668c0,-7.72 2.672,-15.091 7.307,-20.419c6.005,-6.902 13.595,-9.941 13.595,-9.941c0,0 -2.472,2.846 -3.993,6.388c-1.521,3.543 -1.937,7.108 -1.937,7.108l30.416,0c0,0 1.779,-17.945 -17.21,-17.945c-7.155,0 -15.943,2.452 -22.112,6.244Z" style="fill:#656565;"/><g id="Safari"><circle id="Face" cx="1814.74" cy="317.904" r="44.257" style="fill:#656565;"/><path id="Smaller.-Notches" d="M1814.32,276.995l0,4.256l0.851,0l0,-4.256l-0.851,0Zm3.569,0.119l-0.371,4.239l0.848,0.075l0.371,-4.24l-0.848,-0.074Zm3.546,0.429l-0.739,4.191l0.838,0.148l0.739,-4.191l-0.838,-0.148Zm3.494,0.737l-1.101,4.111l0.822,0.22l1.101,-4.111l-0.822,-0.22Zm3.417,1.038l-1.455,3.999l0.799,0.291l1.456,-3.998l-0.8,-0.292Zm3.314,1.333l-1.799,3.857l0.771,0.359l1.799,-3.857l-0.771,-0.359Zm3.184,1.616l-2.128,3.685l0.738,0.426l2.127,-3.686l-0.737,-0.425Zm3.032,1.887l-2.441,3.486l0.697,0.488l2.441,-3.486l-0.697,-0.488Zm2.856,2.145l-2.736,3.26l0.652,0.547l2.736,-3.26l-0.652,-0.547Zm2.658,2.385l-3.009,3.009l0.601,0.602l3.009,-3.009l-0.601,-0.602Zm2.44,2.608l-3.26,2.735l0.547,0.652l3.26,-2.735l-0.547,-0.652Zm2.203,2.81l-3.486,2.441l0.488,0.697l3.486,-2.441l-0.488,-0.697Zm1.95,2.992l-3.685,2.128l0.425,0.737l3.686,-2.128l-0.426,-0.737Zm1.682,3.15l-3.857,1.799l0.36,0.771l3.857,-1.798l-0.36,-0.772Zm1.401,3.285l-3.999,1.456l0.291,0.8l3.999,-1.456l-0.291,-0.8Zm1.109,3.395l-4.111,1.101l0.221,0.822l4.11,-1.101l-0.22,-0.822Zm0.809,3.478l-4.191,0.739l0.148,0.838l4.191,-0.738l-0.148,-0.839Zm0.503,3.536l-4.239,0.371l0.074,0.848l4.239,-0.371l-0.074,-0.848Zm0.193,3.566l-4.256,0l0,0.851l4.256,0l0,-0.851Zm-0.119,3.569l-4.239,-0.371l-0.074,0.848l4.239,0.371l0.074,-0.848Zm-0.429,3.546l-4.191,-0.739l-0.148,0.838l4.191,0.739l0.148,-0.838Zm-0.737,3.494l-4.11,-1.101l-0.221,0.822l4.111,1.101l0.22,-0.822Zm-1.038,3.417l-3.999,-1.455l-0.291,0.799l3.999,1.456l0.291,-0.8Zm-1.332,3.314l-3.857,-1.799l-0.36,0.771l3.857,1.799l0.36,-0.771Zm-1.616,3.184l-3.686,-2.128l-0.425,0.738l3.685,2.127l0.426,-0.737Zm-1.888,3.032l-3.486,-2.441l-0.488,0.697l3.486,2.441l0.488,-0.697Zm-2.144,2.856l-3.26,-2.736l-0.547,0.652l3.26,2.736l0.547,-0.652Zm-2.386,2.658l-3.009,-3.009l-0.601,0.601l3.009,3.009l0.601,-0.601Zm-2.607,2.44l-2.736,-3.26l-0.652,0.547l2.736,3.26l0.652,-0.547Zm-2.811,2.203l-2.441,-3.486l-0.697,0.488l2.441,3.486l0.697,-0.488Zm-2.992,1.95l-2.127,-3.685l-0.738,0.425l2.128,3.686l0.737,-0.426Zm-3.15,1.682l-1.799,-3.857l-0.771,0.36l1.799,3.857l0.771,-0.36Zm-3.285,1.401l-1.456,-3.999l-0.799,0.291l1.455,3.999l0.8,-0.291Zm-3.395,1.109l-1.101,-4.111l-0.822,0.221l1.101,4.11l0.822,-0.22Zm-3.478,0.809l-0.739,-4.191l-0.838,0.148l0.739,4.191l0.838,-0.148Zm-3.536,0.503l-0.371,-4.239l-0.848,0.074l0.371,4.239l0.848,-0.074Zm-3.566,0.193l0,-4.256l-0.851,0l0,4.256l0.851,0Zm-3.569,-0.119l0.371,-4.239l-0.848,-0.074l-0.371,4.239l0.848,0.074Zm-3.545,-0.429l0.739,-4.191l-0.839,-0.148l-0.739,4.191l0.839,0.148Zm-3.495,-0.737l1.102,-4.11l-0.823,-0.221l-1.101,4.111l0.822,0.22Zm-3.417,-1.038l1.456,-3.999l-0.8,-0.291l-1.456,3.999l0.8,0.291Zm-3.313,-1.332l1.798,-3.857l-0.771,-0.36l-1.799,3.857l0.772,0.36Zm-3.185,-1.616l2.128,-3.686l-0.737,-0.425l-2.128,3.685l0.737,0.426Zm-3.032,-1.888l2.441,-3.486l-0.697,-0.488l-2.441,3.486l0.697,0.488Zm-2.855,-2.144l2.735,-3.26l-0.652,-0.547l-2.735,3.26l0.652,0.547Zm-2.658,-2.386l3.009,-3.009l-0.602,-0.601l-3.009,3.009l0.602,0.601Zm-2.44,-2.607l3.26,-2.736l-0.547,-0.652l-3.26,2.736l0.547,0.652Zm-2.204,-2.811l3.486,-2.441l-0.488,-0.697l-3.486,2.441l0.488,0.697Zm-1.95,-2.992l3.686,-2.127l-0.426,-0.738l-3.685,2.128l0.425,0.737Zm-1.682,-3.15l3.857,-1.799l-0.359,-0.771l-3.857,1.799l0.359,0.771Zm-1.4,-3.285l3.998,-1.456l-0.291,-0.799l-3.999,1.455l0.292,0.8Zm-1.11,-3.395l4.111,-1.101l-0.22,-0.822l-4.111,1.101l0.22,0.822Zm-0.809,-3.478l4.191,-0.739l-0.148,-0.838l-4.191,0.739l0.148,0.838Zm-0.503,-3.536l4.24,-0.371l-0.075,-0.848l-4.239,0.371l0.074,0.848Zm-0.193,-3.566l4.256,0l0,-0.851l-4.256,0l0,0.851Zm0.119,-3.569l4.239,0.371l0.075,-0.848l-4.24,-0.371l-0.074,0.848Zm0.429,-3.545l4.191,0.738l0.148,-0.838l-4.191,-0.739l-0.148,0.839Zm0.737,-3.495l4.111,1.101l0.22,-0.822l-4.111,-1.101l-0.22,0.822Zm1.038,-3.417l3.999,1.456l0.291,-0.8l-3.998,-1.456l-0.292,0.8Zm1.333,-3.313l3.857,1.798l0.359,-0.771l-3.857,-1.799l-0.359,0.772Zm1.616,-3.185l3.685,2.128l0.426,-0.737l-3.686,-2.128l-0.425,0.737Zm1.887,-3.032l3.486,2.441l0.488,-0.697l-3.486,-2.441l-0.488,0.697Zm2.145,-2.855l3.26,2.735l0.547,-0.652l-3.26,-2.735l-0.547,0.652Zm2.385,-2.658l3.009,3.009l0.602,-0.602l-3.009,-3.009l-0.602,0.602Zm2.608,-2.44l2.735,3.26l0.652,-0.547l-2.735,-3.26l-0.652,0.547Zm2.81,-2.204l2.441,3.486l0.697,-0.488l-2.441,-3.486l-0.697,0.488Zm2.992,-1.95l2.128,3.686l0.737,-0.426l-2.128,-3.685l-0.737,0.425Zm3.15,-1.682l1.799,3.857l0.771,-0.359l-1.798,-3.857l-0.772,0.359Zm3.285,-1.4l1.456,3.998l0.8,-0.291l-1.456,-3.999l-0.8,0.292Zm3.395,-1.11l1.101,4.111l0.823,-0.22l-1.102,-4.111l-0.822,0.22Zm3.478,-0.809l0.739,4.191l0.839,-0.148l-0.739,-4.191l-0.839,0.148Zm3.536,-0.503l0.371,4.24l0.848,-0.075l-0.371,-4.239l-0.848,0.074Z" style="fill:#8e8e8e;"/><path id="Larger.-Notches" d="M1814.33,277.051l0,7.66l0.851,0l0,-7.66l-0.851,0Zm7.103,0.547l-1.33,7.544l0.838,0.148l1.33,-7.544l-0.838,-0.148Zm6.901,1.773l-2.62,7.198l0.799,0.291l2.62,-7.198l-0.799,-0.291Zm6.487,2.943l-3.83,6.634l0.738,0.425l3.83,-6.633l-0.738,-0.426Zm5.879,4.026l-4.924,5.867l0.652,0.547l4.924,-5.867l-0.652,-0.547Zm5.09,4.985l-5.868,4.923l0.547,0.652l5.868,-4.923l-0.547,-0.652Zm4.146,5.793l-6.633,3.83l0.425,0.737l6.634,-3.83l-0.426,-0.737Zm3.078,6.425l-7.198,2.62l0.292,0.799l7.198,-2.619l-0.292,-0.8Zm1.916,6.862l-7.544,1.33l0.148,0.838l7.544,-1.33l-0.148,-0.838Zm0.695,7.09l-7.66,0l0,0.851l7.66,0l0,-0.851Zm-0.547,7.104l-7.544,-1.33l-0.148,0.838l7.544,1.33l0.148,-0.838Zm-1.772,6.9l-7.198,-2.62l-0.292,0.8l7.198,2.62l0.292,-0.8Zm-2.944,6.488l-6.634,-3.83l-0.425,0.737l6.633,3.83l0.426,-0.737Zm-4.025,5.878l-5.868,-4.923l-0.547,0.652l5.868,4.923l0.547,-0.652Zm-4.985,5.09l-4.924,-5.868l-0.652,0.547l4.924,5.868l0.652,-0.547Zm-5.793,4.147l-3.83,-6.634l-0.738,0.426l3.83,6.634l0.738,-0.426Zm-6.426,3.078l-2.62,-7.198l-0.799,0.291l2.62,7.198l0.799,-0.291Zm-6.862,1.916l-1.33,-7.544l-0.838,0.148l1.33,7.543l0.838,-0.147Zm-7.09,0.694l0,-7.66l-0.851,0l0,7.66l0.851,0Zm-7.104,-0.547l1.331,-7.543l-0.839,-0.148l-1.33,7.544l0.838,0.147Zm-6.9,-1.772l2.62,-7.198l-0.8,-0.291l-2.62,7.198l0.8,0.291Zm-6.488,-2.943l3.83,-6.634l-0.737,-0.426l-3.83,6.634l0.737,0.426Zm-5.878,-4.026l4.924,-5.868l-0.652,-0.547l-4.924,5.868l0.652,0.547Zm-5.09,-4.985l5.868,-4.923l-0.547,-0.652l-5.868,4.923l0.547,0.652Zm-4.147,-5.793l6.634,-3.83l-0.426,-0.737l-6.633,3.83l0.425,0.737Zm-3.078,-6.425l7.198,-2.62l-0.291,-0.8l-7.198,2.62l0.291,0.8Zm-1.915,-6.862l7.543,-1.33l-0.148,-0.838l-7.543,1.33l0.148,0.838Zm-0.695,-7.091l7.66,0l0,-0.851l-7.66,0l0,0.851Zm0.547,-7.103l7.543,1.33l0.148,-0.838l-7.543,-1.33l-0.148,0.838Zm1.772,-6.9l7.198,2.619l0.291,-0.799l-7.198,-2.62l-0.291,0.8Zm2.944,-6.488l6.633,3.83l0.426,-0.737l-6.634,-3.83l-0.425,0.737Zm4.025,-5.878l5.868,4.923l0.547,-0.652l-5.868,-4.923l-0.547,0.652Zm4.985,-5.09l4.924,5.867l0.652,-0.547l-4.924,-5.867l-0.652,0.547Zm5.793,-4.147l3.83,6.633l0.737,-0.425l-3.83,-6.634l-0.737,0.426Zm6.425,-3.078l2.62,7.198l0.8,-0.291l-2.62,-7.198l-0.8,0.291Zm6.862,-1.916l1.33,7.544l0.839,-0.148l-1.331,-7.544l-0.838,0.148Z" style="fill:#8e8e8e;"/><g id="Needle"><path id="Top.-Point" d="M1846.04,286.61l-27.082,35.507l-8.425,-8.425l35.507,-27.082Z" style="fill:#b0b0b0;"/><path id="Bottom.-Point" d="M1783.45,349.199l35.507,-27.082l-8.425,-8.425l-27.082,35.507Z" style="fill:#fff;"/></g></g><g id="firefox"><path id="Shape4" d="M1965.73,311.125c0,21.306 -15.557,38.805 -37.182,38.805c-21.626,0 -37.716,-17.146 -37.716,-38.448c0,-21.299 18.465,-38.607 37.802,-37.897c21.455,0.778 37.096,16.243 37.096,37.541l0,-0.001Zm-37.183,-40.511c-22.761,0 -41.276,18.255 -41.276,40.686c0,22.424 18.515,40.683 41.276,40.683c22.766,0 41.281,-18.259 41.281,-40.683c-0.004,-22.433 -18.519,-40.686 -41.281,-40.686Z" style="fill:#efefef;"/><path id="Shape5" d="M1889.66,294.325l0.344,-7.842c0,0 1.712,-5.634 4.443,-6.482l4.104,8.527l11.449,0c0,0 5.474,-5.461 11.455,-4.781c0,0 -5.639,6.143 -5.639,7.503l2.9,4.272c0,0 9.57,0.507 9.57,1.189l-0.167,1.877c0,0 -1.883,2.732 -9.403,7.678c0,0 1.539,4.949 0.685,6.141l-4.443,-1.192c0,0 -2.735,2.214 -2.735,3.239c0,0 3.25,5.798 6.324,6.823c0,0 2.219,1.192 11.962,-1.538l3.418,-0.341c0,0 5.469,3.067 5.469,3.919c0,0 -1.084,1.747 -5.238,2.072l-7.23,4.919l-9.745,-0.345c0,0 19.996,19.793 32.984,-6.983l1.371,7.673c0,0 5.641,-4.264 2.733,-18.931l4.272,3.749c0,0 1.54,-9.21 -2.052,-16.713l4.613,2.387c0,0 -1.711,-8.358 -13.668,-13.304l-4.449,-1.532l9.748,-1.706c0,0 -7.178,-4.415 -13.933,-4.427c0,0 16.321,-3.594 27.772,11.928l-2.908,-10.574c0,0 7.012,14.326 8.038,25.411c0,0 2.221,-4.094 2.05,-5.453c0,0 -0.168,9.037 -1.535,10.405c0,0 3.756,35.306 -33.674,44.853c0,0 -39.821,9.895 -52.987,-31.037c0,0.002 -4.953,-13.474 4.102,-31.386l0,0.002Z" style="fill:#656565;"/></g></g></g><path d="M1639.5,756.121l-11.167,-5.255l25.264,-9.096l9.096,25.264l-11.167,-5.255l-246.942,524.813l11.167,5.255l-25.264,9.096l-9.097,-25.264l11.167,5.254l246.943,-524.812Z" style="fill:#00b6d1;"/><path d="M2129.32,1389.94l8.663,-4.968l-5.684,20.969l-20.97,-5.684l8.663,-4.967l-363.52,-633.859l-8.662,4.967l5.684,-20.969l20.97,5.684l-8.663,4.968l363.519,633.859Z" style="fill:#00b6d1;"/><path d="M2832.55,1131l3.969,-9.681l8.789,21l-21.001,8.789l3.969,-9.682l-922.523,-378.19l-3.968,9.681l-8.789,-21l21.001,-8.789l-3.969,9.682l922.522,378.19Z" style="fill:#00b6d1;"/><text x="1604.09px" y="1033.76px" style="font-family:'Calibri', sans-serif;font-size:64px;fill:#333;">HT<tspan x="1676.02px 1707.21px " y="1033.76px 1033.76px ">TP</tspan> 1.1</text><g id="upstream-app"><g id="app-server-b"><g transform="matrix(1,0,0,1,-438.021,1200.61)"><text x="1614.81px" y="250.984px" style="font-family:'Consolas', monospace;font-size:30px;fill:#686868;">server</text><text x="1557.08px" y="286.111px" style="font-family:'Consolas', monospace;font-size:30px;fill:#686868;">10.1.1.5:8000</text></g><text x="1135.23px" y="1580.76px" style="font-family:'Calibri-Bold', 'Calibri', sans-serif;font-weight:700;font-size:36px;fill:#15a960;">App ser<tspan x="1249.42px 1266.12px 1284.24px " y="1580.76px 1580.76px 1580.76px ">ver</tspan> A</text><rect x="1081.19" y="1411.03" width="292.192" height="210.08" style="fill:none;stroke:#70d008;stroke-width:4.48px;"/></g><text x="1258.25px" y="1351.07px" style="font-family:'Consolas', monospace;font-size:36px;fill:#686868;">upstream app</text><g id="app-server-b1"><text x="1483.7px" y="1582.15px" style="font-family:'Calibri-Bold', 'Calibri', sans-serif;font-weight:700;font-size:36px;fill:#15a960;">App ser<tspan x="1597.89px 1614.59px 1632.71px " y="1582.15px 1582.15px 1582.15px ">ver</tspan> B</text><g transform="matrix(1,0,0,1,-89.332,1198.87)"><text x="1614.81px" y="250.984px" style="font-family:'Consolas', monospace;font-size:30px;fill:#686868;">server</text><text x="1557.08px" y="286.111px" style="font-family:'Consolas', monospace;font-size:30px;fill:#686868;">10.1.1.6:8000</text></g><rect x="1429.88" y="1409.3" width="292.192" height="210.08" style="fill:none;stroke:#70d008;stroke-width:4.48px;"/></g><rect x="1036.59" y="1374.23" width="775.059" height="285.205" style="fill:none;stroke:#2ba8a4;stroke-width:4.48px;"/></g><g transform="matrix(1,0,0,1,-694.318,904.586)"><text x="1894.02px" y="255.124px" style="font-family:'Consolas', monospace;font-size:36px;fill:#686868;">location /</text><text x="1676.3px" y="309.276px" style="font-family:'Consolas', monospace;font-size:36px;fill:#686868;">proxy_pass http://app</text></g><g transform="matrix(1,0,0,1,574.477,969.297)"><text x="1532.82px" y="255.124px" style="font-family:'Consolas', monospace;font-size:36px;fill:#686868;">location /blog, /help</text><text x="1532.82px" y="309.276px" style="font-family:'Consolas', monospace;font-size:36px;fill:#686868;">proxy_pass http://10.1.1.100:8000;</text></g><g transform="matrix(1,0,0,1,1018.83,669.979)"><text x="1532.82px" y="255.124px" style="font-family:'Consolas', monospace;font-size:36px;fill:#686868;">error_page 502 503 504</text><text x="1532.82px" y="309.276px" style="font-family:'Consolas', monospace;font-size:36px;fill:#686868;">location /50x.html</text></g><g id="blog-server"><text x="2071.43px" y="1539.95px" style="font-family:'Calibri-Bold', 'Calibri', sans-serif;font-weight:700;font-size:36px;fill:#15a960;">Blog ser<tspan x="2190.61px 2207.3px 2225.43px " y="1539.95px 1539.95px 1539.95px ">ver</tspan></text><rect x="2027.05" y="1426.11" width="260.099" height="210.08" style="fill:none;stroke:#437dff;stroke-width:4.48px;"/></g><g id="sorry-server"><text x="2960.39px" y="1179.15px" style="font-family:'Calibri-Bold', 'Calibri', sans-serif;font-weight:700;font-size:36px;fill:#15a960;">Sorr<tspan x="3022.51px 3039.56px " y="1179.15px 1179.15px ">y </tspan>pag<tspan x="3101.47px " y="1179.15px ">e</tspan></text><rect x="2902.75" y="1063.82" width="260.099" height="210.08" style="fill:none;stroke:#b000c6;stroke-width:4.48px;"/></g><rect x="168.623" y="918.721" width="211.426" height="184.32" style="fill:none;"/><text x="56.433px" y="772.864px" style="font-family:'Calibri', sans-serif;font-size:96px;fill:#15a960;">Priv<tspan x="203.48px 248.574px 279.699px 327.465px " y="772.864px 772.864px 772.864px 772.864px ">ate </tspan>ne<tspan x="446.855px 479.011px 546.746px 597.371px " y="772.864px 772.864px 772.864px 772.864px ">twor</tspan>k</text><text x="57.789px" y="638.69px" style="font-family:'Calibri', sans-serif;font-size:96px;fill:#15a960;">In<tspan x="131.523px 162.648px 210.414px " y="638.69px 638.69px 638.69px ">ter</tspan>ne<tspan x="341.57px " y="638.69px ">t</tspan></text><g><g><circle cx="3348.32" cy="1617.26" r="27.345" style="fill:#15a960;"/><path d="M3364.62,1610.31l-19.823,19.822l-1.933,-1.934l0.003,-0.003l-9.184,-9.184l1.933,-1.934l9.185,9.185l17.885,-17.886l1.934,1.934Z" style="fill:#fff;"/></g><text x="3385.89px" y="1637.04px" style="font-family:'Calibri', sans-serif;font-size:72px;fill:#15a960;">CertSimple</text><text x="3320.67px" y="1669.28px" style="font-family:'Calibri-Italic', 'Calibri', sans-serif;font-style:italic;font-size:24px;fill:#686868;">F<tspan x="3338.42px 3359.02px 3376.59px 3395.01px 3407.16px 3426.27px 3446.88px 3459.65px 3481.84px 3498.65px 3517.08px 3534.66px 3552.23px 3564.37px 3582.81px 3603.15px 3615.3px 3636.97px 3655.38px 3673.8px 3692.92px " y="1669.28px 1669.28px 1669.28px 1669.28px 1669.28px 1669.28px 1669.28px 1669.28px 1669.28px 1669.28px 1669.28px 1669.28px 1669.28px 1669.28px 1669.28px 1669.28px 1669.28px 1669.28px 1669.28px 1669.28px 1669.28px ">AST PAINLESS EV HTTPS</tspan></text></g><text x="31.019px" y="269.449px" style="font-family:'Calibri', sans-serif;font-size:64px;fill:#002;">R<tspan x="64.644px 96.488px " y="269.449px 269.449px ">eq</tspan>uir<tspan x="199.894px 231.738px " y="269.449px 269.449px ">es</tspan>: ngin<tspan x="399.832px 427.551px " y="269.449px 269.449px ">x </tspan>1.9.5, openssl 1.02 or ne<tspan x="1077.77px 1122.96px 1154.8px " y="269.449px 269.449px 269.449px ">wer</tspan></text><text x="35.421px" y="158.339px" style="font-family:'Calibri', sans-serif;font-size:144px;fill:#15a960;">ngin<tspan x="286.226px 348.593px 384.944px 444.64px 520.577px 595.39px 639.335px " y="158.339px 158.339px 158.339px 158.339px 158.339px 158.339px 158.339px ">x.conf </tspan>with HT<tspan x="1126.18px 1196.35px 1263.15px 1318.77px " y="158.339px 158.339px 158.339px 158.339px ">TP/2</tspan>, load balancing<tspan x="2307.71px 2343.64px " y="158.339px 158.339px ">, </tspan>HTML5 SSE and GeoIP</text></svg>