<?xml version="1.0" encoding="UTF-8" standalone="no"?>
<!DOCTYPE svg PUBLIC "-//W3C//DTD SVG 1.1//EN" "http://www.w3.org/Graphics/SVG/1.1/DTD/svg11.dtd">
<svg width="100%" height="100%" viewBox="0 0 3827 1714" version="1.1" xmlns="http://www.w3.org/2000/svg" xmlns:xlink="http://www.w3.org/1999/xlink" xml:space="preserve" style="fill-rule:evenodd;clip-rule:evenodd;stroke-linecap:round;stroke-linejoin:round;stroke-miterlimit:1.5;">
    <g id="Artboard1" transform="matrix(1,0,0,1,-2.26728,-22.6142)">
        <rect x="2.267" y="22.614" width="3826.58" height="1713.17" style="fill:none;"/>
        <clipPath id="_clip1">
            <rect x="2.267" y="22.614" width="3826.58" height="1713.17"/>
        </clipPath>
        <g clip-path="url(#_clip1)">
            <g transform="matrix(2.13624e-17,0.362193,-0.456612,2.69312e-17,2319.17,-260.645)">
                <path d="M1914.47,167.795L1914.47,190.699L1870.04,155.461L1914.47,120.224L1914.47,143.128L2512.76,143.128L2512.76,120.224L2557.18,155.461L2512.76,190.699L2512.76,167.795L1914.47,167.795Z" style="fill:rgb(0,182,209);"/>
            </g>
            <g transform="matrix(-0.917574,0.640411,-0.261332,-0.374433,4039.59,-270.94)">
                <path d="M1884.42,167.795L1884.42,190.699L1870.04,155.461L1884.42,120.224L1884.42,143.128L2542.8,143.128L2542.8,120.224L2557.18,155.461L2542.8,190.699L2542.8,167.795L1884.42,167.795Z" style="fill:rgb(0,182,209);"/>
            </g>
            <g transform="matrix(-0.127425,-0.560651,0.445257,-0.101198,2722.51,2332.83)">
                <path d="M1898.03,167.795L1898.03,190.699L1870.04,155.461L1898.03,120.224L1898.03,143.128L2529.19,143.128L2529.19,120.224L2557.18,155.461L2529.19,190.699L2529.19,167.795L1898.03,167.795Z" style="fill:rgb(0,182,209);"/>
            </g>
            <g transform="matrix(-0.671759,-0.338016,0.20524,-0.407886,4548.52,1813.38)">
                <path d="M1891.44,167.795L1891.44,190.699L1870.04,155.461L1891.44,120.224L1891.44,143.128L2535.78,143.128L2535.78,120.224L2557.18,155.461L2535.78,190.699L2535.78,167.795L1891.44,167.795Z" style="fill:rgb(0,182,209);"/>
            </g>
            <g transform="matrix(1,0,0,1,740.552,242.841)">
                <g>
                    <text x="1532.82px" y="295.583px" style="font-family:'Calibri', sans-serif;font-size:96px;fill:rgb(51,51,51);">HT<tspan x="1640.73px 1687.51px 1732.04px 1769.12px " y="295.583px 295.583px 295.583px 295.583px ">TP/2</tspan></text>
                    <path d="M1610.56,330.273C1610.86,330.273 1611.06,330.339 1611.16,330.471C1611.27,330.603 1611.32,330.796 1611.32,331.05L1611.32,343.838C1611.32,343.916 1611.31,343.982 1611.27,344.035C1611.23,344.089 1611.16,344.135 1611.07,344.175C1610.98,344.214 1610.85,344.243 1610.69,344.262C1610.54,344.282 1610.35,344.292 1610.12,344.292C1609.88,344.292 1609.68,344.282 1609.52,344.262C1609.37,344.243 1609.24,344.214 1609.15,344.175C1609.06,344.135 1608.99,344.089 1608.95,344.035C1608.91,343.982 1608.89,343.916 1608.89,343.838L1608.89,332.28L1602.08,332.28L1602.08,339.634C1602.08,340.542 1602.22,341.228 1602.48,341.692C1602.75,342.155 1603.23,342.387 1603.93,342.387C1604.15,342.387 1604.35,342.365 1604.53,342.321C1604.7,342.278 1604.86,342.231 1605,342.182C1605.13,342.134 1605.25,342.087 1605.35,342.043C1605.44,341.999 1605.53,341.977 1605.61,341.977C1605.66,341.977 1605.71,341.989 1605.75,342.014C1605.8,342.038 1605.83,342.085 1605.85,342.153C1605.88,342.221 1605.9,342.314 1605.92,342.431C1605.94,342.549 1605.95,342.695 1605.95,342.871C1605.95,343.154 1605.93,343.376 1605.89,343.537C1605.85,343.698 1605.79,343.821 1605.71,343.904C1605.64,343.987 1605.52,344.062 1605.36,344.131C1605.21,344.199 1605.03,344.255 1604.83,344.299C1604.63,344.343 1604.41,344.38 1604.19,344.409C1603.97,344.438 1603.74,344.453 1603.52,344.453C1602.83,344.453 1602.25,344.363 1601.76,344.182C1601.27,344.001 1600.87,343.728 1600.56,343.362C1600.25,342.995 1600.02,342.531 1599.88,341.97C1599.74,341.408 1599.66,340.747 1599.66,339.985L1599.66,332.28L1597.82,332.28C1597.67,332.28 1597.56,332.202 1597.47,332.046C1597.38,331.889 1597.34,331.635 1597.34,331.284C1597.34,331.098 1597.35,330.942 1597.37,330.815C1597.4,330.688 1597.43,330.583 1597.47,330.5C1597.51,330.417 1597.56,330.359 1597.62,330.324C1597.68,330.29 1597.76,330.273 1597.83,330.273L1599.66,330.273L1599.66,327.138C1599.66,327.07 1599.68,327.007 1599.72,326.948C1599.75,326.889 1599.81,326.838 1599.91,326.794C1600,326.75 1600.12,326.718 1600.28,326.699C1600.44,326.679 1600.63,326.67 1600.87,326.67C1601.11,326.67 1601.31,326.679 1601.47,326.699C1601.62,326.718 1601.74,326.75 1601.83,326.794C1601.92,326.838 1601.98,326.889 1602.02,326.948C1602.06,327.007 1602.08,327.07 1602.08,327.138L1602.08,330.273L1610.56,330.273ZM1611.6,326.201C1611.6,326.767 1611.5,327.153 1611.28,327.358C1611.07,327.563 1610.67,327.666 1610.09,327.666C1609.53,327.666 1609.14,327.566 1608.93,327.365C1608.72,327.165 1608.61,326.787 1608.61,326.23C1608.61,325.664 1608.72,325.278 1608.94,325.073C1609.15,324.868 1609.55,324.765 1610.12,324.765C1610.69,324.765 1611.08,324.865 1611.29,325.066C1611.5,325.266 1611.6,325.644 1611.6,326.201Z" style="fill:rgb(51,51,51);"/>
                    <text x="1532.82px" y="344.204px" style="font-family:'Calibri', sans-serif;font-size:30px;fill:rgb(51,51,51);">Neg<tspan x="1581.03px 1613.57px 1627.66px 1637.38px 1652.31px " y="344.204px 344.204px 344.204px 344.204px 344.204px ">oated</tspan> with ALPN</text>
                </g>
            </g>
            <g transform="matrix(1,0,0,1,-1098.24,853.552)">
                <g>
                    <text x="1532.82px" y="273.817px" style="font-family:'Calibri', sans-serif;font-size:64px;fill:rgb(51,51,51);">HT<tspan x="1604.76px 1635.95px " y="273.817px 273.817px ">TP</tspan> 1.1</text>
                    <text x="1532.82px" y="322.438px" style="font-family:'Calibri', sans-serif;font-size:30px;fill:rgb(51,51,51);">Pr<tspan x="1558.3px 1573.53px 1586.53px " y="322.438px 322.438px 322.438px ">oxy</tspan> header<tspan x="1692.58px 1704.31px " y="322.438px 322.438px ">s </tspan>added f<tspan x="1802.99px 1818.81px " y="322.438px 322.438px ">or</tspan> GeoIP and log<tspan x="2005.34px 2019.46px " y="322.438px 322.438px ">gi</tspan>ng</text>
                </g>
            </g>
            <g transform="matrix(1,0,0,1,-308.754,1173.22)">
                <g>
                    <text x="1614.81px" y="250.984px" style="font-family:'Consolas', monospace;font-size:30px;fill:rgb(25,183,80);">server</text>
                    <text x="1557.08px" y="286.111px" style="font-family:'Consolas', monospace;font-size:30px;fill:rgb(25,183,80);">10.1.1.5:8000</text>
                </g>
            </g>
            <g transform="matrix(1,0,0,1,-308.754,1173.22)">
                <g>
                    <text x="1614.81px" y="250.984px" style="font-family:'Consolas', monospace;font-size:30px;fill:rgb(104,104,104);">server</text>
                    <text x="1557.08px" y="286.111px" style="font-family:'Consolas', monospace;font-size:30px;fill:rgb(104,104,104);">10.1.1.5:8000</text>
                </g>
            </g>
            <g transform="matrix(1,0,0,1,-193.607,898.199)">
                <text x="1625.36px" y="255.124px" style="font-family:'Consolas', monospace;font-size:36px;fill:rgb(104,104,104);">proxy_pass http://app</text>
            </g>
            <g transform="matrix(1,0,0,1,-196.617,1068.56)">
                <text x="1584.13px" y="255.124px" style="font-family:'Consolas', monospace;font-size:36px;fill:rgb(104,104,104);">upstream app</text>
            </g>
            <g transform="matrix(1,0,0,1,115.949,848.2)">
                <text x="1603.92px" y="255.124px" style="font-family:'Consolas', monospace;font-size:36px;fill:rgb(104,104,104);">location /</text>
            </g>
            <g transform="matrix(1,0,0,1,-1474.12,499.895)">
                <text x="1532.82px" y="295.583px" style="font-family:'Calibri', sans-serif;font-size:96px;fill:rgb(21,169,96);">Priv<tspan x="1679.87px 1724.96px 1756.09px 1803.86px " y="295.583px 295.583px 295.583px 295.583px ">ate </tspan>ne<tspan x="1923.25px 1955.4px 2023.14px 2073.76px " y="295.583px 295.583px 295.583px 295.583px ">twor</tspan>k</text>
            </g>
            <g transform="matrix(1,0,0,1,-1472.77,365.721)">
                <text x="1532.82px" y="295.583px" style="font-family:'Calibri', sans-serif;font-size:96px;fill:rgb(21,169,96);">In<tspan x="1606.56px 1637.68px 1685.45px " y="295.583px 295.583px 295.583px ">ter</tspan>ne<tspan x="1816.61px " y="295.583px ">t</tspan></text>
            </g>
            <g transform="matrix(1,0,0,1,-1495.14,-147.278)">
                <text x="1532.82px" y="328.231px" style="font-family:'Calibri', sans-serif;font-size:144px;fill:rgb(21,169,96);">ngin<tspan x="1783.63px 1846px 1882.35px 1942.04px 2017.98px 2092.79px 2136.74px " y="328.231px 328.231px 328.231px 328.231px 328.231px 328.231px 328.231px ">x.conf </tspan>with HT<tspan x="2623.58px 2693.75px 2760.55px 2816.17px " y="328.231px 328.231px 328.231px 328.231px ">TP/2</tspan>, load balancing<tspan x="3805.11px 3841.04px " y="328.231px 328.231px ">, </tspan>HTML5 SSE and GeoIP</text>
            </g>
            <g transform="matrix(1,0,0,1,-1504.54,1422.25)">
                <text x="1532.82px" y="279.259px" style="font-family:'Calibri', sans-serif;font-size:72px;fill:rgb(21,169,96);">R<tspan x="1570.65px 1606.48px " y="279.259px 279.259px ">eq</tspan>uir<tspan x="1722.81px 1758.63px " y="279.259px 279.259px ">es</tspan>: ngin<tspan x="1947.74px 1978.92px " y="279.259px 279.259px ">x </tspan>1.9.5, openssl 1.02 or ne<tspan x="2710.42px 2761.25px 2797.08px " y="279.259px 279.259px 279.259px ">wer</tspan></text>
            </g>
            <g transform="matrix(1,0,0,1,995.745,867.911)">
                <g>
                    <text x="1681.19px" y="255.124px" style="font-family:'Consolas', monospace;font-size:36px;fill:rgb(104,104,104);">location /blog, /help</text>
                    <text x="1552.53px" y="309.276px" style="font-family:'Consolas', monospace;font-size:36px;fill:rgb(104,104,104);">proxy_pass http://10.1.1.100:8000;</text>
                </g>
            </g>
            <g transform="matrix(1,0,0,1,1690.1,672.594)">
                <g>
                    <text x="1565.13px" y="255.124px" style="font-family:'Consolas', monospace;font-size:36px;fill:rgb(104,104,104);">error_page 502 503 504</text>
                    <text x="1604.71px" y="309.276px" style="font-family:'Consolas', monospace;font-size:36px;fill:rgb(104,104,104);">location /50x.html</text>
                </g>
            </g>
            <g transform="matrix(1,0,0,1,-298.097,1298.62)">
                <text x="1562.6px" y="254.755px" style="font-family:'Calibri-Bold', 'Calibri', sans-serif;font-weight:700;font-size:36px;fill:rgb(21,169,96);">App ser<tspan x="1676.79px 1693.49px 1711.61px " y="254.755px 254.755px 254.755px ">ver</tspan> A</text>
            </g>
            <g transform="matrix(1,0,0,1,49.5518,1300.01)">
                <text x="1563.41px" y="254.755px" style="font-family:'Calibri-Bold', 'Calibri', sans-serif;font-weight:700;font-size:36px;fill:rgb(21,169,96);">App ser<tspan x="1677.6px 1694.3px 1712.42px " y="254.755px 254.755px 254.755px ">ver</tspan> B</text>
            </g>
            <g transform="matrix(1,0,0,1,914.614,1161.81)">
                <text x="1575.08px" y="254.755px" style="font-family:'Calibri-Bold', 'Calibri', sans-serif;font-weight:700;font-size:36px;fill:rgb(21,169,96);">Blog ser<tspan x="1694.26px 1710.96px 1729.08px " y="254.755px 254.755px 254.755px ">ver</tspan></text>
            </g>
            <g transform="matrix(1,0,0,1,1817.78,868.011)">
                <text x="1578.88px" y="254.755px" style="font-family:'Calibri-Bold', 'Calibri', sans-serif;font-weight:700;font-size:36px;fill:rgb(21,169,96);">Sorr<tspan x="1641px 1658.05px " y="254.755px 254.755px ">y </tspan>pag<tspan x="1719.96px " y="254.755px ">e</tspan></text>
            </g>
            <g transform="matrix(1,0,0,1,180,373.235)">
                <rect x="527.891" y="576.1" width="211.426" height="184.32" style="fill:none;"/>
            </g>
            <g transform="matrix(0.587688,0,0,0.766423,255.771,1080.53)">
                <rect x="1624.48" y="395.492" width="497.189" height="274.104" style="fill:none;stroke:rgb(112,208,8);stroke-width:6.57px;"/>
            </g>
            <g transform="matrix(1,0,0,1,39.9353,1171.49)">
                <g>
                    <text x="1614.81px" y="250.984px" style="font-family:'Consolas', monospace;font-size:30px;fill:rgb(104,104,104);">server</text>
                    <text x="1557.08px" y="286.111px" style="font-family:'Consolas', monospace;font-size:30px;fill:rgb(104,104,104);">10.1.1.6:8000</text>
                </g>
            </g>
            <g transform="matrix(0.587688,0,0,0.766423,604.46,1078.79)">
                <rect x="1624.48" y="395.492" width="497.189" height="274.104" style="fill:none;stroke:rgb(112,208,8);stroke-width:6.57px;"/>
            </g>
            <g transform="matrix(0.523139,0,0,0.766423,1595.49,999.607)">
                <rect x="1624.48" y="395.492" width="497.189" height="274.104" style="fill:none;stroke:rgb(67,125,255);stroke-width:6.83px;"/>
            </g>
            <g transform="matrix(0.523139,0,0,0.766423,2489.19,704.319)">
                <rect x="1624.48" y="395.492" width="497.189" height="274.104" style="fill:none;stroke:rgb(176,0,198);stroke-width:6.83px;"/>
            </g>
            <g transform="matrix(1,0,0,1.05219,-148.236,673.939)">
                <rect x="1314.09" y="639.529" width="775.059" height="271.059" style="fill:none;stroke:rgb(43,168,164);stroke-width:4.37px;"/>
            </g>
            <g transform="matrix(1.02581,0,0,1,-56.7033,4.26326e-14)">
                <path d="M3791.74,700.472L44.434,711.073L44.422,706.589L3791.73,695.988L3791.74,700.472Z" style="fill:rgb(50,0,21);"/>
            </g>
            <g id="server" transform="matrix(1,0,0,1,180,373.235)">
                <g id="server-border" transform="matrix(0.869282,0,0,0.930769,715.719,-205.007)">
                    <rect x="747.448" y="562.548" width="207.36" height="176.188" style="fill:white;"/>
                    <path d="M954.808,738.736L747.448,738.736L747.448,562.548L954.808,562.548L954.808,738.736ZM752.606,567.365L752.606,733.918L949.65,733.918L949.65,567.365L752.606,567.365Z" style="fill:rgb(255,18,119);"/>
                </g>
                <g transform="matrix(1,0,0,1,84.0282,-581.421)">
                    <g id="server1">
                        <text x="1294.99px" y="927.417px" style="font-family:'Consolas-Bold', 'Consolas', monospace;font-weight:700;font-size:24px;fill:rgb(51,51,51);">server</text>
                        <text x="1294.99px" y="961.417px" style="font-family:'Consolas', monospace;font-size:18px;fill:rgb(51,51,51);">listen 80</text>
                        <text x="1294.99px" y="978.417px" style="font-family:'Consolas', monospace;font-size:18px;fill:rgb(51,51,51);">server_name</text>
                        <text x="1294.99px" y="995.417px" style="font-family:'Consolas', monospace;font-size:18px;fill:rgb(51,51,51);">example.com</text>
                        <text x="1294.99px" y="1029.42px" style="font-family:'ArialMT', 'Arial', sans-serif;font-size:18px;fill:rgb(51,51,51);">Redirect</text>
                        <text x="1294.99px" y="1046.42px" style="font-family:'ArialMT', 'Arial', sans-serif;font-size:18px;fill:rgb(51,51,51);">permanently</text>
                    </g>
                </g>
            </g>
            <g id="server2" transform="matrix(1,0,0,1,373.984,372.88)">
                <g id="server-border1" transform="matrix(0.869282,0,0,0.930769,715.719,-205.007)">
                    <rect x="747.448" y="562.548" width="207.36" height="176.188" style="fill:white;"/>
                    <path d="M954.808,738.736L747.448,738.736L747.448,562.548L954.808,562.548L954.808,738.736ZM752.606,567.365L752.606,733.918L949.65,733.918L949.65,567.365L752.606,567.365Z" style="fill:rgb(255,18,119);"/>
                </g>
                <g transform="matrix(1,0,0,1,84.0282,-581.421)">
                    <g id="server3">
                        <text x="1294.99px" y="927.417px" style="font-family:'Consolas-Bold', 'Consolas', monospace;font-weight:700;font-size:24px;fill:rgb(51,51,51);">server</text>
                        <text x="1294.99px" y="961.417px" style="font-family:'Consolas', monospace;font-size:18px;fill:rgb(51,51,51);">listen 80</text>
                        <text x="1294.99px" y="978.417px" style="font-family:'Consolas', monospace;font-size:18px;fill:rgb(51,51,51);">server_name</text>
                        <text x="1294.99px" y="995.417px" style="font-family:'Consolas', monospace;font-size:18px;fill:rgb(51,51,51);">www.example.com</text>
                        <text x="1294.99px" y="1029.42px" style="font-family:'ArialMT', 'Arial', sans-serif;font-size:18px;fill:rgb(51,51,51);">Redirect</text>
                        <text x="1294.99px" y="1046.42px" style="font-family:'ArialMT', 'Arial', sans-serif;font-size:18px;fill:rgb(51,51,51);">permanently</text>
                    </g>
                </g>
            </g>
            <g id="server4" transform="matrix(1,0,0,1,576.19,372.88)">
                <g id="server-border2" transform="matrix(0.869282,0,0,0.930769,715.719,-205.007)">
                    <rect x="747.448" y="562.548" width="207.36" height="176.188" style="fill:white;"/>
                    <path d="M954.808,738.736L747.448,738.736L747.448,562.548L954.808,562.548L954.808,738.736ZM752.606,567.365L752.606,733.918L949.65,733.918L949.65,567.365L752.606,567.365Z" style="fill:rgb(255,18,119);"/>
                </g>
                <g transform="matrix(1,0,0,1,84.0282,-581.421)">
                    <g id="server5">
                        <text x="1294.99px" y="927.417px" style="font-family:'Consolas-Bold', 'Consolas', monospace;font-weight:700;font-size:24px;fill:rgb(51,51,51);">server</text>
                        <text x="1294.99px" y="961.417px" style="font-family:'Consolas', monospace;font-size:18px;fill:rgb(51,51,51);">listen 443</text>
                        <text x="1294.99px" y="978.417px" style="font-family:'Consolas', monospace;font-size:18px;fill:rgb(51,51,51);">server_name</text>
                        <text x="1294.99px" y="995.417px" style="font-family:'Consolas', monospace;font-size:18px;fill:rgb(51,51,51);">www.example.com</text>
                        <text x="1294.99px" y="1029.42px" style="font-family:'ArialMT', 'Arial', sans-serif;font-size:18px;fill:rgb(51,51,51);">Redirect</text>
                        <text x="1294.99px" y="1046.42px" style="font-family:'ArialMT', 'Arial', sans-serif;font-size:18px;fill:rgb(51,51,51);">permanently</text>
                    </g>
                </g>
            </g>
            <g id="server6" transform="matrix(1,0,0,1,777.63,374.102)">
                <g id="server-border3" transform="matrix(3.78877,0,0,0.930769,-1466.45,-205.007)">
                    <rect x="747.448" y="562.548" width="207.36" height="176.188" style="fill:white;"/>
                    <path d="M954.808,738.736L747.448,738.736L747.448,562.548L954.808,562.548L954.808,738.736ZM748.632,567.365L748.632,733.918L953.625,733.918L953.625,567.365L748.632,567.365Z" style="fill:rgb(255,18,119);"/>
                </g>
                <g transform="matrix(1,0,0,1,84.0282,-581.421)">
                    <g id="server7">
                        <text x="1294.99px" y="927.417px" style="font-family:'Consolas-Bold', 'Consolas', monospace;font-weight:700;font-size:24px;fill:rgb(51,51,51);">server</text>
                        <text x="1294.99px" y="961.417px" style="font-family:'Consolas', monospace;font-size:18px;fill:rgb(51,51,51);">listen 443</text>
                        <text x="1294.99px" y="978.417px" style="font-family:'Consolas', monospace;font-size:18px;fill:rgb(51,51,51);">server_name</text>
                        <text x="1294.99px" y="995.417px" style="font-family:'Consolas', monospace;font-size:18px;fill:rgb(51,51,51);">example.com</text>
                        <text x="1294.99px" y="1029.42px" style="font-family:'ArialMT', 'Arial', sans-serif;font-size:18px;fill:rgb(51,51,51);">Handles location mappings, HTTPS termination, aand dding required headers.</text>
                    </g>
                </g>
            </g>
            <g id="chrome" transform="matrix(1.33021,0,0,1.33021,2042.85,315.946)">
                <path id="Shape" d="M31.584,41.348C37.005,41.348 41.421,36.94 41.421,31.528C41.421,26.059 37.005,21.651 31.584,21.651C26.105,21.651 21.689,26.059 21.689,31.528C21.689,36.94 26.105,41.348 31.584,41.348Z" style="fill:rgb(101,101,101);"/>
                <path id="Shape1" d="M31.584,17.689L59.924,17.689C54.838,7.254 44.05,0 31.584,0C22.192,0 13.807,4.074 8.049,10.491L18.167,28.068C19.733,22.097 25.099,17.689 31.584,17.689Z" style="fill:rgb(101,101,101);"/>
                <path id="Shape2" d="M5.422,13.838C2.013,18.916 0,24.943 0,31.528C0,46.706 10.788,59.372 25.099,62.329L35.272,44.808C34.099,45.143 32.813,45.31 31.584,45.31C26.44,45.31 21.968,42.52 19.621,38.391C19.565,38.336 19.508,38.28 19.453,38.168L5.422,13.838Z" style="fill:rgb(101,101,101);"/>
                <path id="Shape3" d="M43.433,38.503L29.347,62.944C30.074,63 30.8,63 31.584,63C48.968,63 63.111,48.882 63.111,31.528C63.111,28.068 62.551,24.776 61.546,21.651L41.253,21.651C43.768,24.162 45.39,27.621 45.39,31.528C45.39,34.039 44.664,36.494 43.433,38.503Z" style="fill:rgb(101,101,101);"/>
            </g>
            <g id="Microsoft.-Edge.-logo" transform="matrix(1.3693,0,0,1.3693,2142.67,312.897)">
                <path d="M11.771,16.419C4.319,20.999 0.06,27.507 0.06,27.507C0.06,27.507 1.164,13.861 11.771,5.876C15.989,2.701 21.756,0.04 29.514,0.04C32.428,0.04 38.538,0.541 44.043,3.891C49.547,7.242 51.771,10.048 54.251,14.157C55.321,15.93 56.193,18.208 56.736,20.405C57.755,24.522 57.879,29.446 57.879,29.446L57.879,35.931L18.54,35.931C18.54,35.931 17.579,48.98 35.671,48.98C41.963,48.98 44.166,48.004 46.236,47.399C49.475,46.452 52.603,44.341 52.603,44.341L52.609,57.378C52.609,57.378 45.205,61.881 34.019,61.881C30.869,61.881 27.55,61.62 24.348,60.595C21.551,59.699 15.692,57.281 11.771,51.616C10.384,49.613 8.881,46.946 8.136,44.341C7.331,41.524 7.341,38.788 7.341,37.281C7.341,31.643 9.292,26.26 12.678,22.368C17.063,17.328 22.605,15.109 22.605,15.109C22.605,15.109 20.8,17.187 19.69,19.774C18.579,22.361 18.275,24.964 18.275,24.964L40.488,24.964C40.488,24.964 41.787,11.86 27.919,11.86C22.694,11.86 16.276,13.65 11.771,16.419Z" style="fill:rgb(101,101,101);"/>
            </g>
            <g id="Safari" transform="matrix(1.38304,0,0,1.38304,2244.75,309.261)">
                <circle id="Face" cx="32" cy="32" r="32" style="fill:rgb(101,101,101);"/>
                <path id="Smaller.-Notches" d="M31.692,2.421L31.692,5.498L32.308,5.498L32.308,2.421L31.692,2.421ZM34.273,2.507L34.005,5.572L34.618,5.626L34.886,2.56L34.273,2.507ZM36.837,2.817L36.302,5.847L36.908,5.954L37.443,2.924L36.837,2.817ZM39.363,3.35L38.567,6.322L39.161,6.481L39.958,3.509L39.363,3.35ZM41.834,4.101L40.781,6.992L41.36,7.203L42.412,4.311L41.834,4.101ZM44.23,5.064L42.929,7.853L43.487,8.113L44.787,5.324L44.23,5.064ZM46.532,6.232L44.994,8.897L45.527,9.205L47.065,6.54L46.532,6.232ZM48.724,7.597L46.959,10.118L47.464,10.471L49.228,7.95L48.724,7.597ZM50.789,9.148L48.811,11.505L49.283,11.9L51.261,9.543L50.789,9.148ZM52.711,10.872L50.535,13.048L50.97,13.483L53.146,11.307L52.711,10.872ZM54.475,12.758L52.118,14.736L52.514,15.207L54.871,13.229L54.475,12.758ZM56.068,14.79L53.548,16.555L53.901,17.059L56.421,15.294L56.068,14.79ZM57.478,16.953L54.814,18.492L55.121,19.025L57.786,17.486L57.478,16.953ZM58.694,19.231L55.906,20.531L56.166,21.089L58.954,19.789L58.694,19.231ZM59.707,21.606L56.816,22.659L57.026,23.237L59.918,22.185L59.707,21.606ZM60.509,24.061L57.537,24.857L57.696,25.452L60.668,24.655L60.509,24.061ZM61.094,26.576L58.064,27.11L58.171,27.716L61.201,27.182L61.094,26.576ZM61.458,29.132L58.393,29.4L58.446,30.013L61.512,29.745L61.458,29.132ZM61.597,31.711L58.52,31.711L58.52,32.326L61.597,32.326L61.597,31.711ZM61.512,34.291L58.446,34.023L58.393,34.636L61.458,34.904L61.512,34.291ZM61.201,36.855L58.171,36.321L58.064,36.927L61.094,37.461L61.201,36.855ZM60.668,39.381L57.696,38.585L57.537,39.18L60.509,39.976L60.668,39.381ZM59.918,41.852L57.026,40.8L56.816,41.378L59.707,42.43L59.918,41.852ZM58.954,44.248L56.166,42.947L55.906,43.505L58.694,44.806L58.954,44.248ZM57.786,46.551L55.121,45.012L54.814,45.545L57.478,47.083L57.786,46.551ZM56.421,48.743L53.901,46.978L53.548,47.482L56.068,49.247L56.421,48.743ZM54.871,50.807L52.514,48.83L52.118,49.301L54.475,51.279L54.871,50.807ZM53.146,52.729L50.97,50.554L50.535,50.989L52.711,53.164L53.146,52.729ZM51.261,54.493L49.283,52.136L48.811,52.532L50.789,54.889L51.261,54.493ZM49.228,56.087L47.464,53.566L46.959,53.919L48.724,56.44L49.228,56.087ZM47.065,57.497L45.527,54.832L44.994,55.14L46.532,57.804L47.065,57.497ZM44.787,58.713L43.487,55.924L42.929,56.184L44.23,58.973L44.787,58.713ZM42.412,59.726L41.36,56.834L40.781,57.045L41.834,59.936L42.412,59.726ZM39.958,60.528L39.161,57.555L38.567,57.715L39.363,60.687L39.958,60.528ZM37.443,61.113L36.908,58.082L36.302,58.189L36.837,61.219L37.443,61.113ZM34.886,61.476L34.618,58.411L34.005,58.465L34.273,61.53L34.886,61.476ZM32.308,61.616L32.308,58.539L31.692,58.539L31.692,61.616L32.308,61.616ZM29.727,61.53L29.995,58.465L29.382,58.411L29.114,61.476L29.727,61.53ZM27.163,61.219L27.698,58.189L27.092,58.082L26.557,61.113L27.163,61.219ZM24.637,60.687L25.433,57.715L24.839,57.555L24.042,60.528L24.637,60.687ZM22.166,59.936L23.219,57.045L22.64,56.834L21.588,59.726L22.166,59.936ZM19.77,58.973L21.071,56.184L20.513,55.924L19.213,58.713L19.77,58.973ZM17.468,57.804L19.006,55.14L18.473,54.832L16.935,57.497L17.468,57.804ZM15.276,56.44L17.041,53.919L16.536,53.566L14.772,56.087L15.276,56.44ZM13.211,54.889L15.189,52.532L14.717,52.136L12.739,54.493L13.211,54.889ZM11.289,53.164L13.465,50.989L13.03,50.554L10.854,52.729L11.289,53.164ZM9.525,51.279L11.882,49.301L11.486,48.83L9.129,50.807L9.525,51.279ZM7.932,49.247L10.452,47.482L10.099,46.978L7.579,48.743L7.932,49.247ZM6.522,47.083L9.186,45.545L8.879,45.012L6.214,46.551L6.522,47.083ZM5.306,44.806L8.094,43.505L7.834,42.947L5.046,44.248L5.306,44.806ZM4.293,42.43L7.184,41.378L6.974,40.8L4.082,41.852L4.293,42.43ZM3.491,39.976L6.463,39.18L6.304,38.585L3.332,39.381L3.491,39.976ZM2.906,37.461L5.936,36.927L5.829,36.321L2.799,36.855L2.906,37.461ZM2.542,34.904L5.607,34.636L5.554,34.023L2.488,34.291L2.542,34.904ZM2.403,32.326L5.48,32.326L5.48,31.711L2.403,31.711L2.403,32.326ZM2.488,29.745L5.554,30.013L5.607,29.4L2.542,29.132L2.488,29.745ZM2.799,27.182L5.829,27.716L5.936,27.11L2.906,26.576L2.799,27.182ZM3.332,24.655L6.304,25.452L6.463,24.857L3.491,24.061L3.332,24.655ZM4.082,22.185L6.974,23.237L7.184,22.659L4.293,21.606L4.082,22.185ZM5.046,19.789L7.834,21.089L8.094,20.531L5.306,19.231L5.046,19.789ZM6.214,17.486L8.879,19.025L9.186,18.492L6.522,16.953L6.214,17.486ZM7.579,15.294L10.099,17.059L10.452,16.555L7.932,14.79L7.579,15.294ZM9.129,13.229L11.486,15.207L11.882,14.736L9.525,12.758L9.129,13.229ZM10.854,11.307L13.03,13.483L13.465,13.048L11.289,10.872L10.854,11.307ZM12.739,9.543L14.717,11.9L15.189,11.505L13.211,9.148L12.739,9.543ZM14.772,7.95L16.536,10.471L17.041,10.118L15.276,7.597L14.772,7.95ZM16.935,6.54L18.473,9.205L19.006,8.897L17.468,6.232L16.935,6.54ZM19.213,5.324L20.513,8.113L21.071,7.853L19.77,5.064L19.213,5.324ZM21.588,4.311L22.64,7.203L23.219,6.992L22.166,4.101L21.588,4.311ZM24.042,3.509L24.839,6.481L25.433,6.322L24.637,3.35L24.042,3.509ZM26.557,2.924L27.092,5.954L27.698,5.847L27.163,2.817L26.557,2.924ZM29.114,2.56L29.382,5.626L29.995,5.572L29.727,2.507L29.114,2.56Z" style="fill:rgb(142,142,142);"/>
                <path id="Larger.-Notches" d="M31.704,2.462L31.704,8L32.32,8L32.32,2.462L31.704,2.462ZM36.84,2.857L35.879,8.311L36.485,8.418L37.446,2.964L36.84,2.857ZM41.83,4.138L39.935,9.343L40.514,9.553L42.408,4.349L41.83,4.138ZM46.521,6.267L43.752,11.063L44.284,11.371L47.054,6.574L46.521,6.267ZM50.771,9.177L47.211,13.42L47.682,13.816L51.242,9.573L50.771,9.177ZM54.451,12.782L50.209,16.342L50.604,16.813L54.847,13.253L54.451,12.782ZM57.45,16.97L52.653,19.74L52.961,20.272L57.757,17.503L57.45,16.97ZM59.675,21.616L54.471,23.51L54.681,24.089L59.886,22.194L59.675,21.616ZM61.06,26.578L55.606,27.539L55.713,28.145L61.167,27.184L61.06,26.578ZM61.563,31.704L56.024,31.704L56.024,32.32L61.563,32.32L61.563,31.704ZM61.167,36.84L55.713,35.879L55.606,36.485L61.06,37.446L61.167,36.84ZM59.886,41.83L54.681,39.935L54.471,40.514L59.675,42.408L59.886,41.83ZM57.757,46.521L52.961,43.752L52.653,44.284L57.45,47.054L57.757,46.521ZM54.847,50.771L50.604,47.211L50.209,47.682L54.451,51.242L54.847,50.771ZM51.242,54.451L47.682,50.209L47.211,50.604L50.771,54.847L51.242,54.451ZM47.054,57.45L44.284,52.653L43.752,52.961L46.521,57.757L47.054,57.45ZM42.408,59.675L40.514,54.471L39.935,54.681L41.83,59.886L42.408,59.675ZM37.446,61.06L36.485,55.606L35.879,55.713L36.84,61.167L37.446,61.06ZM32.32,61.563L32.32,56.024L31.704,56.024L31.704,61.563L32.32,61.563ZM27.184,61.167L28.145,55.713L27.539,55.606L26.578,61.06L27.184,61.167ZM22.194,59.886L24.089,54.681L23.51,54.471L21.616,59.675L22.194,59.886ZM17.503,57.757L20.272,52.961L19.74,52.653L16.97,57.45L17.503,57.757ZM13.253,54.847L16.813,50.604L16.342,50.209L12.782,54.451L13.253,54.847ZM9.573,51.242L13.816,47.682L13.42,47.211L9.177,50.771L9.573,51.242ZM6.574,47.054L11.371,44.284L11.063,43.752L6.267,46.521L6.574,47.054ZM4.349,42.408L9.553,40.514L9.343,39.935L4.138,41.83L4.349,42.408ZM2.964,37.446L8.418,36.485L8.311,35.879L2.857,36.84L2.964,37.446ZM2.462,32.32L8,32.32L8,31.704L2.462,31.704L2.462,32.32ZM2.857,27.184L8.311,28.145L8.418,27.539L2.964,26.578L2.857,27.184ZM4.138,22.194L9.343,24.089L9.553,23.51L4.349,21.616L4.138,22.194ZM6.267,17.503L11.063,20.272L11.371,19.74L6.574,16.97L6.267,17.503ZM9.177,13.253L13.42,16.813L13.816,16.342L9.573,12.782L9.177,13.253ZM12.782,9.573L16.342,13.816L16.813,13.42L13.253,9.177L12.782,9.573ZM16.97,6.574L19.74,11.371L20.272,11.063L17.503,6.267L16.97,6.574ZM21.616,4.349L23.51,9.553L24.089,9.343L22.194,4.138L21.616,4.349ZM26.578,2.964L27.539,8.418L28.145,8.311L27.184,2.857L26.578,2.964Z" style="fill:rgb(142,142,142);"/>
                <g id="Needle" transform="matrix(0.707107,0.707107,-0.707107,0.707107,51.5814,6.32658)">
                    <path id="Top.-Point" d="M4.308,0L8.615,32L0,32L4.308,0Z" style="fill:rgb(176,176,176);"/>
                    <g id="Bottom.-Point" transform="matrix(1,0,0,-1,0,96)">
                        <path d="M4.308,32L8.615,64L0,64L4.308,32Z" style="fill:white;"/>
                    </g>
                </g>
            </g>
            <g id="firefox" transform="matrix(1.26599,0,0,1.26599,2358.31,306.146)">
                <path id="Shape4" d="M64.523,32.065C64.523,48.894 52.235,62.717 35.152,62.717C18.07,62.717 5.361,49.173 5.361,32.347C5.361,15.523 19.947,1.851 35.221,2.412C52.168,3.026 64.523,15.242 64.523,32.065L64.523,32.065ZM35.152,0.065C17.173,0.065 2.548,14.485 2.548,32.203C2.548,49.916 17.173,64.339 35.152,64.339C53.135,64.339 67.76,49.916 67.76,32.203C67.756,14.483 53.132,0.065 35.152,0.065Z" style="fill:rgb(239,239,239);"/>
                <path id="Shape5" d="M4.437,18.794L4.709,12.6C4.709,12.6 6.061,8.15 8.218,7.48L11.46,14.216L20.503,14.216C20.503,14.216 24.828,9.902 29.552,10.439C29.552,10.439 25.098,15.291 25.098,16.366L27.388,19.74C27.388,19.74 34.948,20.141 34.948,20.679L34.816,22.162C34.816,22.162 33.328,24.32 27.388,28.226C27.388,28.226 28.604,32.136 27.93,33.077L24.42,32.136C24.42,32.136 22.259,33.885 22.259,34.694C22.259,34.694 24.826,39.274 27.255,40.084C27.255,40.084 29.007,41.025 36.703,38.869L39.403,38.6C39.403,38.6 43.723,41.022 43.723,41.695C43.723,41.695 42.867,43.075 39.586,43.332L33.874,47.218L26.177,46.945C26.177,46.945 41.972,62.58 52.231,41.429L53.314,47.49C53.314,47.49 57.77,44.122 55.473,32.536L58.848,35.497C58.848,35.497 60.064,28.223 57.227,22.296L60.87,24.181C60.87,24.181 59.519,17.58 50.074,13.673L46.559,12.463L54.26,11.115C54.26,11.115 48.59,7.628 43.254,7.618C43.254,7.618 56.146,4.779 65.191,17.04L62.894,8.688C62.894,8.688 68.433,20.004 69.244,28.76C69.244,28.76 70.998,25.526 70.863,24.452C70.863,24.452 70.729,31.591 69.65,32.671C69.65,32.671 72.617,60.56 43.051,68.1C43.051,68.1 11.596,75.917 1.197,43.585C1.197,43.586 -2.716,32.942 4.437,18.793L4.437,18.794Z" style="fill:rgb(101,101,101);"/>
            </g>
            <g transform="matrix(0.226723,0,0,0.226723,3251.97,1556.3)">
                <g transform="matrix(1,0,0,1,-629.498,-56.3347)">
                    <circle cx="200" cy="200" r="200" style="fill:rgb(21,169,96);"/>
                    <path d="M319.173,149.216L174.193,294.194L160.051,280.052L160.072,280.03L92.899,212.855L107.041,198.713L174.215,265.888L305.031,135.074L319.173,149.216Z" style="fill:white;"/>
                </g>
                <g transform="matrix(4.41067,0,0,4.41067,-15085.7,-7146.62)">
                    <text x="3377.47px" y="1692.75px" style="font-family:'Calibri', sans-serif;font-size:128px;fill:rgb(21,169,96);">CertSimple</text>
                </g>
                <g transform="matrix(4.41067,0,0,4.41067,-15118.5,-6832.29)">
                    <text x="3338.3px" y="1678.78px" style="font-family:'Calibri-BoldItalic', 'Calibri', sans-serif;font-weight:700;font-style:italic;font-size:36px;fill:rgb(104,104,104);">F A S T   P A I N L E S S   E V   H T T P S</text>
                </g>
            </g>
        </g>
    </g>
</svg>
