<?xml version="1.0" encoding="UTF-8" standalone="no"?>
<svg width="503px" height="581px" viewBox="0 0 503 581" version="1.1" xmlns="http://www.w3.org/2000/svg" xmlns:xlink="http://www.w3.org/1999/xlink" xmlns:sketch="http://www.bohemiancoding.com/sketch/ns">
    <!-- Generator: Sketch 3.5.1 (25234) - http://www.bohemiancoding.com/sketch -->
    <title>certsimple-stickers</title>
    <desc>Created with Sketch.</desc>
    <defs>
        <radialGradient cx="47.8926106%" cy="20.3919351%" fx="47.8926106%" fy="20.3919351%" r="86.5666042%" id="radialGradient-1">
            <stop stop-color="#3C0A26" offset="0%"></stop>
            <stop stop-color="#4F092F" offset="24.220743%"></stop>
            <stop stop-color="#AC6B8B" offset="100%"></stop>
        </radialGradient>
        <linearGradient x1="50%" y1="0%" x2="50%" y2="55.3088303%" id="linearGradient-2">
            <stop stop-color="#4E1635" offset="0%"></stop>
            <stop stop-color="#A53B6F" offset="100%"></stop>
        </linearGradient>
    </defs>
    <g id="Page-1" stroke="none" stroke-width="1" fill="none" fill-rule="evenodd" sketch:type="MSPage">
        <g id="certsimple-stickers" sketch:type="MSLayerGroup">
            <polygon id="hex" fill="#454545" sketch:type="MSShapeGroup" points="251.304854 0.208333333 502.434859 145.198309 502.434859 435.178261 251.304854 580.168237 0.174848956 435.178261 0.174848956 145.198309 "></polygon>
            <g id="penny" transform="translate(12.000000, 73.000000)">
                <path d="M41.5798275,393.01164 C41.8411165,391.016263 42.1326797,388.803043 42.4607137,386.330546 C44.2610531,372.760814 46.9583334,361.93712 54.053752,343.433139 C61.1491705,324.929159 67.000068,318.263266 67.0000678,318.263265 C63.4083046,296.643853 66.0184937,309.904053 54.0537516,198.664029 C42.0890096,87.4240044 126.332303,111.701789 126.332303,111.701789 L207.118747,186.349609 L207.33351,222.754584 L208.664758,263.800354 C208.664758,263.800354 208.879521,263.325399 215.948785,274.87163 C223.018049,286.41786 237.389228,286.192084 237.389228,286.192084 C237.389228,286.192084 249.675765,279.691408 278.353514,301.035158 C307.031264,322.378908 307.704143,334.539789 317.105483,358.410158 C326.506823,382.280528 320.300795,449.93944 320.300795,449.93944 L316.216683,462.763172 L239.304854,507.168237 L41.5798275,393.01164 Z" id="back-of-body" fill="#C3C3C3" sketch:type="MSShapeGroup"></path>
                <path d="M251.115759,500.349208 L241.628493,505.826684 L239.338378,507.091295 L41.6425779,392.257799 C43.9199219,374.828112 46.9583334,361.93712 54.053752,343.433139 C61.1491705,324.929159 67.000068,318.263266 67.0000678,318.263265 C63.4083046,296.643853 126.332303,111.701789 126.332303,111.701789 L207.118747,186.349609 L207.33351,222.754584 L208.664758,263.800354 C208.664758,263.800354 208.879521,263.325399 215.948785,274.87163 C223.018049,286.41786 211.522786,318.043422 221.484375,359.625007 C229.952252,394.971553 240.354995,415.132893 239.338379,444.531257 C239.15905,449.717052 240.121501,465.48358 239.338379,469.855476 C234.558048,496.542379 248.688033,499.961481 251.115759,500.349208 Z" id="hex" fill="#FCFCFC" sketch:type="MSShapeGroup"></path>
                <path d="M253.389364,499.036541 L239.552258,507.025398 L50.5182147,398.17222 L41.1740032,392.777337 C43.9762615,370.263827 46.9597173,361.933511 54.053752,343.433139 C61.1491705,324.929159 67.000068,318.263266 67.0000678,318.263265 C63.4083046,296.643853 66.0184937,309.904053 54.0537516,198.664029 C42.0890096,87.4240044 126.332303,111.701789 126.332303,111.701789 L207.118747,186.349609 L214.605469,274.39844 C214.605469,274.39844 207.65959,270.80057 214.605469,282.375002 C226.21483,301.720541 251.686188,331.115899 255.96875,359.621096 C262.011719,399.843752 261.982893,401.700605 263.498047,429.205065 C264.757297,452.064115 261.023438,494.382799 261.023438,494.382799 L253.389364,499.036541 Z" id="hex" fill="#EFEEEE" sketch:type="MSShapeGroup"></path>
                <path d="M67.0475633,318.417453 C66.2178122,319.437654 68.7300749,336.427702 72.5976562,349.21245 C77.2709674,364.660632 83.5574205,376.282145 83.5574205,376.282145 C83.5574205,376.282145 99.1566039,399.012539 123.493585,402.693787 C147.830565,406.375034 170.697256,394.918287 182.133352,382.541918 C193.569449,370.165548 195.487625,365.988731 201.796499,352.512356 C208.105373,339.035982 208.758371,335.871026 212.209717,318.417453 C215.661062,300.963881 210.857815,279.125576 210.857815,279.125576 L210.826152,272.79284 C210.826152,272.79284 220.966786,306.591756 218.773736,328.523675 C216.580686,350.455594 202.296234,380.974901 190.750007,391.190232 C179.203779,401.405563 146.382812,420.728509 123.493583,417.095696 C100.604354,413.462884 82.5331692,391.190233 82.5331692,391.190233 C82.5331692,391.190233 66.0600302,365.743131 64.264601,345.996521 C62.6759101,328.523675 62.6759101,324.223609 62.6759101,324.223609 C62.6759101,324.223609 68.8799269,316.164513 67.0475633,318.417453 Z" id="collar" fill="#15A960" sketch:type="MSShapeGroup"></path>
                <path d="M85.5226773,195.061526 C85.5226773,195.061526 70.2400099,190.803004 64.0030289,176.084481 C61.9835857,171.318838 59.3512158,174.455065 58.5246756,174.792392 C56.7984745,175.496889 58.4493585,179.114678 58.4493585,179.114678 C58.4493585,179.114678 99.7116208,296.821066 93.6406038,313.342727 C92.3368288,316.890819 93.0470983,318.136945 91.9885659,318.568206 C88.7177538,319.900781 89.5250472,320.783585 89.5250472,320.783585 C89.5250472,320.783585 94.9389475,341.460249 118.820673,342.327718 C142.702398,343.195187 150.306646,324.955762 150.306646,324.955762 C150.306646,324.955762 159.165384,292.618629 164.245257,280.480976 C169.325131,268.343323 177.905273,232.732422 177.905273,232.732422 C177.905273,232.732422 199.073688,183.88649 199.442284,182.958007 C201.412068,177.996172 199.207945,178.171927 199.442282,175.74289 C199.72047,172.85932 194.670862,172.780501 192.847075,175.013945 C191.023288,177.24739 177.386392,194.633565 167.73013,194.941457 C158.073867,195.249349 144.008482,195.488395 120.819956,194.527112 C97.6314303,193.56583 85.5226773,195.061526 85.5226773,195.061526 Z" id="mouth" fill="url(#radialGradient-1)" sketch:type="MSShapeGroup"></path>
                <path d="M98.2631006,10.3465031 C97.2855862,12.5093763 96.1612331,14.7682959 94.8710942,17.1640604 C87.7541755,30.3800488 79.3757009,33.0302146 76.6435551,37.508787 C73.869141,42.0566462 77.5005095,44.1038738 78.0820317,43.8730524 C103.416507,33.8171348 117.460294,41.8494495 125.443235,40.3321205 C152.722287,32.5611386 167.905396,46.4440824 167.905396,46.4440824 C167.905396,46.4440824 180.547913,51.1185034 200.380981,67.8765306 C220.21405,84.6345577 226.517456,108.334055 218.310669,122.822284 C210.103882,137.310513 222.408569,149.501418 222.408569,149.501418 C222.408569,149.501418 228.522461,152.065604 212.63623,171.299786 C196.75,190.533968 164.63147,297.052406 164.63147,297.052406 L155.611694,324.386343 C155.611694,324.386343 145.778931,347.725412 120.323608,347.725426 C94.8682861,347.725441 85.991333,323.998413 85.991333,323.998413 L80.9623413,313.760911 C80.9623413,313.760911 80.4295044,251.881935 57.8690796,203.090792 C35.3086548,154.299649 52.3127453,204.562735 40.1563727,158.704444 C28,112.846153 32.1445324,107.113278 32.1445324,107.113278 C32.1445324,107.113278 10.9632821,84.8363995 0.845306013,66.3682007 L98.2631006,10.3465031 Z M120.787908,194.526436 C97.5927405,193.551147 85.4817453,195.03901 85.4817453,195.03901 C85.4817453,195.03901 70.1924758,190.772201 63.9448333,176.053677 C61.9219381,171.288035 59.2908061,174.421826 58.4642572,174.758557 C56.738038,175.461809 58.3915734,179.07967 58.3915734,179.07967 C58.3915734,179.07967 99.7368489,296.780761 93.674388,313.294385 C92.3724505,316.840752 93.0836702,318.08699 92.0251263,318.517487 C88.7542784,319.847704 89.5623243,320.730775 89.5623243,320.730775 C89.5623243,320.730775 94.9903283,341.40538 118.878819,342.287306 C142.767309,343.169232 150.362346,324.939235 150.362346,324.939235 C150.362346,324.939235 159.203548,292.615972 164.277298,280.484605 C169.351048,268.353237 184.276012,212.703352 192.490233,195.152346 C200.704454,177.601341 199.419223,175.795446 199.419223,175.795446 C199.419223,175.795446 194.644739,172.830895 192.821847,175.062637 C190.998955,177.294378 177.369172,194.667639 167.710578,194.969514 C158.051984,195.271389 143.983076,195.501725 120.787908,194.526436 Z" id="head-background" stroke="#979797" stroke-width="3" fill="#FFFFFF" sketch:type="MSShapeGroup"></path>
                <path d="M146.641869,303.526368 C142.445157,308.570737 136.175088,308.595984 137.14917,310.206261 C139.4151,313.952125 146.961334,317.72275 149.761475,317.72275 C152.561615,317.72275 156.30246,304.406569 156.30246,292.452271 C156.30246,285.636904 152.207641,296.836413 146.641869,303.526368 Z" id="right-tooth" fill="#F3F3F3" sketch:type="MSShapeGroup"></path>
                <path d="M93.8439663,306.350191 C89.6472545,311.39456 83.377186,311.419806 84.3512675,313.030084 C86.6171977,316.775948 94.1634319,320.546573 96.9635722,320.546573 C99.7637126,320.546573 103.504557,307.230392 103.504557,295.276093 C103.504557,288.460727 99.4097385,299.660236 93.8439663,306.350191 Z" id="left-tooth" stroke="#979797" stroke-width="0.5" fill="#FCFCFC" sketch:type="MSShapeGroup" transform="translate(93.877279, 306.850210) scale(-1, 1) translate(-93.877279, -306.850210) "></path>
                <path d="M145.066879,37.418518 C135.242673,37.8766574 130.730408,46.3257775 130.730408,46.3257775 C130.730408,46.3257775 120.101135,70.6140512 137.118958,91.7301025 C154.13678,112.846154 170.39105,107.830576 176.029785,119.45197 C181.668521,131.073364 183.90698,140.237868 193.970459,146.032058 C204.033938,151.826247 203.124817,165.497343 203.124817,165.497343 L209.038208,172.650663 L217.926147,165.084651 L224.858521,150.599177 C224.858521,150.599177 228.100048,132.710812 227.470517,119.451971 C226.840987,106.19313 222.276733,96.222938 222.276733,96.222938 C222.276733,96.222938 218.458679,86.3674552 207.143069,73.9155837 C198.870521,64.8123445 186.281255,54.5818523 169.786804,44.5044321 C158.134359,37.3852752 154.891085,36.9603787 145.066879,37.418518 Z" id="patch" fill="#C4C4C4" sketch:type="MSShapeGroup"></path>
                <path d="M299.367188,266.496094 L311.007812,259.533203 L319.863281,252.767578" id="tail-movement-2" stroke="#FFFFFF" sketch:type="MSShapeGroup"></path>
                <path d="M311.367188,265.496094 L323.007812,258.533203 L331.863281,251.767578" id="tail-movement" stroke="#FFFFFF" sketch:type="MSShapeGroup"></path>
                <path d="M264.25,293.618125 C263.596144,293.618123 258.530243,291.817413 254.733729,290.720253 C253.888157,290.475889 255.150079,289.204615 255.37854,288.429903 C261.223266,268.610391 309.403809,251.257399 309.403809,251.257399 C309.403809,251.257399 322.53178,248.385754 308.242689,254.975062 C293.953599,261.564371 276.88771,275.871699 276.88771,275.871699 C276.88771,275.871699 266.179165,286.055776 264.25,291.611069 C264.028663,292.248437 264.903855,293.618127 264.25,293.618125 Z" id="tail" fill="#D8D8D8" sketch:type="MSShapeGroup"></path>
                <path d="M78.020752,97.9452374 C84.2500007,93.940754 80.6245117,63.3530214 58.7315063,76.1991436 C36.838501,89.0452659 59.7903139,106.36621 63.7138062,103.010338 C67.6372984,99.6544672 71.7915032,101.949721 78.020752,97.9452374 Z" id="left-eye" fill="#383737" sketch:type="MSShapeGroup"></path>
                <ellipse id="Oval-3" fill="#FFFFFF" sketch:type="MSShapeGroup" cx="61.75" cy="84.6730769" rx="2.8125" ry="2.81730769"></ellipse>
                <path d="M198.958252,100.762545 C205.187501,96.7580617 201.562012,66.1703291 179.669006,79.0164513 C157.776001,91.8625736 180.727814,109.183517 184.651306,105.827646 C188.574798,102.471775 192.729003,104.767028 198.958252,100.762545 Z" id="right-eye" fill="#383737" sketch:type="MSShapeGroup" transform="translate(186.010671, 91.068546) scale(-1, 1) translate(-186.010671, -91.068546) "></path>
                <ellipse id="right-eye-glint" fill="#FFFFFF" sketch:type="MSShapeGroup" cx="179.875" cy="87.4903846" rx="2.8125" ry="2.81730769"></ellipse>
                <path d="M160.084153,163.565768 C161.4463,154.084706 158.3909,143.946939 157.159729,140.982598 C151.131773,126.468832 134.845122,120.821928 127.248077,120.821928 C119.651032,120.821927 72.730484,121.781435 91.4958191,170.517557 C95.9697551,182.136976 105.139466,179.649046 105.139466,179.649046 C105.139466,179.649046 114.657431,177.239042 116.313248,177.278133 C122.631617,177.427297 120.910255,182.063412 127.248078,182.429211 C133.5859,182.79501 131.85829,180.464123 137.01561,179.649046 C142.17293,178.833968 144.637815,184.580828 151.062317,179.649046 C157.48682,174.717263 158.679127,173.345278 160.084153,163.565768 Z" id="nose" fill="#3F3F3F" sketch:type="MSShapeGroup"></path>
                <path d="M165.660065,41.6981295 C165.660065,41.6981295 172.897308,46.1950918 175.558746,41.1767625 C178.220184,36.1584332 173.191995,30.5189518 178.220184,20.7939265 C183.248373,11.0689012 184.647802,13.6214593 191.125,9.0679841 C197.602198,4.51450886 203.727692,0.159348705 211.159943,0.159348708 C218.592194,0.159348711 218.108617,3.54734643 232.285278,5.26984582 C246.46194,6.9923452 247.931503,3.53653941 276.227844,16.4028884 C304.524186,29.2692373 312.05838,41.5426824 312.05838,41.5426824 C312.05838,41.5426824 326.90792,53.4663253 328.168457,57.8481258 C329.428994,62.2299262 330.099363,63.4965199 319.248932,66.5380343 C308.3985,69.5795487 302.622435,69.2385753 293.66864,67.5188646 C284.714845,65.7991538 286.424004,58.823087 278.230103,58.6597525 C270.036201,58.496418 268.905992,61.6147802 261.371582,66.8750657 C253.837172,72.1353513 243.054615,82.054418 237.045105,89.3557505 C231.035595,96.6570829 229.472778,105.63093 229.472778,105.63093 L226.28949,116.03626 L202.074249,69.3085703 L165.660065,41.6981295 Z" id="Path-20" fill="#D8D8D8" sketch:type="MSShapeGroup"></path>
                <path d="M138.926758,224.015625 C134.126063,222.535247 127.802734,219.51814 122.965004,219.654297 C119.296647,219.757542 116.827618,222.859907 112.631836,225.048828 C109.594097,226.633604 104.795693,227.095392 102.086914,228.68457 C94.3285529,233.236221 87.8857422,297.687988 87.8857422,297.687988 C87.8857422,297.687988 90.1484375,300.539064 91.6386719,303.57422 C92.4071913,305.139462 89.2529297,308.943361 89.2529297,308.943361 C89.2529297,308.943361 88.4720412,313.487265 88.4887695,314.10547 C88.5871604,317.741553 89.3733579,319.40545 89.2529297,320.716797 C88.9770379,323.720993 90.0163696,326.573882 95.4368286,332.746094 C100.857288,338.918305 98.8545923,337.227252 104.492187,340.566406 C108.636891,343.021319 114.186523,344.548828 124.595703,343.503906 C135.004883,342.458984 145.725015,337.499707 150.258789,328.805664 C152.363044,324.770509 152.876953,317.555665 152.876953,317.555665 C152.876953,317.555665 152.186358,311.373314 151.071289,307.409181 C150.774627,306.354529 150.121704,304.73415 149.102051,302.802736 C148.082397,300.871321 153.668488,292.257815 153.668488,292.257815 C153.668488,292.257815 155.695312,289.661136 156.438477,289.661136 C157.181641,289.661136 155.623047,301.124026 156.438477,299.404788 C162.585678,286.444131 153.668488,228.68457 153.668488,228.68457 C153.668488,228.68457 147.60904,226.692958 138.926758,224.015625 Z" id="tongue-bottom" fill="url(#linearGradient-2)" sketch:type="MSShapeGroup"></path>
                <g id="CertSimple-+-FAST-PAINLESS-EV-SSL" transform="translate(224.000000, 120.000000)"></g>
            </g>
        </g>
    </g>
</svg>