<?xml version="1.0" encoding="UTF-8" standalone="no"?>
<svg width="1420px" height="683px" viewBox="0 0 1420 683" version="1.1" xmlns="http://www.w3.org/2000/svg" xmlns:xlink="http://www.w3.org/1999/xlink" xmlns:sketch="http://www.bohemiancoding.com/sketch/ns">
    <!-- Generator: Sketch 3.3.3 (12072) - http://www.bohemiancoding.com/sketch -->
    <title>root certificate stores</title>
    <desc>Created with Sketch.</desc>
    <defs></defs>
    <g id="Page-1" stroke="none" stroke-width="1" fill="none" fill-rule="evenodd" sketch:type="MSPage">
        <g id="root-certificate-stores" sketch:type="MSArtboardGroup">
            <rect id="Rectangle-1-Copy-2" stroke="#979797" opacity="0.0988222948" fill="#5A5858" sketch:type="MSShapeGroup" x="40" y="159" width="1335" height="140"></rect>
            <rect id="Rectangle-1-Copy-3" stroke="#494949" opacity="0.475104944" fill="#585858" sketch:type="MSShapeGroup" x="320" y="140" width="240" height="497"></rect>
            <rect id="Rectangle-1-Copy-4" stroke="#979797" opacity="0.475104944" fill="#5A5858" sketch:type="MSShapeGroup" x="580" y="139" width="240" height="500"></rect>
            <rect id="Rectangle-1-Copy-5" stroke="#979797" opacity="0.475104944" fill="#5A5858" sketch:type="MSShapeGroup" x="845" y="142" width="240" height="497"></rect>
            <rect id="Rectangle-1-Copy-6" stroke="#979797" opacity="0.475104944" fill="#5A5858" sketch:type="MSShapeGroup" x="1109" y="139" width="240" height="500"></rect>
            <rect id="Rectangle-1" stroke="#979797" opacity="0.0988222948" fill="#5A5858" sketch:type="MSShapeGroup" x="40" y="479" width="1335" height="140"></rect>
            <g id="moz" sketch:type="MSLayerGroup" transform="translate(876.000000, 521.000000)" fill="#E6E6E6">
                <path d="M174.91209,45.6146289 C173.393364,44.7733721 172.429587,43.9632443 171.740553,42.9487143 L171.339923,42.3588313 L170.758849,42.8711034 C169.945692,43.5879868 169.624452,43.8263959 168.882818,44.2634104 C167.167039,45.2744493 164.864286,45.6902602 162.003322,45.5056485 C156.085725,45.1237985 152.977196,42.2946645 152.570941,36.9210526 C152.390164,34.5298322 152.791741,32.3545164 153.721663,30.6877072 C154.995689,28.4041123 157.489191,26.8081431 160.991728,26.0344876 C162.783141,25.6387924 164.236196,25.4945727 166.932165,25.4448822 L169.432943,25.3987894 L169.383006,24.0985171 C169.355545,23.383368 169.294487,22.569942 169.247334,22.2909052 C169.000037,20.8274967 168.381408,20.0867788 167.223646,19.8678326 C166.327846,19.6984275 165.913021,19.6890015 164.882051,19.8146267 C162.887369,20.057681 160.80807,20.8718641 158.243645,22.4140004 C157.555776,22.827659 156.954071,23.1512254 156.906538,23.1330368 C156.810184,23.0961691 153.463172,17.5022842 153.46721,17.3848696 C153.472892,17.2198159 155.548137,16.0796454 157.025804,15.4297284 C161.026652,13.670046 163.530918,13.0736842 166.919386,13.0736842 C170.070219,13.0736842 172.246819,13.6026221 174.004166,14.7953649 C174.693079,15.2629436 175.730499,16.3313518 176.107665,16.9616922 C176.454343,17.5410848 176.879917,18.5939844 177.113059,19.4491228 L177.300084,20.1350877 L177.259617,24.8561404 C177.23736,27.4527193 177.219149,31.2295614 177.219149,33.2491228 C177.219149,37.3898201 177.219343,37.3914672 177.847806,38.6157895 C178.120412,39.1468627 178.343647,39.4228248 179.106074,40.1712625 C179.957391,41.0069582 180.022932,41.0924722 179.910214,41.2203853 C179.842714,41.2969802 178.886415,42.3946491 177.785121,43.6596491 C176.683819,44.9246491 175.741733,45.9678113 175.691602,45.9777868 C175.641462,45.9877624 175.290689,45.8243413 174.91209,45.6146289 L174.91209,45.6146289 Z M165.497499,39.3809906 C166.718253,39.2283618 167.730308,38.7471413 168.659267,37.8776081 L169.163898,37.4052632 L169.217987,34.2651603 L169.272076,31.1250567 L167.962018,31.1809031 C163.833454,31.3568999 162.289768,32.0157143 161.622926,33.8862922 C161.412794,34.4757661 161.331163,36.0282919 161.477728,36.6479974 C161.81034,38.0543385 162.926129,39.1588921 164.229041,39.3716131 C164.47387,39.4115846 164.711561,39.4485347 164.757241,39.4537239 C164.802929,39.4589122 165.136042,39.4261828 165.497499,39.3809906 L165.497499,39.3809906 Z M127.446834,45.0649289 C126.136736,44.8619374 125.002485,44.3910201 123.966173,43.6198341 C122.863544,42.799295 122.215406,41.8326332 121.74098,40.3010398 C121.298507,38.8726172 121.309474,39.2845431 121.253515,21.9912281 C121.20272,6.29286166 121.198609,5.97635607 121.019483,3.96638882 C120.919204,2.84114828 120.858163,1.89955862 120.883827,1.87396729 C120.957656,1.8003505 128.890914,-0.00126172851 128.987874,0.0335688373 C129.085846,0.0687620711 129.234678,1.15676442 129.347599,2.66315789 C129.509057,13.368616 129.359189,24.076672 129.503423,34.7824561 C129.565525,37.3774299 129.58792,37.6924339 129.741138,38.1256554 C130.118839,39.1936124 130.638807,39.5803538 131.69307,39.5774453 C132.026928,39.5765237 132.351559,39.5595118 132.414478,39.5396398 C132.521167,39.5059435 132.891834,40.6613982 133.777865,43.789633 L133.940399,44.3634766 L132.675098,44.6946475 C130.836775,45.175797 129.001325,45.305789 127.446834,45.0649289 L127.446834,45.0649289 Z M144.278502,45.1400518 C143.21812,45.0145089 142.306935,44.7518965 141.445768,44.3236325 C139.293165,43.2531261 138.246567,41.7153308 137.753356,38.8982456 C137.688219,38.5262339 137.646068,33.7502484 137.608393,22.4754386 C137.555461,6.63547732 137.554555,6.56868056 137.36154,4.25526559 C137.243164,2.8365599 137.197031,1.90775703 137.242938,1.86757611 C137.342415,1.78050352 145.291827,-0.0252667702 145.344492,0.0272455272 C145.431643,0.11414578 145.610413,1.72338346 145.691105,3.14736842 C145.902095,14.174896 145.654838,25.2073729 145.851915,36.2350877 C145.906619,37.4040986 145.957941,37.8305953 146.088449,38.2005434 C146.307427,38.8213078 146.611315,39.2059662 147.027921,39.3897201 C147.483384,39.5906142 148.203311,39.6686762 148.535542,39.5531928 C148.708023,39.4932387 148.817399,39.4890979 148.849757,39.5412974 C148.927819,39.6672454 150.244328,44.3151241 150.211274,44.3480835 C150.195014,44.3643013 149.70937,44.5099002 149.132084,44.6716362 C147.742789,45.0608648 145.465773,45.2806181 144.278502,45.1400518 L144.278502,45.1400518 Z M57.920588,45.0674113 C57.7870449,45.0494148 57.3135736,44.9926678 56.8684298,44.9413076 C56.4232859,44.8899482 55.6376733,44.7283873 55.122624,44.5822832 C49.5882998,43.0123662 46.1306042,38.4553479 45.3293922,31.6754386 C45.206611,30.6364584 45.2072706,27.7237868 45.3305333,26.6315789 C45.6899603,23.446777 46.7224845,20.565889 48.309696,18.3192982 C49.3860726,16.7957605 51.153488,15.2590207 52.7446605,14.4631691 C54.7541509,13.4580876 56.5017882,13.0745445 59.0744479,13.0740086 C61.2116541,13.073564 62.5890887,13.2910011 64.1993458,13.883009 C68.1070276,15.31966 71.2633932,18.8422012 72.4047623,23.0403509 C73.3202792,26.407776 73.3039311,31.6071246 72.3672075,34.9842105 C71.6274836,37.6510734 70.3548553,39.802537 68.4251663,41.6484976 C66.495453,43.4944817 64.3637123,44.5404604 61.7650125,44.9164288 C61.0001169,45.0270903 58.3838266,45.1298406 57.920588,45.0674113 L57.920588,45.0674113 Z M60.9956501,38.8118955 C62.7998911,37.9961735 63.6725819,36.165635 64.0718954,32.359227 C64.2243167,30.9062904 64.2469203,27.2936489 64.1122764,25.9052632 C63.7393988,22.0603055 62.7851997,20.208745 60.7760824,19.4315976 C59.7274991,19.0259938 58.2858771,19.1308391 57.2205677,19.6901798 C55.4078835,20.6419286 54.5886027,22.6543681 54.3125285,26.8333333 C54.1550884,29.2165199 54.2999673,32.4155778 54.6524266,34.3385965 C55.1250618,36.9172895 55.8702974,38.0752919 57.4953129,38.7560814 C58.2576154,39.0754425 58.6546084,39.1391121 59.6255571,39.0977274 C60.3198852,39.0681341 60.5222897,39.0259077 60.9956501,38.8118955 L60.9956501,38.8118955 Z M0.903070291,18.2780411 C0.773822699,17.2236791 0.529333774,16.2659438 0.23964098,15.679192 C0.0932584166,15.3827042 0.0169464529,15.1379915 0.0593315416,15.1009857 C0.148275457,15.0233305 7.03808273,13.154386 7.23541356,13.154386 C7.43782906,13.154386 7.90238988,14.1260754 8.14486671,15.0566256 C8.25645052,15.4848493 8.3477463,15.9038697 8.3477463,15.9877826 C8.3477463,16.0716947 8.37506195,16.1395503 8.40844774,16.1385722 C8.44183353,16.1375933 8.79693695,15.863468 9.19756644,15.5294047 C10.7075188,14.2703363 12.7081314,13.4216347 14.6296726,13.2249919 C16.731774,13.0098709 18.625531,13.323256 20.1469972,14.1380161 C21.1209502,14.6595778 22.2803145,15.6348036 22.8978262,16.4519395 L23.3831568,17.0941641 L23.6959376,16.7698802 C24.4513896,15.9866431 25.9387465,14.8670168 26.9831066,14.2954224 C27.8761284,13.8066587 29.1406357,13.410154 30.3751006,13.2318136 C31.4827643,13.0717918 33.6674261,13.1695514 34.7326384,13.4268044 C35.9106494,13.7112991 36.9234828,14.1394493 37.6860183,14.6752727 C39.2508027,15.7748252 39.8451369,16.7393072 40.2547867,18.8438596 C40.4257592,19.7222192 40.4278853,19.8619744 40.4564603,32.0991228 L40.4853396,44.4666667 L32.5473866,44.4666667 L32.5473866,33.6303393 C32.5473866,26.663808 32.5175029,22.5498004 32.4637052,22.1101639 C32.2669799,20.5025107 31.8936823,20.0333922 30.6760592,19.863649 C29.2562954,19.6657271 27.2579336,20.4316158 25.4406183,21.8701754 L24.7779464,22.3947368 L24.7776024,44.4666667 L17.0947718,44.4666667 C16.6244798,37.1505684 17.7425752,29.166672 16.9096341,21.9416828 C16.6156975,20.5229363 16.1076685,20.0046115 14.8630341,19.8536048 C13.4095818,19.6772642 11.4313648,20.3470275 9.74114783,21.5877193 L9.08149963,22.0719298 L9.07616356,44.4666667 L1.14450889,44.4666667 C0.870509958,35.8048667 1.63483277,26.8972879 0.903070291,18.2780411 L0.903070291,18.2780411 Z M76.6670587,39.3421053 L91.0391069,19.5701754 L77.8711276,19.5288812 L77.8711276,13.8 L100.775804,13.8 L100.775504,19.3280702 C96.2994046,25.8055489 91.7020152,32.2003575 87.2596168,38.7010234 L101.353261,38.7368421 L101.295853,38.9184211 L99.4185925,44.4263158 L76.6570988,44.4672251 L76.6670587,39.3421053 L76.6670587,39.3421053 Z M106.684077,14.2065835 L106.866182,14.1651133 C109.439324,13.7399014 112.020478,13.364384 114.595498,12.9507157 L114.858538,12.9049667 L114.858538,44.4666667 L106.684077,44.4666667 L106.684077,14.2065835 L106.684077,14.2065835 Z M110.204761,10.1569703 C108.253056,9.96280347 106.545225,8.49403477 106.041516,6.57649435 C105.342203,3.91430019 106.745515,1.26432025 109.295672,0.431427229 C109.777325,0.274115275 110.044768,0.242105263 110.877414,0.242105263 C112.446327,0.242105263 113.345461,0.595102105 114.364363,1.6110605 C115.34368,2.58755133 115.768994,3.66055854 115.773049,5.16491228 C115.777209,6.71314526 115.370817,7.72480421 114.324729,8.77031077 C113.241759,9.85267786 111.85104,10.3207513 110.204761,10.1569703 L110.204761,10.1569703 Z" id="path2320" sketch:type="MSShapeGroup"></path>
            </g>
            <g id="android_logo" sketch:type="MSLayerGroup" transform="translate(1201.000000, 511.000000)" fill="#E6E6E6">
                <g sketch:type="MSShapeGroup">
                    <path d="M10.4575582,22.5 C10.5063091,15.491174 14.8426749,9.41428153 21.1848182,6.35946598 L21.1848182,6.35946598 L18.1579565,0.940778422 C17.9870422,0.634807648 18.0985427,0.248964596 18.4070215,0.0792845502 C18.71477,-0.0899937685 19.1046156,0.0207473919 19.2752454,0.326208982 L22.3550332,5.83964474 C24.8437099,4.82455274 27.5999254,4.26036209 30.5,4.26036209 C33.4697619,4.26036209 36.2886679,4.85199294 38.8239063,5.91360061 L41.9450058,0.326208982 C42.1156357,0.0207473919 42.5054811,-0.0899937685 42.8132296,0.0792845502 C43.1217083,0.248964596 43.233209,0.634807648 43.0622947,0.940778422 L39.9882983,6.44384641 C46.2361083,9.52526444 50.4941359,15.5551307 50.542442,22.5 L10.4575519,22.5 L10.4575582,22.5 L10.4575582,22.5 Z M10.4571429,24.2307692 L10.4571429,52.9996362 C10.4571429,55.6549494 12.6264343,57.8076923 15.302391,57.8076923 L45.697609,57.8076923 C48.3734619,57.8076923 50.5428571,55.6550522 50.5428571,52.9996362 L50.5428571,24.2307692 L10.4571429,24.2307692 L10.4571429,24.2307692 Z M41.48,13.8461538 C41.48,12.8902764 40.6996964,12.1153846 39.7371429,12.1153846 C38.7745893,12.1153846 37.9942857,12.8902764 37.9942857,13.8461538 C37.9942857,14.8020313 38.7745893,15.5769231 39.7371429,15.5769231 C40.6996964,15.5769231 41.48,14.8020313 41.48,13.8461538 L41.48,13.8461538 Z M23.0057143,13.8461538 C23.0057143,12.8902764 22.2254105,12.1153846 21.2628571,12.1153846 C20.3003037,12.1153846 19.52,12.8902764 19.52,13.8461538 C19.52,14.8020313 20.3003037,15.5769231 21.2628571,15.5769231 C22.2254105,15.5769231 23.0057143,14.8020313 23.0057143,13.8461538 L23.0057143,13.8461538 Z" id="Oval"></path>
                    <path d="M56.4685714,23.5384615 C58.9716127,23.5384615 61,25.5238267 61,27.9747718 L61,46.4483049 C61,48.8987055 58.9715572,50.8846154 56.4685714,50.8846154 C53.9655302,50.8846154 51.9371429,48.8992503 51.9371429,46.4483049 L51.9371429,27.9747718 C51.9371429,25.5243714 53.9655856,23.5384615 56.4685714,23.5384615 L56.4685714,23.5384615 Z" id="c"></path>
                    <path d="M22.6571429,44.6538462 C25.1601841,44.6538462 27.1885714,46.6392112 27.1885714,49.0901566 L27.1885714,67.5636895 C27.1885714,70.0140901 25.1601288,72 22.6571429,72 C20.1541016,72 18.1257143,70.014635 18.1257143,67.5636895 L18.1257143,49.0901566 C18.1257143,46.639756 20.1541569,44.6538462 22.6571429,44.6538462 L22.6571429,44.6538462 Z" id="c"></path>
                    <path d="M4.53142857,23.5384615 C7.03446984,23.5384615 9.06285714,25.5238267 9.06285714,27.9747718 L9.06285714,46.4483049 C9.06285714,48.8987055 7.03441449,50.8846154 4.53142857,50.8846154 C2.02838732,50.8846154 0,48.8992503 0,46.4483049 L0,27.9747718 C0,25.5243714 2.02844264,23.5384615 4.53142857,23.5384615 L4.53142857,23.5384615 Z" id="c"></path>
                    <path d="M38.6914286,44.6538462 C41.1944698,44.6538462 43.2228571,46.6392112 43.2228571,49.0901566 L43.2228571,67.5636895 C43.2228571,70.0140901 41.1944144,72 38.6914286,72 C36.1883873,72 34.16,70.014635 34.16,67.5636895 L34.16,49.0901566 C34.16,46.639756 36.1884428,44.6538462 38.6914286,44.6538462 L38.6914286,44.6538462 Z" id="c"></path>
                </g>
            </g>
            <g id="apple_logo" sketch:type="MSLayerGroup" transform="translate(408.000000, 507.000000)" fill="#E7E7E7">
                <path d="M53.3348272,41.3676685 C53.4450415,53.1512299 63.7469409,57.0725025 63.8610764,57.1225563 C63.7739693,57.3991018 62.2150023,62.7107485 58.4335403,68.1973048 C55.164639,72.9407059 51.7719386,77.6667274 46.4274485,77.7646096 C41.1759474,77.8606846 39.4872999,74.6728343 33.4833435,74.6728343 C27.4812079,74.6728343 25.6050416,77.6667274 20.6339081,77.8606846 C15.475116,78.0545025 11.5467483,72.7313157 8.25067834,68.0052941 C1.51555361,58.3380213 -3.63147483,40.6879145 3.2796849,28.7737968 C6.71299781,22.8571978 12.8485952,19.1105561 19.5082363,19.0144813 C24.5740394,18.9185455 29.3555536,22.3980962 32.4523414,22.3980962 C35.5471685,22.3980962 41.3577243,18.2136257 47.4661532,18.8281711 C50.0233521,18.9338396 57.2014355,19.8537112 61.8106959,26.5519786 C61.4392999,26.7805562 53.2457592,31.5161711 53.3348272,41.3676685 M43.4652427,12.4324492 C46.2040787,9.14101605 48.0474747,4.55903744 47.5445776,0 C43.5967439,0.157529412 38.8229322,2.61181818 35.9912473,5.90144385 C33.4535142,8.81455614 31.2310197,13.4771765 31.8306871,17.9459786 C36.2310022,18.2839786 40.7262669,15.7259679 43.4652427,12.4324492" id="Shape" sketch:type="MSShapeGroup"></path>
            </g>
            <rect id="Rectangle-1-Copy" stroke="#979797" opacity="0.0988222948" fill="#5A5858" sketch:type="MSShapeGroup" x="40" y="319" width="1335" height="140"></rect>
            <g id="android_logo" sketch:type="MSLayerGroup" transform="translate(1201.000000, 356.000000)" fill="#E6E6E6">
                <g sketch:type="MSShapeGroup">
                    <path d="M10.4575582,22.5 C10.5063091,15.491174 14.8426749,9.41428153 21.1848182,6.35946598 L21.1848182,6.35946598 L18.1579565,0.940778422 C17.9870422,0.634807648 18.0985427,0.248964596 18.4070215,0.0792845502 C18.71477,-0.0899937685 19.1046156,0.0207473919 19.2752454,0.326208982 L22.3550332,5.83964474 C24.8437099,4.82455274 27.5999254,4.26036209 30.5,4.26036209 C33.4697619,4.26036209 36.2886679,4.85199294 38.8239063,5.91360061 L41.9450058,0.326208982 C42.1156357,0.0207473919 42.5054811,-0.0899937685 42.8132296,0.0792845502 C43.1217083,0.248964596 43.233209,0.634807648 43.0622947,0.940778422 L39.9882983,6.44384641 C46.2361083,9.52526444 50.4941359,15.5551307 50.542442,22.5 L10.4575519,22.5 L10.4575582,22.5 L10.4575582,22.5 Z M10.4571429,24.2307692 L10.4571429,52.9996362 C10.4571429,55.6549494 12.6264343,57.8076923 15.302391,57.8076923 L45.697609,57.8076923 C48.3734619,57.8076923 50.5428571,55.6550522 50.5428571,52.9996362 L50.5428571,24.2307692 L10.4571429,24.2307692 L10.4571429,24.2307692 Z M41.48,13.8461538 C41.48,12.8902764 40.6996964,12.1153846 39.7371429,12.1153846 C38.7745893,12.1153846 37.9942857,12.8902764 37.9942857,13.8461538 C37.9942857,14.8020313 38.7745893,15.5769231 39.7371429,15.5769231 C40.6996964,15.5769231 41.48,14.8020313 41.48,13.8461538 L41.48,13.8461538 Z M23.0057143,13.8461538 C23.0057143,12.8902764 22.2254105,12.1153846 21.2628571,12.1153846 C20.3003037,12.1153846 19.52,12.8902764 19.52,13.8461538 C19.52,14.8020313 20.3003037,15.5769231 21.2628571,15.5769231 C22.2254105,15.5769231 23.0057143,14.8020313 23.0057143,13.8461538 L23.0057143,13.8461538 Z" id="Oval"></path>
                    <path d="M56.4685714,23.5384615 C58.9716127,23.5384615 61,25.5238267 61,27.9747718 L61,46.4483049 C61,48.8987055 58.9715572,50.8846154 56.4685714,50.8846154 C53.9655302,50.8846154 51.9371429,48.8992503 51.9371429,46.4483049 L51.9371429,27.9747718 C51.9371429,25.5243714 53.9655856,23.5384615 56.4685714,23.5384615 L56.4685714,23.5384615 Z" id="c"></path>
                    <path d="M22.6571429,44.6538462 C25.1601841,44.6538462 27.1885714,46.6392112 27.1885714,49.0901566 L27.1885714,67.5636895 C27.1885714,70.0140901 25.1601288,72 22.6571429,72 C20.1541016,72 18.1257143,70.014635 18.1257143,67.5636895 L18.1257143,49.0901566 C18.1257143,46.639756 20.1541569,44.6538462 22.6571429,44.6538462 L22.6571429,44.6538462 Z" id="c"></path>
                    <path d="M4.53142857,23.5384615 C7.03446984,23.5384615 9.06285714,25.5238267 9.06285714,27.9747718 L9.06285714,46.4483049 C9.06285714,48.8987055 7.03441449,50.8846154 4.53142857,50.8846154 C2.02838732,50.8846154 0,48.8992503 0,46.4483049 L0,27.9747718 C0,25.5243714 2.02844264,23.5384615 4.53142857,23.5384615 L4.53142857,23.5384615 Z" id="c"></path>
                    <path d="M38.6914286,44.6538462 C41.1944698,44.6538462 43.2228571,46.6392112 43.2228571,49.0901566 L43.2228571,67.5636895 C43.2228571,70.0140901 41.1944144,72 38.6914286,72 C36.1883873,72 34.16,70.014635 34.16,67.5636895 L34.16,49.0901566 C34.16,46.639756 36.1884428,44.6538462 38.6914286,44.6538462 L38.6914286,44.6538462 Z" id="c"></path>
                </g>
            </g>
            <g id="windows" sketch:type="MSLayerGroup" transform="translate(668.000000, 363.000000)" fill="#E6E6E6">
                <path d="M0,8.96917938 L26.364233,5.43030303 L26.3757576,30.4945193 L0.0245414504,30.6424242 L0,8.96917938 L0,8.96917938 Z M26.3552762,33.5251292 L26.3757576,58.569697 L0.00147879787,55.0048427 L0,33.3575758 L26.3552762,33.5251292 L26.3552762,33.5251292 Z M29.4787879,5.05015913 L64,0 L64,30.3677202 L29.4787879,30.6424242 L29.4787879,5.05015913 L29.4787879,5.05015913 Z M64,33.8017313 L63.9919151,64 L29.5270784,59.121531 L29.4787879,33.7454545 L64,33.8017313 L64,33.8017313 Z" id="path13" sketch:type="MSShapeGroup"></path>
            </g>
            <g id="browsers" sketch:type="MSLayerGroup" transform="translate(139.000000, 195.000000)"></g>
            <g id="chrome" sketch:type="MSLayerGroup" transform="translate(640.000000, 194.000000)" fill="#E6E6E6">
                <g id="Group" sketch:type="MSShapeGroup">
                    <path d="M31.5839062,41.3479336 C37.0049288,41.3479336 41.4208576,36.9399023 41.4208576,31.5283008 C41.4208576,26.0591133 37.0050521,21.651082 31.5839062,21.651082 C26.1050729,21.651082 21.6892674,26.0591133 21.6892674,31.5283008 C21.6892674,36.9399023 26.1050729,41.3479336 31.5839062,41.3479336 L31.5839062,41.3479336 L31.5839062,41.3479336 Z" id="Shape"></path>
                    <path d="M31.5840295,17.6889727 L59.924,17.6889727 C54.8380087,7.25422852 44.0495833,0 31.5839062,0 C22.1919375,0 13.8070347,4.07358984 8.04888542,10.4906074 L18.1670017,28.0679766 C19.7326997,22.0970039 25.0988698,17.6889727 31.5840295,17.6889727 Z" id="Shape"></path>
                    <path d="M5.42213194,13.8384668 C2.01252951,18.9164883 0,24.9432012 0,31.5283008 C0,46.7057637 10.7883021,59.372332 25.0988698,62.3290254 L35.2718385,44.8081348 C34.0989826,45.1426992 32.8126007,45.3099199 31.5839063,45.3099199 C26.4402274,45.3099199 21.9684601,42.5204473 19.6208993,38.3911172 C19.565184,38.335623 19.5083594,38.2798828 19.4525208,38.1682793 L5.42213194,13.8384668 Z" id="Shape"></path>
                    <path d="M43.4333872,38.5028437 L29.3471597,62.9442598 C30.0741701,63 30.8001944,63 31.5839063,63 C48.9681823,63 63.1111111,48.8819707 63.1111111,31.5283008 C63.1111111,28.0679766 62.5507535,24.7758574 61.5455365,21.651082 L41.2534653,21.651082 C43.7684184,24.1617305 45.3900781,27.6211934 45.3900781,31.5283008 C45.3899549,34.0390723 44.6640538,36.4939805 43.4333872,38.5028437 L43.4333872,38.5028437 L43.4333872,38.5028437 Z" id="Shape"></path>
                </g>
            </g>
            <g id="chrome-copy" sketch:type="MSLayerGroup" transform="translate(456.000000, 197.000000)" fill="#E6E6E6">
                <g id="Group" sketch:type="MSShapeGroup">
                    <path d="M31.5839062,41.3479336 C37.0049288,41.3479336 41.4208576,36.9399023 41.4208576,31.5283008 C41.4208576,26.0591133 37.0050521,21.651082 31.5839062,21.651082 C26.1050729,21.651082 21.6892674,26.0591133 21.6892674,31.5283008 C21.6892674,36.9399023 26.1050729,41.3479336 31.5839062,41.3479336 L31.5839062,41.3479336 L31.5839062,41.3479336 Z" id="Shape"></path>
                    <path d="M31.5840295,17.6889727 L59.924,17.6889727 C54.8380087,7.25422852 44.0495833,0 31.5839062,0 C22.1919375,0 13.8070347,4.07358984 8.04888542,10.4906074 L18.1670017,28.0679766 C19.7326997,22.0970039 25.0988698,17.6889727 31.5840295,17.6889727 Z" id="Shape"></path>
                    <path d="M5.42213194,13.8384668 C2.01252951,18.9164883 0,24.9432012 0,31.5283008 C0,46.7057637 10.7883021,59.372332 25.0988698,62.3290254 L35.2718385,44.8081348 C34.0989826,45.1426992 32.8126007,45.3099199 31.5839063,45.3099199 C26.4402274,45.3099199 21.9684601,42.5204473 19.6208993,38.3911172 C19.565184,38.335623 19.5083594,38.2798828 19.4525208,38.1682793 L5.42213194,13.8384668 Z" id="Shape"></path>
                    <path d="M43.4333872,38.5028437 L29.3471597,62.9442598 C30.0741701,63 30.8001944,63 31.5839063,63 C48.9681823,63 63.1111111,48.8819707 63.1111111,31.5283008 C63.1111111,28.0679766 62.5507535,24.7758574 61.5455365,21.651082 L41.2534653,21.651082 C43.7684184,24.1617305 45.3900781,27.6211934 45.3900781,31.5283008 C45.3899549,34.0390723 44.6640538,36.4939805 43.4333872,38.5028437 L43.4333872,38.5028437 L43.4333872,38.5028437 Z" id="Shape"></path>
                </g>
            </g>
            <g id="chrome-copy-2" sketch:type="MSLayerGroup" transform="translate(1197.000000, 193.000000)" fill="#E6E6E6">
                <g id="Group" sketch:type="MSShapeGroup">
                    <path d="M31.5839062,41.3479336 C37.0049288,41.3479336 41.4208576,36.9399023 41.4208576,31.5283008 C41.4208576,26.0591133 37.0050521,21.651082 31.5839062,21.651082 C26.1050729,21.651082 21.6892674,26.0591133 21.6892674,31.5283008 C21.6892674,36.9399023 26.1050729,41.3479336 31.5839062,41.3479336 L31.5839062,41.3479336 L31.5839062,41.3479336 Z" id="Shape"></path>
                    <path d="M31.5840295,17.6889727 L59.924,17.6889727 C54.8380087,7.25422852 44.0495833,0 31.5839062,0 C22.1919375,0 13.8070347,4.07358984 8.04888542,10.4906074 L18.1670017,28.0679766 C19.7326997,22.0970039 25.0988698,17.6889727 31.5840295,17.6889727 Z" id="Shape"></path>
                    <path d="M5.42213194,13.8384668 C2.01252951,18.9164883 0,24.9432012 0,31.5283008 C0,46.7057637 10.7883021,59.372332 25.0988698,62.3290254 L35.2718385,44.8081348 C34.0989826,45.1426992 32.8126007,45.3099199 31.5839063,45.3099199 C26.4402274,45.3099199 21.9684601,42.5204473 19.6208993,38.3911172 C19.565184,38.335623 19.5083594,38.2798828 19.4525208,38.1682793 L5.42213194,13.8384668 Z" id="Shape"></path>
                    <path d="M43.4333872,38.5028437 L29.3471597,62.9442598 C30.0741701,63 30.8001944,63 31.5839063,63 C48.9681823,63 63.1111111,48.8819707 63.1111111,31.5283008 C63.1111111,28.0679766 62.5507535,24.7758574 61.5455365,21.651082 L41.2534653,21.651082 C43.7684184,24.1617305 45.3900781,27.6211934 45.3900781,31.5283008 C45.3899549,34.0390723 44.6640538,36.4939805 43.4333872,38.5028437 L43.4333872,38.5028437 L43.4333872,38.5028437 Z" id="Shape"></path>
                </g>
            </g>
            <g id="edge" sketch:type="MSLayerGroup" transform="translate(719.000000, 193.000000)" fill="#E6E6E6">
                <g id="Page-1" sketch:type="MSShapeGroup">
                    <path d="M11.7707452,16.4191352 C4.31926045,20.9987068 0.0604734492,27.5065014 0.0604734492,27.5065014 C0.0604734492,27.5065014 1.16406095,13.8607793 11.7707452,5.87613028 C15.9891507,2.70053968 21.7564553,0.0400141964 29.5135275,0.0400141964 C32.427615,0.0400141964 38.53848,0.540577076 44.0428415,3.8911178 C49.547203,7.24165853 51.7710928,10.0482585 54.25093,14.157317 C55.32099,15.9303927 56.192505,18.2082148 56.7361617,20.4054182 C57.7547625,24.522121 57.8786272,29.445543 57.8786272,29.445543 L57.8786272,35.9312066 L18.5400807,35.9312066 C18.5400807,35.9312066 17.5793194,48.9801794 35.6708177,48.9801794 C41.962807,48.9801794 44.1660596,48.0042815 46.2355008,47.3992332 C49.47516,46.452045 52.6033835,44.3407751 52.6033835,44.3407751 L52.6093457,57.3782552 C52.6093457,57.3782552 45.205181,61.8810085 34.0194382,61.8810085 C30.8694567,61.8810085 27.5498273,61.6201777 24.3483709,60.5946678 C21.5508593,59.6985518 15.6920901,57.2814269 11.7707452,51.6164913 C10.3836211,49.6125949 8.88055162,46.9460392 8.13609218,44.3407751 C7.3312638,41.5242476 7.34113604,38.7880648 7.34113604,37.2806171 C7.34113604,31.642594 9.29211274,26.2596811 12.677563,22.3682861 C17.0627399,17.3277589 22.6054296,15.1086879 22.6054296,15.1086879 C22.6054296,15.1086879 20.8000274,17.1867631 19.689502,19.7740207 C18.5789768,22.3612784 18.2751899,24.9643735 18.2751899,24.9643735 L40.4879928,24.9643735 C40.4879928,24.9643735 41.7871534,11.8596191 27.9191435,11.8596191 C22.6937501,11.8596191 16.275971,13.6502904 11.7707452,16.4191352 L11.7707452,16.4191352 Z" id="Microsoft-Edge-logo"></path>
                </g>
            </g>
            <g id="SafariIcon" sketch:type="MSLayerGroup" transform="translate(356.000000, 196.000000)">
                <g id="Safari" sketch:type="MSShapeGroup">
                    <circle id="Face" fill="#E6E6E6" cx="32" cy="32" r="32"></circle>
                    <path d="M31.6923077,2.42097357 L31.6923077,5.49789664 L32.3076923,5.49789664 L32.3076923,2.42097357 L31.6923077,2.42097357 L31.6923077,2.42097357 Z M34.2730581,2.50678329 L34.0048866,5.57199774 L34.6179295,5.62563204 L34.886101,2.56041759 L34.2730581,2.50678329 L34.2730581,2.50678329 Z M36.8365092,2.81719368 L36.3022071,5.8473714 L36.9082426,5.95423181 L37.4425447,2.9240541 L36.8365092,2.81719368 L36.8365092,2.81719368 Z M39.3631515,3.34984236 L38.5667851,6.32192184 L39.161201,6.48119509 L39.9575673,3.50911562 L39.3631515,3.34984236 L39.3631515,3.34984236 Z M41.8337557,4.10067556 L40.781386,6.99203745 L41.3596583,7.20251139 L42.412028,4.31114947 L41.8337557,4.10067556 L41.8337557,4.10067556 Z M44.2295191,5.06397892 L42.9291553,7.85261827 L43.486883,8.11269105 L44.787247,5.32405171 L44.2295191,5.06397892 L44.2295191,5.06397892 Z M46.5322085,6.2324212 L44.993747,8.89711475 L45.5266857,9.20480706 L47.0651473,6.5401135 L46.5322085,6.2324212 L46.5322085,6.2324212 Z M48.7242991,7.59710979 L46.9594484,10.1175776 L47.463542,10.4705477 L49.2283927,7.95007991 L48.7242991,7.59710979 L48.7242991,7.59710979 Z M50.7891076,9.14765861 L48.8112996,11.5047184 L49.2827115,11.90028 L51.2605196,9.5432202 L50.7891076,9.14765861 L50.7891076,9.14765861 Z M52.7109197,10.872267 L50.5352065,13.0479802 L50.970349,13.4831229 L53.1460622,11.3074097 L52.7109197,10.872267 L52.7109197,10.872267 Z M54.4751092,12.7578098 L52.1180494,14.7356178 L52.5136109,15.2070298 L54.8706708,13.2292217 L54.4751092,12.7578098 L54.4751092,12.7578098 Z M56.0682493,14.7899367 L53.5477817,16.5547872 L53.9007517,17.0588809 L56.4212196,15.2940302 L56.0682493,14.7899367 L56.0682493,14.7899367 Z M57.4782158,16.9531821 L54.8135222,18.4916436 L55.1212145,19.0245824 L57.7859081,17.4861208 L57.4782158,16.9531821 L57.4782158,16.9531821 Z M58.6942777,19.2310823 L55.9056383,20.5314462 L56.1657111,21.0891741 L58.9543503,19.7888102 L58.6942777,19.2310823 L58.6942777,19.2310823 Z M59.7071798,21.6063014 L56.8158178,22.6586709 L57.0262918,23.2369433 L59.9176537,22.1845736 L59.7071798,21.6063014 L59.7071798,21.6063014 Z M60.5092137,24.0607621 L57.5371343,24.8571283 L57.6964075,25.4515443 L60.6684869,24.6551778 L60.5092137,24.0607621 L60.5092137,24.0607621 Z M61.0942753,26.5757847 L58.0640975,27.1100867 L58.1709579,27.7161223 L61.2011356,27.1818202 L61.0942753,26.5757847 L61.0942753,26.5757847 Z M61.4579118,29.1322284 L58.3926973,29.4003999 L58.4463316,30.0134427 L61.511546,29.7452712 L61.4579118,29.1322284 L61.4579118,29.1322284 Z M61.5973558,31.710637 L58.5204327,31.710637 L58.5204327,32.3260217 L61.5973558,32.3260217 L61.5973558,31.710637 L61.5973558,31.710637 Z M61.511546,34.2913874 L58.4463316,34.023216 L58.3926973,34.6362588 L61.4579118,34.9044303 L61.511546,34.2913874 L61.511546,34.2913874 Z M61.2011356,36.8548385 L58.1709579,36.3205364 L58.0640975,36.9265719 L61.0942753,37.460874 L61.2011356,36.8548385 L61.2011356,36.8548385 Z M60.6684869,39.3814807 L57.6964075,38.5851144 L57.5371343,39.1795304 L60.5092137,39.9758966 L60.6684869,39.3814807 L60.6684869,39.3814807 Z M59.9176537,41.8520851 L57.0262918,40.7997154 L56.8158178,41.3779876 L59.7071798,42.4303573 L59.9176537,41.8520851 L59.9176537,41.8520851 Z M58.9543503,44.2478485 L56.1657111,42.9474846 L55.9056383,43.5052124 L58.6942777,44.8055764 L58.9543503,44.2478485 L58.9543503,44.2478485 Z M57.7859081,46.5505378 L55.1212145,45.0120763 L54.8135222,45.5450151 L57.4782158,47.0834766 L57.7859081,46.5505378 L57.7859081,46.5505378 Z M56.4212196,48.7426285 L53.9007517,46.9777778 L53.5477817,47.4818713 L56.0682493,49.246722 L56.4212196,48.7426285 L56.4212196,48.7426285 Z M54.8706708,50.8074369 L52.5136109,48.8296289 L52.1180494,49.3010409 L54.4751092,51.2788489 L54.8706708,50.8074369 L54.8706708,50.8074369 Z M53.1460622,52.729249 L50.970349,50.5535358 L50.5352065,50.9886784 L52.7109197,53.1643916 L53.1460622,52.729249 L53.1460622,52.729249 Z M51.2605196,54.4934384 L49.2827115,52.1363785 L48.8112996,52.5319403 L50.7891076,54.8890001 L51.2605196,54.4934384 L51.2605196,54.4934384 Z M49.2283927,56.0865787 L47.463542,53.566111 L46.9594484,53.919081 L48.7242991,56.4395489 L49.2283927,56.0865787 L49.2283927,56.0865787 Z M47.0651473,57.4965452 L45.5266857,54.8318516 L44.993747,55.1395439 L46.5322085,57.8042375 L47.0651473,57.4965452 L47.0651473,57.4965452 Z M44.787247,58.712607 L43.486883,55.9239676 L42.9291553,56.1840403 L44.2295191,58.9726797 L44.787247,58.712607 L44.787247,58.712607 Z M42.412028,59.7255091 L41.3596583,56.8341472 L40.781386,57.0446211 L41.8337557,59.935983 L42.412028,59.7255091 L42.412028,59.7255091 Z M39.9575673,60.5275431 L39.161201,57.5554635 L38.5667851,57.7147369 L39.3631515,60.6868163 L39.9575673,60.5275431 L39.9575673,60.5275431 Z M37.4425447,61.1126046 L36.9082426,58.0824269 L36.3022071,58.1892872 L36.8365092,61.2194649 L37.4425447,61.1126046 L37.4425447,61.1126046 Z M34.886101,61.4762411 L34.6179295,58.4110266 L34.0048866,58.464661 L34.2730581,61.5298753 L34.886101,61.4762411 L34.886101,61.4762411 Z M32.3076923,61.6156851 L32.3076923,58.538762 L31.6923077,58.538762 L31.6923077,61.6156851 L32.3076923,61.6156851 L32.3076923,61.6156851 Z M29.7269419,61.5298753 L29.9951134,58.464661 L29.3820705,58.4110266 L29.113899,61.4762411 L29.7269419,61.5298753 L29.7269419,61.5298753 Z M27.1634908,61.2194649 L27.6977929,58.1892872 L27.0917574,58.0824269 L26.5574553,61.1126046 L27.1634908,61.2194649 L27.1634908,61.2194649 Z M24.6368485,60.6868163 L25.4332149,57.7147369 L24.838799,57.5554635 L24.0424327,60.5275431 L24.6368485,60.6868163 L24.6368485,60.6868163 Z M22.1662443,59.935983 L23.218614,57.0446211 L22.6403417,56.8341472 L21.587972,59.7255091 L22.1662443,59.935983 L22.1662443,59.935983 Z M19.7704809,58.9726797 L21.0708447,56.1840403 L20.513117,55.9239676 L19.212753,58.712607 L19.7704809,58.9726797 L19.7704809,58.9726797 Z M17.4677915,57.8042375 L19.006253,55.1395439 L18.4733143,54.8318516 L16.9348527,57.4965452 L17.4677915,57.8042375 L17.4677915,57.8042375 Z M15.2757009,56.4395489 L17.0405516,53.919081 L16.536458,53.566111 L14.7716073,56.0865787 L15.2757009,56.4395489 L15.2757009,56.4395489 Z M13.2108924,54.8890001 L15.1887004,52.5319403 L14.7172885,52.1363785 L12.7394805,54.4934384 L13.2108924,54.8890001 L13.2108924,54.8890001 Z M11.2890803,53.1643916 L13.4647935,50.9886784 L13.0296509,50.5535358 L10.8539377,52.729249 L11.2890803,53.1643916 L11.2890803,53.1643916 Z M9.52489088,51.2788489 L11.8819507,49.3010409 L11.4863891,48.8296289 L9.12932929,50.8074369 L9.52489088,51.2788489 L9.52489088,51.2788489 Z M7.93175058,49.246722 L10.4522184,47.4818713 L10.0992483,46.9777778 L7.57878046,48.7426285 L7.93175058,49.246722 L7.93175058,49.246722 Z M6.52178418,47.0834766 L9.18647773,45.5450151 L8.87878542,45.0120763 L6.21409187,46.5505378 L6.52178418,47.0834766 L6.52178418,47.0834766 Z M5.30572238,44.8055764 L8.09436173,43.5052124 L7.83428894,42.9474846 L5.0456496,44.2478485 L5.30572238,44.8055764 L5.30572238,44.8055764 Z M4.29282015,42.4303573 L7.18418206,41.3779876 L6.97370813,40.7997154 L4.08234623,41.8520851 L4.29282015,42.4303573 L4.29282015,42.4303573 Z M3.4907863,39.9758966 L6.46286576,39.1795304 L6.30359252,38.5851144 L3.33151303,39.3814807 L3.4907863,39.9758966 L3.4907863,39.9758966 Z M2.90572477,37.460874 L5.93590249,36.9265719 L5.82904207,36.3205364 L2.79886436,36.8548385 L2.90572477,37.460874 L2.90572477,37.460874 Z M2.54208826,34.9044303 L5.60730271,34.6362588 L5.55366841,34.023216 L2.48845396,34.2913874 L2.54208826,34.9044303 L2.54208826,34.9044303 Z M2.40264424,32.3260217 L5.47956732,32.3260217 L5.47956732,31.710637 L2.40264424,31.710637 L2.40264424,32.3260217 L2.40264424,32.3260217 Z M2.48845396,29.7452712 L5.55366841,30.0134427 L5.60730271,29.4003999 L2.54208826,29.1322284 L2.48845396,29.7452712 L2.48845396,29.7452712 Z M2.79886436,27.1818202 L5.82904207,27.7161223 L5.93590249,27.1100867 L2.90572477,26.5757847 L2.79886436,27.1818202 L2.79886436,27.1818202 Z M3.33151303,24.6551778 L6.30359252,25.4515443 L6.46286576,24.8571283 L3.4907863,24.0607621 L3.33151303,24.6551778 L3.33151303,24.6551778 Z M4.08234623,22.1845736 L6.97370813,23.2369433 L7.18418206,22.6586709 L4.29282015,21.6063014 L4.08234623,22.1845736 L4.08234623,22.1845736 Z M5.0456496,19.7888102 L7.83428894,21.0891741 L8.09436173,20.5314462 L5.30572238,19.2310823 L5.0456496,19.7888102 L5.0456496,19.7888102 Z M6.21409187,17.4861208 L8.87878542,19.0245824 L9.18647773,18.4916436 L6.52178418,16.9531821 L6.21409187,17.4861208 L6.21409187,17.4861208 Z M7.57878046,15.2940302 L10.0992483,17.0588809 L10.4522184,16.5547872 L7.93175058,14.7899367 L7.57878046,15.2940302 L7.57878046,15.2940302 Z M9.12932929,13.2292217 L11.4863891,15.2070298 L11.8819507,14.7356178 L9.52489088,12.7578098 L9.12932929,13.2292217 L9.12932929,13.2292217 Z M10.8539377,11.3074097 L13.0296509,13.4831229 L13.4647935,13.0479802 L11.2890803,10.872267 L10.8539377,11.3074097 L10.8539377,11.3074097 Z M12.7394805,9.5432202 L14.7172885,11.90028 L15.1887004,11.5047184 L13.2108924,9.14765861 L12.7394805,9.5432202 L12.7394805,9.5432202 Z M14.7716073,7.95007991 L16.536458,10.4705477 L17.0405516,10.1175776 L15.2757009,7.59710979 L14.7716073,7.95007991 L14.7716073,7.95007991 Z M16.9348527,6.5401135 L18.4733143,9.20480706 L19.006253,8.89711475 L17.4677915,6.2324212 L16.9348527,6.5401135 L16.9348527,6.5401135 Z M19.212753,5.32405171 L20.513117,8.11269105 L21.0708447,7.85261827 L19.7704809,5.06397892 L19.212753,5.32405171 L19.212753,5.32405171 Z M21.587972,4.31114947 L22.6403417,7.20251139 L23.218614,6.99203745 L22.1662443,4.10067556 L21.587972,4.31114947 L21.587972,4.31114947 Z M24.0424327,3.50911562 L24.838799,6.48119509 L25.4332149,6.32192184 L24.6368485,3.34984236 L24.0424327,3.50911562 L24.0424327,3.50911562 Z M26.5574553,2.9240541 L27.0917574,5.95423181 L27.6977929,5.8473714 L27.1634908,2.81719368 L26.5574553,2.9240541 L26.5574553,2.9240541 Z M29.113899,2.56041759 L29.3820705,5.62563204 L29.9951134,5.57199774 L29.7269419,2.50678329 L29.113899,2.56041759 L29.113899,2.56041759 Z" id="Smaller-Notches" fill="#8E8E8E"></path>
                    <path d="M31.7043269,2.46153846 L31.7043269,8 L32.3197115,8 L32.3197115,2.46153846 L31.7043269,2.46153846 L31.7043269,2.46153846 Z M36.8403886,2.85704646 L35.8786449,8.31136633 L36.4846804,8.41822674 L37.4464241,2.96390688 L36.8403886,2.85704646 L36.8403886,2.85704646 Z M41.8297427,4.13841355 L39.9354772,9.34286498 L40.5137497,9.55333891 L42.4080151,4.34888748 L41.8297427,4.13841355 L41.8297427,4.13841355 Z M46.5207902,6.26670603 L43.7515595,11.0631544 L44.2844982,11.3708467 L47.053729,6.57439834 L46.5207902,6.26670603 L46.5207902,6.26670603 Z M50.7709961,9.17725684 L47.2109416,13.4199645 L47.6823536,13.8155261 L51.2424081,9.57281845 L50.7709961,9.17725684 L50.7709961,9.17725684 Z M54.4512201,12.7816303 L50.2085124,16.3416849 L50.6040739,16.8130968 L54.8467816,13.2530423 L54.4512201,12.7816303 L54.4512201,12.7816303 Z M57.4496401,16.9703095 L52.6531917,19.7395402 L52.960884,20.272479 L57.7573324,17.5032482 L57.4496401,16.9703095 L57.4496401,16.9703095 Z M59.675151,21.6160233 L54.4706996,23.5102888 L54.6811735,24.0885612 L59.8856249,22.1942958 L59.675151,21.6160233 L59.675151,21.6160233 Z M61.0601316,26.5776144 L55.6058118,27.5393581 L55.7126721,28.1453936 L61.166992,27.1836499 L61.0601316,26.5776144 L61.0601316,26.5776144 Z M61.5625,31.7043269 L56.0240385,31.7043269 L56.0240385,32.3197115 L61.5625,32.3197115 L61.5625,31.7043269 L61.5625,31.7043269 Z M61.166992,36.8403886 L55.7126721,35.8786449 L55.6058118,36.4846804 L61.0601316,37.4464241 L61.166992,36.8403886 L61.166992,36.8403886 Z M59.8856249,41.8297427 L54.6811735,39.9354772 L54.4706996,40.5137497 L59.675151,42.4080151 L59.8856249,41.8297427 L59.8856249,41.8297427 Z M57.7573324,46.5207902 L52.960884,43.7515595 L52.6531917,44.2844982 L57.4496401,47.053729 L57.7573324,46.5207902 L57.7573324,46.5207902 Z M54.8467816,50.7709961 L50.6040739,47.2109416 L50.2085124,47.6823536 L54.4512201,51.2424081 L54.8467816,50.7709961 L54.8467816,50.7709961 Z M51.2424081,54.4512201 L47.6823536,50.2085124 L47.2109416,50.6040739 L50.7709961,54.8467816 L51.2424081,54.4512201 L51.2424081,54.4512201 Z M47.053729,57.4496401 L44.2844982,52.6531917 L43.7515595,52.960884 L46.5207902,57.7573324 L47.053729,57.4496401 L47.053729,57.4496401 Z M42.4080151,59.675151 L40.5137497,54.4706996 L39.9354772,54.6811735 L41.8297427,59.8856249 L42.4080151,59.675151 L42.4080151,59.675151 Z M37.4464241,61.0601316 L36.4846804,55.6058118 L35.8786449,55.7126721 L36.8403886,61.166992 L37.4464241,61.0601316 L37.4464241,61.0601316 Z M32.3197115,61.5625 L32.3197115,56.0240385 L31.7043269,56.0240385 L31.7043269,61.5625 L32.3197115,61.5625 L32.3197115,61.5625 Z M27.1836499,61.166992 L28.1453936,55.7126721 L27.5393581,55.6058118 L26.5776144,61.0601316 L27.1836499,61.166992 L27.1836499,61.166992 Z M22.1942958,59.8856249 L24.0885612,54.6811735 L23.5102888,54.4706996 L21.6160233,59.675151 L22.1942958,59.8856249 L22.1942958,59.8856249 Z M17.5032482,57.7573324 L20.272479,52.960884 L19.7395402,52.6531917 L16.9703095,57.4496401 L17.5032482,57.7573324 L17.5032482,57.7573324 Z M13.2530423,54.8467816 L16.8130968,50.6040739 L16.3416849,50.2085124 L12.7816303,54.4512201 L13.2530423,54.8467816 L13.2530423,54.8467816 Z M9.57281845,51.2424081 L13.8155261,47.6823536 L13.4199645,47.2109416 L9.17725684,50.7709961 L9.57281845,51.2424081 L9.57281845,51.2424081 Z M6.57439834,47.053729 L11.3708467,44.2844982 L11.0631544,43.7515595 L6.26670603,46.5207902 L6.57439834,47.053729 L6.57439834,47.053729 Z M4.34888748,42.4080151 L9.55333891,40.5137497 L9.34286498,39.9354772 L4.13841355,41.8297427 L4.34888748,42.4080151 L4.34888748,42.4080151 Z M2.96390688,37.4464241 L8.41822674,36.4846804 L8.31136633,35.8786449 L2.85704646,36.8403886 L2.96390688,37.4464241 L2.96390688,37.4464241 Z M2.46153846,32.3197115 L8,32.3197115 L8,31.7043269 L2.46153846,31.7043269 L2.46153846,32.3197115 L2.46153846,32.3197115 Z M2.85704646,27.1836499 L8.31136633,28.1453936 L8.41822674,27.5393581 L2.96390688,26.5776144 L2.85704646,27.1836499 L2.85704646,27.1836499 Z M4.13841355,22.1942958 L9.34286498,24.0885612 L9.55333891,23.5102888 L4.34888748,21.6160233 L4.13841355,22.1942958 L4.13841355,22.1942958 Z M6.26670603,17.5032482 L11.0631544,20.272479 L11.3708467,19.7395402 L6.57439834,16.9703095 L6.26670603,17.5032482 L6.26670603,17.5032482 Z M9.17725684,13.2530423 L13.4199645,16.8130968 L13.8155261,16.3416849 L9.57281845,12.7816303 L9.17725684,13.2530423 L9.17725684,13.2530423 Z M12.7816303,9.57281845 L16.3416849,13.8155261 L16.8130968,13.4199645 L13.2530423,9.17725684 L12.7816303,9.57281845 L12.7816303,9.57281845 Z M16.9703095,6.57439834 L19.7395402,11.3708467 L20.272479,11.0631544 L17.5032482,6.26670603 L16.9703095,6.57439834 L16.9703095,6.57439834 Z M21.6160233,4.34888748 L23.5102888,9.55333891 L24.0885612,9.34286498 L22.1942958,4.13841355 L21.6160233,4.34888748 L21.6160233,4.34888748 Z M26.5776144,2.96390688 L27.5393581,8.41822674 L28.1453936,8.31136633 L27.1836499,2.85704646 L26.5776144,2.96390688 L26.5776144,2.96390688 Z" id="Larger-Notches" fill="#8E8E8E"></path>
                    <g id="Needle" transform="translate(31.782429, 32.489535) rotate(45.000000) translate(-31.782429, -32.489535) translate(27.282429, -0.010465)">
                        <path d="M4.30769231,1.19015908e-13 L8.61538462,32 L5.32907052e-13,32 L4.30769231,1.19015908e-13 Z" id="Top-Point" fill="#B0B0B0"></path>
                        <path d="M4.30769231,32 L8.61538462,64 L5.82645043e-13,64 L4.30769231,32 Z" id="Bottom-Point" fill="#FFFFFF" transform="translate(4.307692, 48.000000) scale(1, -1) translate(-4.307692, -48.000000) "></path>
                    </g>
                </g>
            </g>
            <text id="ROOT-" sketch:type="MSTextLayer" font-family="Calibri, Tahoma, sans-serif" font-size="24" font-weight="260" sketch:alignment="middle" fill="#2E2E2E">
                <tspan x="142.172" y="530">ROOT </tspan>
                <tspan x="103.478" y="559">CERTIFICATE </tspan>
                <tspan x="137.888" y="588">STORE</tspan>
            </text>
            <text id="OPERATING-SYSTEMS" sketch:type="MSTextLayer" font-family="Calibri, Tahoma, sans-serif" font-size="24" font-weight="260" sketch:alignment="middle" fill="#2E2E2E">
                <tspan x="114.342" y="383">OPERATING </tspan>
                <tspan x="135.57" y="412">SYSTEM</tspan>
            </text>
            <text id="BROWSER" sketch:type="MSTextLayer" font-family="Calibri, Tahoma, sans-serif" font-size="24" font-weight="260" fill="#2E2E2E">
                <tspan x="120" y="236">BROWSER</tspan>
            </text>
            <text id="ALL" sketch:type="MSTextLayer" font-family="Calibri, Tahoma, sans-serif" font-size="64" font-weight="206" sketch:alignment="middle" fill="#E6E6E6">
                <tspan x="912.616" y="415">ALL</tspan>
            </text>
            <g id="firefox" sketch:type="MSLayerGroup" transform="translate(930.000000, 191.000000)" fill="#EFEFEF">
                <path d="M64.5228777,32.0650426 C64.5228777,48.8942354 52.234607,62.7165135 35.152441,62.7165135 C18.0702751,62.7165135 5.36127511,49.1730202 5.36127511,32.3470762 C5.36127511,15.5226794 19.9465044,1.85093274 35.2206507,2.41175112 C52.1679476,3.02640807 64.5228777,15.2423475 64.5228777,32.0651973 L64.5228777,32.0650426 Z M35.152286,0.065441704 C17.1731638,0.065441704 2.54809389,14.4848946 2.54809389,32.2027332 C2.54809389,49.9157758 17.1730087,64.3386323 35.152286,64.3386323 C53.1345087,64.3386323 67.7595786,49.9159305 67.7595786,32.2027332 C67.7563231,14.4833475 53.1315633,0.065441704 35.152286,0.065441704 L35.152286,0.065441704 Z" id="Shape" sketch:type="MSShapeGroup"></path>
                <path d="M4.43718996,18.7941457 L4.70863319,12.599926 C4.70863319,12.599926 6.06119869,8.14989013 8.21848253,7.47969283 L11.4599891,14.2157018 L20.5034978,14.2157018 C20.5034978,14.2157018 24.8276769,9.90196413 29.5518122,10.4389574 C29.5518122,10.4389574 25.0975699,15.2913901 25.0975699,16.3655314 L27.3881725,19.7398789 C27.3881725,19.7398789 34.9475022,20.140574 34.9475022,20.6792691 L34.8157336,22.1619955 C34.8157336,22.1619955 33.3282991,24.3197152 27.3881725,28.2262601 C27.3881725,28.2262601 28.6041638,32.1362085 27.9295087,33.0771457 L24.4196594,32.1360538 C24.4196594,32.1360538 22.2592751,33.8850336 22.2592751,34.6944686 C22.2592751,34.6944686 24.8261266,39.2744596 27.2548537,40.0840493 C27.2548537,40.0840493 29.0073755,41.0249865 36.7032795,38.8689686 L39.4034498,38.5996211 C39.4034498,38.5996211 43.7228231,41.0218924 43.7228231,41.6951839 C43.7228231,41.6951839 42.8672576,43.0750291 39.5860655,43.3316906 L33.874441,47.2176592 L26.1769869,46.9450628 C26.1769869,46.9450628 41.9718515,62.5795964 52.2313515,41.4287758 L53.313869,47.4899462 C53.313869,47.4899462 57.7696616,44.1219417 55.4727031,32.5364395 L58.8475284,35.4974058 C58.8475284,35.4974058 60.0635197,28.2227018 57.2267751,22.2961278 L60.8699432,24.1812511 C60.8699432,24.1812511 59.519083,17.5798386 50.0739127,13.673139 L46.5594127,12.4628543 L54.2599672,11.1147242 C54.2599672,11.1147242 48.5897336,7.62790359 43.2543472,7.61831166 C43.2543472,7.61831166 56.1458079,4.77941031 65.1908668,17.0397511 L62.8939083,8.68765695 C62.8939083,8.68765695 68.4325284,20.003657 69.2436026,28.7596951 C69.2436026,28.7596951 70.9976747,25.526287 70.8628057,24.4521457 C70.8628057,24.4521457 70.7294869,31.5907063 69.6499148,32.6710359 C69.6499148,32.6710359 72.6168777,60.5595673 43.0509585,68.10037 C43.0509585,68.10037 11.5962533,75.9168632 1.19692358,43.584639 C1.19692358,43.5861861 -2.71598253,32.9417758 4.43687991,18.7932175 L4.43718996,18.7941457 Z" id="Shape" sketch:type="MSShapeGroup"></path>
            </g>
            <g id="ios" sketch:type="MSLayerGroup" transform="translate(439.000000, 356.000000)" fill="#E6E6E6">
                <path d="M33.286087,0.56 C35.6174704,0.22 37.9807905,0.452 40.3281423,0.38 C43.5258103,0.272 46.5797628,1.484 49.3822134,2.908 C52.476087,4.44 54.8433992,7.036 57.1348617,9.548 C60.9912253,14.596 62.8874704,20.928 63.4343874,27.196 C63.4583399,29.28 64.0212253,31.348 63.7178261,33.432 C63.4144269,35.716 63.4902767,38.044 62.9792885,40.3 C61.8135968,45.428 59.8454941,50.484 56.4362451,54.548 C52.93917,59.248 47.6097233,62.56 41.8251779,63.488 C40.0007905,63.716 38.1604348,63.584 36.3280632,63.62 C30.1483004,63.888 24.3637549,60.52 20.2399209,56.12 C14.3555731,49.76 11.9962451,40.904 11.9443478,32.4 C11.8405534,24.3 13.9124506,15.888 19.0502767,9.496 C22.4635178,4.88 27.7211067,1.776 33.286087,0.56 L33.286087,0.56 Z M34.088498,2.968 C28.363834,4.036 23.1781028,7.532 19.9085771,12.344 C16.4194862,17.268 15.0262451,23.304 14.4274308,29.216 C14.0002767,35.708 15.1300395,42.292 17.7049407,48.268 C20.2998024,53.764 24.8947036,58.52 30.7790514,60.372 C33.8250198,61.512 37.1264822,61.236 40.3121739,61.16 C43.9968775,60.728 47.5937549,59.324 50.5239526,57.028 C56.9073123,52.348 60.2127668,44.488 61.0311462,36.784 C61.1309486,33.724 61.0950198,30.656 61.0550988,27.596 C60.4682609,20.988 58.244664,14.316 53.7894862,9.304 C51.342332,6.792 48.2843874,4.872 44.9709486,3.732 C41.5098024,2.42 37.705336,2.688 34.088498,2.968 L34.088498,2.968 Z" id="Shape" sketch:type="MSShapeGroup"></path>
                <path d="M73.941581,5.692 C76.8757708,2.54 81.0315415,0.228 85.4228458,0.376 C87.7981423,0.436 90.2373123,0.156 92.5487352,0.852 C94.2373913,1.348 95.8302372,2.108 97.3671937,2.96 C97.1835573,3.712 96.9001186,4.424 96.5567984,5.108 C93.1435573,3.364 89.3590514,2.08 85.4747431,2.452 C82.5126087,2.86 79.4826087,3.736 77.1671937,5.716 C74.1252174,8.144 72.3367589,12.112 72.636166,16.012 C72.8517391,19.272 74.5643478,22.316 77.0793676,24.364 C82.3449407,28.708 89.4229249,29.976 94.6964822,34.312 C96.792332,36.248 98.9919763,38.328 99.8582609,41.14 C101.259486,45.84 100.880237,51.14 98.4570356,55.448 C95.1795257,60.564 89.1993676,64.116 83.031581,63.624 C78.0813834,63.92 72.8756917,62.716 68.9514625,59.576 C69.1909881,58.86 69.5183399,58.184 69.9255336,57.548 C71.7219763,58.38 73.3228063,59.604 75.2110672,60.248 C80.632332,62.108 87.0675889,62.256 91.9898419,58.972 C97.5428458,55.268 99.7624506,47.5 97.2314625,41.364 C96.1775494,38.988 94.4250198,36.976 92.2613043,35.56 C87.1793676,31.964 80.8598814,30.596 75.9695652,26.688 C73.3347826,24.824 71.3227668,22.052 70.5522925,18.9 C69.4943874,14.288 70.7758498,9.212 73.941581,5.692 L73.941581,5.692 Z" id="Shape" sketch:type="MSShapeGroup"></path>
                <path d="M1.35731225,4.064 C2.41521739,3.764 3.60885375,4.124 4.3513834,4.932 C4.44320158,5.788 4.6587747,6.896 3.91624506,7.528 C3.27750988,8.1 2.31142292,8.7 1.46110672,8.196 C-0.203596838,7.644 -0.0319367589,4.852 1.35731225,4.064 L1.35731225,4.064 Z" id="Shape" sketch:type="MSShapeGroup"></path>
                <path d="M1.24952569,19.216 C2.01600791,19.164 2.77849802,19.164 3.54098814,19.216 C3.68470356,32.94 3.52901186,46.672 3.61683794,60.404 C3.63280632,61.196 3.58090909,61.992 3.54098814,62.784 C2.77849802,62.832 2.01201581,62.832 1.24952569,62.784 C1.10181818,49.06 1.26549407,35.328 1.17367589,21.6 C1.15770751,20.804 1.20960474,20.008 1.24952569,19.216 L1.24952569,19.216 Z" id="Shape" sketch:type="MSShapeGroup"></path>
            </g>
            <path d="M400,357.94043 L396.938151,357.94043 L376.921883,386.86805 L376.739086,386.86805 L356.768517,357.94043 L353.660969,357.94043 L375.231011,389.061613 L353.752367,420 L356.814216,420 L376.693387,391.163779 L376.876184,391.163779 L396.755354,420 L399.862902,420 L378.384258,389.061613 L400,357.94043 L400,357.94043 Z" id="Shape" fill="#E6E6E6" sketch:type="MSShapeGroup"></path>
            <g id="microsoft" sketch:type="MSLayerGroup" transform="translate(620.000000, 533.000000)" fill="#E6E6E6">
                <path d="M173.957173,16.715043 L173.957173,13.6713326 L170.158067,13.6713326 L170.158067,8.93939253 L170.030192,8.97852715 L166.461837,10.0646697 L166.391581,10.0860158 L166.391581,13.6713326 L160.759509,13.6713326 L160.759509,11.6742115 C160.759509,10.7441889 160.968595,10.0324412 161.380456,9.55780317 C161.789584,9.08881561 162.374772,8.85045023 163.120877,8.85045023 C163.657475,8.85045023 164.213005,8.97622511 164.7719,9.22421719 L164.911992,9.28637217 L164.911992,6.0808914 L164.846153,6.05682466 C164.3247,5.87035973 163.615195,5.7763948 162.73615,5.7763948 C161.628036,5.7763948 160.6211,6.01622511 159.743106,6.49170023 C158.864482,6.96780317 158.173278,7.64753167 157.689267,8.51184163 C157.206728,9.3751052 156.961883,10.3720962 156.961883,11.4753993 L156.961883,13.6713326 L154.316544,13.6713326 L154.316544,16.715043 L156.961883,16.715043 L156.961883,29.5375939 L160.759509,29.5375939 L160.759509,16.715043 L166.391581,16.715043 L166.391581,24.8636233 C166.391581,28.2195735 167.982654,29.9203597 171.120418,29.9203597 C171.636191,29.9203597 172.178688,29.8600882 172.732947,29.7422658 C173.296899,29.6215136 173.680994,29.5007613 173.90711,29.3718473 L173.957173,29.3425486 L173.957173,26.270586 L173.802778,26.3722941 C173.596636,26.5091606 173.340012,26.6207048 173.039012,26.7035781 C172.736733,26.7881256 172.484315,26.8306086 172.28891,26.8306086 C171.553735,26.8306086 171.009993,26.6334706 170.672376,26.2446357 C170.331191,25.8522432 170.158083,25.1658179 170.158083,24.2058688 L170.158083,16.715043 L173.957173,16.715043 L173.957173,16.715043 Z M145.835853,26.8309016 C144.457442,26.8309016 143.370783,26.3761448 142.604906,25.4804434 C141.8344,24.580138 141.443994,23.2966482 141.443994,21.6659695 C141.443994,19.9835995 141.8344,18.6668348 142.605326,17.7506244 C143.371625,16.840483 144.447976,16.3786109 145.804932,16.3786109 C147.121712,16.3786109 148.169877,16.8197647 148.920609,17.6905622 C149.675338,18.5657545 150.058172,19.8720554 150.058172,21.5740973 C150.058172,23.2970667 149.698056,24.6205283 148.987921,25.5057658 C148.282834,26.3845158 147.222469,26.8309016 145.835853,26.8309016 L145.835853,26.8309016 Z M146.004973,13.289069 C143.375201,13.289069 141.286443,14.0556471 139.797389,15.5676663 C138.309176,17.0798948 137.554446,19.1724457 137.554446,21.7879774 C137.554446,24.2720837 138.291086,26.2702511 139.74396,27.7259751 C141.196835,29.1823269 143.174108,29.9200249 145.620247,29.9200249 C148.169456,29.9200249 150.216564,29.1427738 151.705198,27.6098269 C153.193622,26.078345 153.94772,24.0056753 153.94772,21.4512523 C153.94772,18.9282206 153.240109,16.9151946 151.843818,15.4690973 C150.446896,14.0223722 148.482033,13.289069 146.004973,13.289069 L146.004973,13.289069 Z M131.431526,13.2889853 C129.642725,13.2889853 128.163136,13.7441606 127.032725,14.6417455 C125.895583,15.5445622 125.318808,16.7288552 125.318808,18.1617681 C125.318808,18.9065814 125.443335,19.5683122 125.68839,20.1293812 C125.934918,20.692543 126.31649,21.1881086 126.823218,21.6041493 C127.326371,22.0168416 128.102556,22.4492059 129.131579,22.8888948 C129.99632,23.2429898 130.641458,23.5426731 131.051217,23.7787364 C131.451719,24.0099864 131.73611,24.2427014 131.896606,24.469138 C132.052474,24.6907613 132.131775,24.9940023 132.131775,25.3686063 C132.131775,26.4344491 131.329507,26.9530351 129.678484,26.9530351 C129.066161,26.9530351 128.367595,26.8260045 127.602348,26.5750826 C126.836681,26.3245792 126.121287,25.9644152 125.476359,25.502543 L125.318808,25.3901618 L125.318808,29.0275882 L125.376654,29.0543756 C125.914094,29.301112 126.591415,29.5091324 127.389896,29.6729955 C128.186906,29.8368586 128.910924,29.9203597 129.540075,29.9203597 C131.481168,29.9203597 133.044265,29.4628824 134.184773,28.5600656 C135.332643,27.6509706 135.914466,26.4388439 135.914466,24.9561233 C135.914466,23.8867229 135.601258,22.9694661 134.983886,22.2298846 C134.370931,21.4961629 133.30699,20.8227127 131.822774,20.2273224 C130.640407,19.7551957 129.882943,19.3632217 129.570576,19.0624921 C129.269357,18.7718077 129.116434,18.3607896 129.116434,17.8403201 C129.116434,17.3788665 129.305116,17.0092851 129.692788,16.7098111 C130.083405,16.4088722 130.626944,16.2558914 131.308893,16.2558914 C131.94162,16.2558914 132.589072,16.3552975 133.232737,16.5501335 C133.876192,16.7449695 134.441188,17.0059367 134.912998,17.3252919 L135.068025,17.430767 L135.068025,13.980224 L135.008496,13.9546923 C134.573286,13.7690645 133.999456,13.610224 133.302573,13.48131 C132.608424,13.3536516 131.978852,13.2889853 131.431526,13.2889853 L131.431526,13.2889853 Z M115.418562,26.8309016 C114.040571,26.8309016 112.953492,26.3761448 112.187824,25.4804434 C111.417109,24.580138 111.027334,23.2970667 111.027334,21.6659695 C111.027334,19.9835995 111.417529,18.6668348 112.188666,17.7506244 C112.954333,16.840483 114.030474,16.3786109 115.388061,16.3786109 C116.70442,16.3786109 117.752585,16.8197647 118.503528,17.6905622 C119.258257,18.5657545 119.641091,19.8720554 119.641091,21.5740973 C119.641091,23.2970667 119.280764,24.6205283 118.570629,25.5057658 C117.865542,26.3845158 116.805598,26.8309016 115.418562,26.8309016 L115.418562,26.8309016 Z M115.588102,13.289069 C112.957699,13.289069 110.868941,14.0556471 109.380518,15.5676663 C107.892305,17.0798948 107.137155,19.1724457 107.137155,21.7879774 C107.137155,24.2731301 107.874215,26.2702511 109.327089,27.7259751 C110.779964,29.1823269 112.757026,29.9200249 115.203376,29.9200249 C117.751954,29.9200249 119.799693,29.1427738 121.288327,27.6098269 C122.77633,26.078345 123.530849,24.0056753 123.530849,21.4512523 C123.530849,18.9282206 122.823027,16.9151946 121.426526,15.4690973 C120.029183,14.0223722 118.064742,13.289069 115.588102,13.289069 L115.588102,13.289069 Z M101.372479,16.4189174 L101.372479,13.6713326 L97.62113,13.6713326 L97.62113,29.5371753 L101.372479,29.5371753 L101.372479,21.4212421 C101.372479,20.0410667 101.68695,18.9074186 102.307477,18.0510611 C102.920221,17.2049581 103.736792,16.7761516 104.733632,16.7761516 C105.071452,16.7761516 105.450709,16.8316097 105.861519,16.9412704 C106.268122,17.0503032 106.56261,17.1685441 106.736357,17.2930633 L106.893908,17.4067002 L106.893908,13.6441267 L106.833117,13.6181765 C106.483729,13.4704276 105.989621,13.3959253 105.364256,13.3959253 C104.421686,13.3959253 103.57798,13.6972828 102.855434,14.2905803 C102.221234,14.8120962 101.762675,15.5271923 101.412235,16.4189174 L101.372479,16.4189174 L101.372479,16.4189174 Z M90.9033467,13.2889853 C89.1824884,13.2889853 87.6473675,13.6562647 86.3415261,14.3799412 C85.0331605,15.1052919 84.0213859,16.1409989 83.3329163,17.4579729 C82.647602,18.7718077 82.2996862,20.3064287 82.2996862,22.0176787 C82.2996862,23.5167229 82.6370846,24.8925034 83.3038883,26.1048394 C83.9711127,27.3192681 84.9155759,28.2693812 86.1109845,28.9283914 C87.3047103,29.5865645 88.6843839,29.9203597 90.2119323,29.9203597 C91.994633,29.9203597 93.5167123,29.5656369 94.7371523,28.8664457 L94.7863738,28.8381934 L94.7863738,25.4190419 L94.628823,25.5335158 C94.076028,25.9340701 93.4582355,26.2538439 92.7935353,26.4842568 C92.1305179,26.7144604 91.5259773,26.8308179 90.9961103,26.8308179 C89.5240938,26.8308179 88.3425682,26.3725034 87.4847684,25.4692681 C86.6250754,24.5645679 86.189234,23.2944717 86.189234,21.6960215 C86.189234,20.087526 86.6437964,18.7847828 87.5396692,17.8233688 C88.4325972,16.8648846 89.6164367,16.3787364 91.0579526,16.3787364 C92.2910135,16.3787364 93.4925222,16.7941493 94.6292437,17.6145113 L94.7863738,17.7281482 L94.7863738,14.1254615 L94.7356799,14.097 C94.3078317,13.8588439 93.7245363,13.6621244 93.0000972,13.5129106 C92.2790237,13.3641154 91.5737263,13.2889853 90.9033467,13.2889853 L90.9033467,13.2889853 Z M79.7160638,13.6713744 L75.9647147,13.6713744 L75.9647147,29.5372172 L79.7160638,29.5372172 L79.7160638,13.6713744 L79.7160638,13.6713744 Z M77.8786726,6.91238688 C77.2613008,6.91238688 76.7228095,7.12145362 76.2804473,7.53582014 C75.836192,7.95144231 75.6106987,8.47463235 75.6106987,9.09199661 C75.6106987,9.69973416 75.8334574,10.2132975 76.2732955,10.6178281 C76.7103989,11.0211029 77.250573,11.2255656 77.8786726,11.2255656 C78.5065619,11.2255656 79.0488395,11.0211029 79.4912016,10.6184559 C79.9365087,10.2132975 80.1622123,9.69973416 80.1622123,9.09199661 C80.1622123,8.49618778 79.9426088,7.97822964 79.5095019,7.55256222 C79.0770261,7.1277319 78.5282278,6.91238688 77.8786726,6.91238688 L77.8786726,6.91238688 Z M68.519041,12.50081 L68.519041,29.5371335 L72.3473775,29.5371335 L72.3473775,7.39824208 L67.0489177,7.39824208 L60.3139902,23.8423145 L53.7782625,7.39824208 L48.2639854,7.39824208 L48.2639854,29.5371335 L51.86157,29.5371335 L51.86157,12.4991357 L51.9852547,12.4991357 L58.8867779,29.5371335 L61.6017417,29.5371335 L68.3955666,12.50081 L68.519041,12.50081 L68.519041,12.50081 Z" id="path5056" sketch:type="MSShapeGroup"></path>
                <path d="M17.6469487,17.5570023 L0,17.5570023 L0,0 L17.6469487,0 L17.6469487,17.5570023 L17.6469487,17.5570023 Z" id="path5058" sketch:type="MSShapeGroup"></path>
                <path d="M37.1312887,17.5570023 L19.4845503,17.5570023 L19.4845503,0 L37.1312887,0 L37.1312887,17.5570023 L37.1312887,17.5570023 Z" id="path5060" sketch:type="MSShapeGroup"></path>
                <path d="M17.646528,36.9489367 L0,36.9489367 L0,19.3919344 L17.646528,19.3919344 L17.646528,36.9489367 L17.646528,36.9489367 Z" id="path5062" sketch:type="MSShapeGroup"></path>
                <path d="M37.1312887,36.9489367 L19.4845503,36.9489367 L19.4845503,19.3919344 L37.1312887,19.3919344 L37.1312887,36.9489367 L37.1312887,36.9489367 Z" id="path5064" sketch:type="MSShapeGroup"></path>
            </g>
            <text id="Root-Certificate-Sto" sketch:type="MSTextLayer" font-family="Calibri, Tahoma, sans-serif" font-size="64" font-weight="260" fill="#4A4A4A">
                <tspan x="40" y="96">Root Certificate Stores</tspan>
            </text>
            <text id="From-http://certsimp" sketch:type="MSTextLayer" font-family="Calibri, Tahoma, sans-serif" font-size="20" font-weight="260" fill="#4A4A4A">
                <tspan x="1145" y="670">From http://certsimple.com</tspan>
            </text>
        </g>
    </g>
</svg>