<?xml version="1.0" encoding="UTF-8" standalone="no"?>
<svg width="155px" height="154px" viewBox="0 0 155 154" version="1.1" xmlns="http://www.w3.org/2000/svg" xmlns:xlink="http://www.w3.org/1999/xlink">
    <!-- Generator: Sketch 3.7.2 (28276) - http://www.bohemiancoding.com/sketch -->
    <title>rss</title>
    <desc>Created with Sketch.</desc>
    <defs></defs>
    <g id="Page-1" stroke="none" stroke-width="1" fill="none" fill-rule="evenodd">
        <g id="rss" fill="#424242">
            <path d="M43.4479177,131.735362 C43.4479177,143.232188 33.8496864,152.552199 22.0096793,152.552199 C10.1696635,152.552199 0.571440871,143.232188 0.571440871,131.735362 C0.571440871,120.238544 10.1696635,110.918526 22.0096793,110.918526 C33.8496864,110.918526 43.4479177,120.238544 43.4479177,131.735362 L43.4479177,131.735362 Z" id="path5270"></path>
            <path d="M1.19282,81.71281 L1.12003,51.43965 C65.8261,54.8151 101.73881,101.11282 102.62024,153.37926 L72.302,153.37926 C71.79899,107.43849 40.56135,83.38404 1.19282,81.71281 L1.19282,81.71281 Z" id="path5805"></path>
            <path d="M1.55943,31.22749 L0.68064,0.46985 C100.10904,5.08611 153.35828,77.23797 154.02943,153.37926 L122.8324,152.93986 C124.19732,104.23637 88.16671,32.67331 1.55943,31.22749 L1.55943,31.22749 Z" id="path5807"></path>
        </g>
    </g>
</svg>