<?xml version="1.0" encoding="UTF-8" standalone="no"?>
<svg width="482px" height="371px" viewBox="0 0 482 371" version="1.1" xmlns="http://www.w3.org/2000/svg" xmlns:xlink="http://www.w3.org/1999/xlink">
    <!-- Generator: Sketch 3.8.3 (29802) - http://www.bohemiancoding.com/sketch -->
    <title>twitter</title>
    <desc>Created with Sketch.</desc>
    <defs></defs>
    <g id="Page-1" stroke="none" stroke-width="1" fill="none" fill-rule="evenodd">
        <g id="twitter" stroke="#9B9B9B" stroke-width="20">
            <path d="M177.05,347.2 C131.798,347.2 89.68,333.937 54.218,311.202 C60.488,311.942 66.866,312.32 73.333,312.32 C110.873,312.32 145.423,299.51 172.847,278.02 C137.784,277.373 108.192,254.207 97.997,222.372 C102.887,223.308 107.907,223.809 113.071,223.809 C120.381,223.809 127.459,222.829 134.184,220.999 C97.526,213.639 69.907,181.252 69.907,142.429 C69.907,142.091 69.907,141.755 69.913,141.421 C80.717,147.423 93.071,151.027 106.207,151.443 C84.707,137.073 70.56,112.548 70.56,84.749 C70.56,70.064 74.51,56.299 81.407,44.465 C120.927,92.943 179.97,124.845 246.567,128.185 C245.2,122.321 244.49,116.205 244.49,109.925 C244.49,65.675 280.368,29.798 324.62,29.798 C347.667,29.798 368.492,39.528 383.11,55.102 C401.36,51.507 418.51,44.839 433.99,35.657 C428.008,54.367 415.304,70.069 398.76,79.987 C414.968,78.05 430.41,73.742 444.782,67.369 C434.039,83.439 420.452,97.551 404.798,108.849 C404.952,112.284 405.03,115.739 405.03,119.215 C405.03,225.1 324.434,347.198 177.05,347.198" id="Shape"></path>
        </g>
    </g>
</svg>